%TF.GenerationSoftware,KiCad,Pcbnew,9.0.0*%
%TF.CreationDate,2025-04-29T18:27:41-04:00*%
%TF.ProjectId,Generador de funciones,47656e65-7261-4646-9f72-206465206675,rev?*%
%TF.SameCoordinates,Original*%
%TF.FileFunction,Soldermask,Top*%
%TF.FilePolarity,Negative*%
%FSLAX46Y46*%
G04 Gerber Fmt 4.6, Leading zero omitted, Abs format (unit mm)*
G04 Created by KiCad (PCBNEW 9.0.0) date 2025-04-29 18:27:41*
%MOMM*%
%LPD*%
G01*
G04 APERTURE LIST*
G04 Aperture macros list*
%AMRoundRect*
0 Rectangle with rounded corners*
0 $1 Rounding radius*
0 $2 $3 $4 $5 $6 $7 $8 $9 X,Y pos of 4 corners*
0 Add a 4 corners polygon primitive as box body*
4,1,4,$2,$3,$4,$5,$6,$7,$8,$9,$2,$3,0*
0 Add four circle primitives for the rounded corners*
1,1,$1+$1,$2,$3*
1,1,$1+$1,$4,$5*
1,1,$1+$1,$6,$7*
1,1,$1+$1,$8,$9*
0 Add four rect primitives between the rounded corners*
20,1,$1+$1,$2,$3,$4,$5,0*
20,1,$1+$1,$4,$5,$6,$7,0*
20,1,$1+$1,$6,$7,$8,$9,0*
20,1,$1+$1,$8,$9,$2,$3,0*%
G04 Aperture macros list end*
%ADD10R,2.000000X2.000000*%
%ADD11C,2.000000*%
%ADD12RoundRect,0.250000X-0.470000X-0.470000X0.470000X-0.470000X0.470000X0.470000X-0.470000X0.470000X0*%
%ADD13C,1.440000*%
%ADD14C,1.750000*%
%ADD15C,1.600000*%
%ADD16O,1.600000X1.600000*%
%ADD17R,1.800000X1.800000*%
%ADD18C,1.800000*%
%ADD19R,2.200000X2.200000*%
%ADD20O,2.200000X2.200000*%
%ADD21C,2.600000*%
%ADD22C,3.800000*%
%ADD23RoundRect,0.250000X1.050000X-1.050000X1.050000X1.050000X-1.050000X1.050000X-1.050000X-1.050000X0*%
%ADD24R,1.500000X1.500000*%
%ADD25O,1.524800X2.845600*%
G04 APERTURE END LIST*
D10*
%TO.C,C1*%
X179500000Y-52500000D03*
D11*
X183000000Y-52500000D03*
%TD*%
D12*
%TO.C,RV2*%
X135890000Y-67310000D03*
D13*
X135890000Y-69850000D03*
X135890000Y-72390000D03*
%TD*%
D14*
%TO.C,RV1*%
X187960000Y-87630000D03*
X190500000Y-90170000D03*
X187960000Y-92710000D03*
%TD*%
D15*
%TO.C,R1*%
X142500000Y-58310000D03*
D16*
X142500000Y-50690000D03*
%TD*%
D17*
%TO.C,D2*%
X148730000Y-63500000D03*
D18*
X151270000Y-63500000D03*
%TD*%
D15*
%TO.C,R5*%
X147000000Y-58310000D03*
D16*
X147000000Y-50690000D03*
%TD*%
D15*
%TO.C,R2*%
X138000000Y-58310000D03*
D16*
X138000000Y-50690000D03*
%TD*%
D15*
%TO.C,R4*%
X178000000Y-96360000D03*
D16*
X178000000Y-88740000D03*
%TD*%
D19*
%TO.C,D1*%
X193500000Y-47920000D03*
D20*
X193500000Y-58080000D03*
%TD*%
D21*
%TO.C,REF\u002A\u002A*%
X130810000Y-45720000D03*
D22*
X130810000Y-45720000D03*
%TD*%
D23*
%TO.C,J1*%
X205000000Y-71660000D03*
D21*
X205000000Y-66580000D03*
X205000000Y-61500000D03*
%TD*%
D24*
%TO.C,SW1*%
X163960000Y-83000000D03*
D15*
X161420000Y-83000000D03*
X166500000Y-83000000D03*
%TD*%
D21*
%TO.C,REF\u002A\u002A*%
X130810000Y-101600000D03*
D22*
X130810000Y-101600000D03*
%TD*%
D15*
%TO.C,R8*%
X153000000Y-88310000D03*
D16*
X153000000Y-80690000D03*
%TD*%
D14*
%TO.C,RV4*%
X159000000Y-57000000D03*
X161540000Y-59540000D03*
X159000000Y-62080000D03*
%TD*%
D21*
%TO.C,REF\u002A\u002A*%
X212090000Y-101600000D03*
D22*
X212090000Y-101600000D03*
%TD*%
D25*
%TO.C,IC1*%
X182880000Y-68580000D03*
X180340000Y-68580000D03*
X177800000Y-68580000D03*
X175260000Y-68580000D03*
X172720000Y-68580000D03*
X170180000Y-68580000D03*
X167640000Y-68580000D03*
X167640000Y-76200000D03*
X170180000Y-76200000D03*
X172720000Y-76200000D03*
X175260000Y-76200000D03*
X177800000Y-76200000D03*
X180340000Y-76200000D03*
X182880000Y-76200000D03*
%TD*%
D15*
%TO.C,C3*%
X159500000Y-95500000D03*
X159500000Y-90500000D03*
%TD*%
%TO.C,C4*%
X163500000Y-95500000D03*
X163500000Y-90500000D03*
%TD*%
D21*
%TO.C,REF\u002A\u002A*%
X213360000Y-44450000D03*
D22*
X213360000Y-44450000D03*
%TD*%
D15*
%TO.C,R7*%
X169500000Y-56620000D03*
D16*
X169500000Y-49000000D03*
%TD*%
D23*
%TO.C,J2*%
X205000000Y-89160000D03*
D21*
X205000000Y-84080000D03*
X205000000Y-79000000D03*
%TD*%
D14*
%TO.C,RV3*%
X150460000Y-69960000D03*
X147920000Y-72500000D03*
X145380000Y-69960000D03*
%TD*%
D15*
%TO.C,C5*%
X167500000Y-95500000D03*
X167500000Y-90500000D03*
%TD*%
%TO.C,R3*%
X190000000Y-77470000D03*
D16*
X190000000Y-69850000D03*
%TD*%
D15*
%TO.C,R6*%
X159500000Y-68380000D03*
D16*
X159500000Y-76000000D03*
%TD*%
D15*
%TO.C,C2*%
X177125000Y-63500000D03*
X179625000Y-63500000D03*
%TD*%
M02*
