%TF.GenerationSoftware,KiCad,Pcbnew,9.0.0*%
%TF.CreationDate,2025-04-29T18:27:41-04:00*%
%TF.ProjectId,Generador de funciones,47656e65-7261-4646-9f72-206465206675,rev?*%
%TF.SameCoordinates,Original*%
%TF.FileFunction,Copper,L2,Bot*%
%TF.FilePolarity,Positive*%
%FSLAX46Y46*%
G04 Gerber Fmt 4.6, Leading zero omitted, Abs format (unit mm)*
G04 Created by KiCad (PCBNEW 9.0.0) date 2025-04-29 18:27:41*
%MOMM*%
%LPD*%
G01*
G04 APERTURE LIST*
G04 Aperture macros list*
%AMRoundRect*
0 Rectangle with rounded corners*
0 $1 Rounding radius*
0 $2 $3 $4 $5 $6 $7 $8 $9 X,Y pos of 4 corners*
0 Add a 4 corners polygon primitive as box body*
4,1,4,$2,$3,$4,$5,$6,$7,$8,$9,$2,$3,0*
0 Add four circle primitives for the rounded corners*
1,1,$1+$1,$2,$3*
1,1,$1+$1,$4,$5*
1,1,$1+$1,$6,$7*
1,1,$1+$1,$8,$9*
0 Add four rect primitives between the rounded corners*
20,1,$1+$1,$2,$3,$4,$5,0*
20,1,$1+$1,$4,$5,$6,$7,0*
20,1,$1+$1,$6,$7,$8,$9,0*
20,1,$1+$1,$8,$9,$2,$3,0*%
G04 Aperture macros list end*
%TA.AperFunction,ComponentPad*%
%ADD10R,2.000000X2.000000*%
%TD*%
%TA.AperFunction,ComponentPad*%
%ADD11C,2.000000*%
%TD*%
%TA.AperFunction,ComponentPad*%
%ADD12RoundRect,0.250000X-0.470000X-0.470000X0.470000X-0.470000X0.470000X0.470000X-0.470000X0.470000X0*%
%TD*%
%TA.AperFunction,ComponentPad*%
%ADD13C,1.440000*%
%TD*%
%TA.AperFunction,ComponentPad*%
%ADD14C,1.750000*%
%TD*%
%TA.AperFunction,ComponentPad*%
%ADD15C,1.600000*%
%TD*%
%TA.AperFunction,ComponentPad*%
%ADD16O,1.600000X1.600000*%
%TD*%
%TA.AperFunction,ComponentPad*%
%ADD17R,1.800000X1.800000*%
%TD*%
%TA.AperFunction,ComponentPad*%
%ADD18C,1.800000*%
%TD*%
%TA.AperFunction,ComponentPad*%
%ADD19R,2.200000X2.200000*%
%TD*%
%TA.AperFunction,ComponentPad*%
%ADD20O,2.200000X2.200000*%
%TD*%
%TA.AperFunction,ComponentPad*%
%ADD21C,2.600000*%
%TD*%
%TA.AperFunction,ConnectorPad*%
%ADD22C,3.800000*%
%TD*%
%TA.AperFunction,ComponentPad*%
%ADD23RoundRect,0.250000X1.050000X-1.050000X1.050000X1.050000X-1.050000X1.050000X-1.050000X-1.050000X0*%
%TD*%
%TA.AperFunction,ComponentPad*%
%ADD24R,1.500000X1.500000*%
%TD*%
%TA.AperFunction,ComponentPad*%
%ADD25O,1.320800X2.641600*%
%TD*%
%TA.AperFunction,Conductor*%
%ADD26C,0.500000*%
%TD*%
%TA.AperFunction,Conductor*%
%ADD27C,0.250000*%
%TD*%
G04 APERTURE END LIST*
D10*
%TO.P,C1,1*%
%TO.N,Net-(D1-K)*%
X179500000Y-52500000D03*
D11*
%TO.P,C1,2*%
%TO.N,Earth*%
X183000000Y-52500000D03*
%TD*%
D12*
%TO.P,RV2,1,1*%
%TO.N,Net-(R2-Pad2)*%
X135890000Y-67310000D03*
D13*
%TO.P,RV2,2,2*%
%TO.N,Net-(C2-Pad1)*%
X135890000Y-69850000D03*
%TO.P,RV2,3,3*%
%TO.N,Net-(R8-Pad1)*%
X135890000Y-72390000D03*
%TD*%
D14*
%TO.P,RV1,1,1*%
%TO.N,Net-(R3-Pad1)*%
X187960000Y-87630000D03*
%TO.P,RV1,2,2*%
%TO.N,Net-(D1-K)*%
X190500000Y-90170000D03*
%TO.P,RV1,3,3*%
%TO.N,Net-(R4-Pad1)*%
X187960000Y-92710000D03*
%TD*%
D15*
%TO.P,R1,1*%
%TO.N,Net-(D1-K)*%
X142500000Y-58310000D03*
D16*
%TO.P,R1,2*%
%TO.N,Net-(D2-A)*%
X142500000Y-50690000D03*
%TD*%
D17*
%TO.P,D2,1,K*%
%TO.N,Earth*%
X148730000Y-63500000D03*
D18*
%TO.P,D2,2,A*%
%TO.N,Net-(D2-A)*%
X151270000Y-63500000D03*
%TD*%
D15*
%TO.P,R5,1*%
%TO.N,Net-(D1-K)*%
X147000000Y-58310000D03*
D16*
%TO.P,R5,2*%
%TO.N,Net-(R5-Pad2)*%
X147000000Y-50690000D03*
%TD*%
D15*
%TO.P,R2,1*%
%TO.N,Net-(D1-K)*%
X138000000Y-58310000D03*
D16*
%TO.P,R2,2*%
%TO.N,Net-(R2-Pad2)*%
X138000000Y-50690000D03*
%TD*%
D15*
%TO.P,R4,1*%
%TO.N,Net-(R4-Pad1)*%
X178000000Y-96360000D03*
D16*
%TO.P,R4,2*%
%TO.N,Net-(IC1-Pad5)*%
X178000000Y-88740000D03*
%TD*%
D19*
%TO.P,D1,1,K*%
%TO.N,Net-(D1-K)*%
X193500000Y-47920000D03*
D20*
%TO.P,D1,2,A*%
%TO.N,Net-(D1-A)*%
X193500000Y-58080000D03*
%TD*%
D21*
%TO.P,REF\u002A\u002A,1*%
%TO.N,N/C*%
X130810000Y-45720000D03*
D22*
X130810000Y-45720000D03*
%TD*%
D23*
%TO.P,J1,1,Pin_1*%
%TO.N,Earth*%
X205000000Y-71660000D03*
D21*
%TO.P,J1,2,Pin_2*%
%TO.N,Net-(D1-A)*%
X205000000Y-66580000D03*
%TO.P,J1,3,Pin_3*%
%TO.N,Net-(J1-Pin_3)*%
X205000000Y-61500000D03*
%TD*%
D24*
%TO.P,SW1,1,B*%
%TO.N,Net-(SW1-B)*%
X163960000Y-83000000D03*
D15*
%TO.P,SW1,2,C*%
%TO.N,Net-(SW1-C)*%
X161420000Y-83000000D03*
%TO.P,SW1,3,A*%
%TO.N,Net-(SW1-A)*%
X166500000Y-83000000D03*
%TD*%
D21*
%TO.P,REF\u002A\u002A,1*%
%TO.N,N/C*%
X130810000Y-101600000D03*
D22*
X130810000Y-101600000D03*
%TD*%
D15*
%TO.P,R8,1*%
%TO.N,Net-(R8-Pad1)*%
X153000000Y-88310000D03*
D16*
%TO.P,R8,2*%
%TO.N,Earth*%
X153000000Y-80690000D03*
%TD*%
D14*
%TO.P,RV4,1,1*%
%TO.N,Net-(R7-Pad1)*%
X159000000Y-57000000D03*
%TO.P,RV4,2,2*%
%TO.N,Net-(IC1-Pad12)*%
X161540000Y-59540000D03*
%TO.P,RV4,3,3*%
%TO.N,Net-(R5-Pad2)*%
X159000000Y-62080000D03*
%TD*%
D21*
%TO.P,REF\u002A\u002A,1*%
%TO.N,N/C*%
X212090000Y-101600000D03*
D22*
X212090000Y-101600000D03*
%TD*%
D25*
%TO.P,IC1,1*%
%TO.N,unconnected-(IC1-Pad1)*%
X182880000Y-68580000D03*
%TO.P,IC1,2*%
%TO.N,Net-(J1-Pin_3)*%
X180340000Y-68580000D03*
%TO.P,IC1,3*%
%TO.N,Net-(J2-Pin_1)*%
X177800000Y-68580000D03*
%TO.P,IC1,4*%
%TO.N,Net-(IC1-Pad4)*%
X175260000Y-68580000D03*
%TO.P,IC1,5*%
%TO.N,Net-(IC1-Pad5)*%
X172720000Y-68580000D03*
%TO.P,IC1,6*%
%TO.N,Net-(D1-K)*%
X170180000Y-68580000D03*
%TO.P,IC1,7*%
%TO.N,unconnected-(IC1-Pad7)*%
X167640000Y-68580000D03*
%TO.P,IC1,8*%
%TO.N,Net-(C2-Pad1)*%
X167640000Y-76200000D03*
%TO.P,IC1,9*%
%TO.N,Net-(J2-Pin_2)*%
X170180000Y-76200000D03*
%TO.P,IC1,10*%
%TO.N,Net-(SW1-B)*%
X172720000Y-76200000D03*
%TO.P,IC1,11*%
%TO.N,Earth*%
X175260000Y-76200000D03*
%TO.P,IC1,12*%
%TO.N,Net-(IC1-Pad12)*%
X177800000Y-76200000D03*
%TO.P,IC1,13*%
%TO.N,N/C*%
X180340000Y-76200000D03*
%TO.P,IC1,14*%
X182880000Y-76200000D03*
%TD*%
D15*
%TO.P,C3,1*%
%TO.N,Net-(D1-K)*%
X159500000Y-95500000D03*
%TO.P,C3,2*%
%TO.N,Earth*%
X159500000Y-90500000D03*
%TD*%
%TO.P,C4,1*%
%TO.N,Net-(SW1-C)*%
X163500000Y-95500000D03*
%TO.P,C4,2*%
%TO.N,Earth*%
X163500000Y-90500000D03*
%TD*%
D21*
%TO.P,REF\u002A\u002A,1*%
%TO.N,N/C*%
X213360000Y-44450000D03*
D22*
X213360000Y-44450000D03*
%TD*%
D15*
%TO.P,R7,1*%
%TO.N,Net-(R7-Pad1)*%
X169500000Y-56620000D03*
D16*
%TO.P,R7,2*%
%TO.N,Earth*%
X169500000Y-49000000D03*
%TD*%
D23*
%TO.P,J2,1,Pin_1*%
%TO.N,Net-(J2-Pin_1)*%
X205000000Y-89160000D03*
D21*
%TO.P,J2,2,Pin_2*%
%TO.N,Net-(J2-Pin_2)*%
X205000000Y-84080000D03*
%TO.P,J2,3,Pin_3*%
%TO.N,Earth*%
X205000000Y-79000000D03*
%TD*%
D14*
%TO.P,RV3,1,1*%
%TO.N,Net-(R2-Pad2)*%
X150460000Y-69960000D03*
%TO.P,RV3,2,2*%
%TO.N,Net-(C2-Pad1)*%
X147920000Y-72500000D03*
%TO.P,RV3,3,3*%
%TO.N,Net-(R8-Pad1)*%
X145380000Y-69960000D03*
%TD*%
D15*
%TO.P,C5,1*%
%TO.N,Net-(SW1-A)*%
X167500000Y-95500000D03*
%TO.P,C5,2*%
%TO.N,Earth*%
X167500000Y-90500000D03*
%TD*%
%TO.P,R3,1*%
%TO.N,Net-(R3-Pad1)*%
X190000000Y-77470000D03*
D16*
%TO.P,R3,2*%
%TO.N,Net-(IC1-Pad4)*%
X190000000Y-69850000D03*
%TD*%
D15*
%TO.P,R6,1*%
%TO.N,Net-(D1-K)*%
X159500000Y-68380000D03*
D16*
%TO.P,R6,2*%
%TO.N,Net-(J2-Pin_2)*%
X159500000Y-76000000D03*
%TD*%
D15*
%TO.P,C2,1*%
%TO.N,Net-(C2-Pad1)*%
X177125000Y-63500000D03*
%TO.P,C2,2*%
%TO.N,Earth*%
X179625000Y-63500000D03*
%TD*%
D26*
%TO.N,Earth*%
X176606818Y-74853182D02*
X176606818Y-65787364D01*
X178376000Y-62981818D02*
X177643182Y-62249000D01*
X160960000Y-90500000D02*
X175260000Y-76200000D01*
X160706248Y-62249000D02*
X158104248Y-64851000D01*
X176606818Y-65787364D02*
X178376000Y-64018182D01*
X169500000Y-49000000D02*
X172750000Y-49000000D01*
X172750000Y-49000000D02*
X179625000Y-55875000D01*
X150081000Y-64851000D02*
X148730000Y-63500000D01*
X159500000Y-90500000D02*
X160960000Y-90500000D01*
X160960000Y-90500000D02*
X176606818Y-74853182D01*
X148730000Y-63500000D02*
X153000000Y-67770000D01*
X153000000Y-67770000D02*
X153000000Y-80690000D01*
X179625000Y-55875000D02*
X183000000Y-52500000D01*
X179625000Y-63500000D02*
X179625000Y-55875000D01*
X178376000Y-64018182D02*
X178376000Y-62981818D01*
X177643182Y-62249000D02*
X160706248Y-62249000D01*
X205000000Y-71660000D02*
X205000000Y-79000000D01*
X158104248Y-64851000D02*
X150081000Y-64851000D01*
%TO.N,Net-(D1-K)*%
X184080000Y-47920000D02*
X179500000Y-52500000D01*
X178518182Y-97611000D02*
X161611000Y-97611000D01*
X185959182Y-90170000D02*
X178518182Y-97611000D01*
X193500000Y-47920000D02*
X184080000Y-47920000D01*
X161611000Y-97611000D02*
X159500000Y-95500000D01*
X142500000Y-58310000D02*
X147000000Y-58310000D01*
X138000000Y-58310000D02*
X142500000Y-58310000D01*
X190500000Y-90170000D02*
X185959182Y-90170000D01*
%TO.N,Net-(C2-Pad1)*%
X163830000Y-76200000D02*
X163830000Y-77470000D01*
X167640000Y-78740000D02*
X167640000Y-76200000D01*
X167640000Y-63500000D02*
X163830000Y-67310000D01*
X152481818Y-89561000D02*
X153518182Y-89561000D01*
X177125000Y-63500000D02*
X167640000Y-63500000D01*
X138540000Y-72500000D02*
X147920000Y-72500000D01*
X163830000Y-67310000D02*
X163830000Y-76200000D01*
X160169000Y-82910182D02*
X160169000Y-79861000D01*
X147920000Y-84999182D02*
X152481818Y-89561000D01*
X153518182Y-89561000D02*
X160169000Y-82910182D01*
X147920000Y-72500000D02*
X147920000Y-84999182D01*
X160169000Y-79861000D02*
X163830000Y-76200000D01*
X163830000Y-77470000D02*
X166370000Y-80010000D01*
X166370000Y-80010000D02*
X167640000Y-78740000D01*
X135890000Y-69850000D02*
X138540000Y-72500000D01*
%TO.N,Net-(D1-A)*%
X209550000Y-48260000D02*
X198120000Y-48260000D01*
X212090000Y-50800000D02*
X209550000Y-48260000D01*
X193500000Y-52880000D02*
X193500000Y-58080000D01*
X198120000Y-48260000D02*
X193500000Y-52880000D01*
X205000000Y-66580000D02*
X211550000Y-66580000D01*
X212090000Y-66040000D02*
X212090000Y-50800000D01*
X211550000Y-66580000D02*
X212090000Y-66040000D01*
%TO.N,Net-(D2-A)*%
X152400000Y-62370000D02*
X151270000Y-63500000D01*
X142500000Y-50690000D02*
X152400000Y-60590000D01*
X152400000Y-60590000D02*
X152400000Y-62370000D01*
%TO.N,Net-(IC1-Pad4)*%
X165161000Y-82489000D02*
X165161000Y-84993818D01*
X190000000Y-71620000D02*
X190000000Y-69850000D01*
X158981818Y-91751000D02*
X169869000Y-91751000D01*
X168751400Y-75088600D02*
X168751400Y-78898600D01*
X158249000Y-91018182D02*
X158981818Y-91751000D01*
X165161000Y-84993818D02*
X163237000Y-84993818D01*
X163237000Y-84993818D02*
X158249000Y-89981818D01*
X169869000Y-91751000D02*
X190000000Y-71620000D01*
X168751400Y-78898600D02*
X165161000Y-82489000D01*
X175260000Y-68580000D02*
X168751400Y-75088600D01*
X158249000Y-89981818D02*
X158249000Y-91018182D01*
%TO.N,Net-(J1-Pin_3)*%
X187420000Y-61500000D02*
X180340000Y-68580000D01*
X205000000Y-61500000D02*
X187420000Y-61500000D01*
%TO.N,Net-(IC1-Pad12)*%
X170751000Y-57138182D02*
X170751000Y-52020182D01*
X168249000Y-49518182D02*
X168249000Y-47651000D01*
X195051000Y-46369000D02*
X195051000Y-50017557D01*
X178911400Y-75088600D02*
X177800000Y-76200000D01*
X195051000Y-50017557D02*
X178911400Y-66157157D01*
X168349182Y-59540000D02*
X170751000Y-57138182D01*
X168249000Y-47651000D02*
X169531000Y-46369000D01*
X169531000Y-46369000D02*
X195051000Y-46369000D01*
X161540000Y-59540000D02*
X168349182Y-59540000D01*
X170751000Y-52020182D02*
X168249000Y-49518182D01*
X178911400Y-66157157D02*
X178911400Y-75088600D01*
%TO.N,Net-(R2-Pad2)*%
X137890000Y-50800000D02*
X132080000Y-50800000D01*
D27*
X149970000Y-69960000D02*
X150460000Y-69960000D01*
D26*
X130810000Y-58420000D02*
X135890000Y-63500000D01*
X132080000Y-50800000D02*
X130810000Y-52070000D01*
X135890000Y-67310000D02*
X147810000Y-67310000D01*
X135890000Y-63500000D02*
X135890000Y-67310000D01*
X138000000Y-50690000D02*
X137890000Y-50800000D01*
X147810000Y-67310000D02*
X150460000Y-69960000D01*
X130810000Y-52070000D02*
X130810000Y-58420000D01*
%TO.N,Net-(R3-Pad1)*%
X187960000Y-79510000D02*
X190000000Y-77470000D01*
X187960000Y-87630000D02*
X187960000Y-79510000D01*
%TO.N,Net-(R4-Pad1)*%
X189950752Y-88844000D02*
X189325752Y-89469000D01*
X187960000Y-92710000D02*
X189835248Y-92710000D01*
X191826000Y-90719248D02*
X191826000Y-89620752D01*
X191049248Y-88844000D02*
X189950752Y-88844000D01*
X191826000Y-89620752D02*
X191049248Y-88844000D01*
X189835248Y-92710000D02*
X191826000Y-90719248D01*
X184891000Y-89469000D02*
X178000000Y-96360000D01*
X189325752Y-89469000D02*
X184891000Y-89469000D01*
%TO.N,Net-(R5-Pad2)*%
X158390000Y-62080000D02*
X159000000Y-62080000D01*
X147000000Y-50690000D02*
X158390000Y-62080000D01*
%TO.N,Net-(R7-Pad1)*%
X169120000Y-57000000D02*
X169500000Y-56620000D01*
X159000000Y-57000000D02*
X169120000Y-57000000D01*
%TO.N,Net-(R8-Pad1)*%
X134719000Y-69364955D02*
X135404955Y-68679000D01*
X135890000Y-72390000D02*
X134719000Y-71219000D01*
X135404955Y-68679000D02*
X144099000Y-68679000D01*
X145380000Y-69960000D02*
X147255248Y-69960000D01*
X151749000Y-74453752D02*
X151749000Y-87059000D01*
X134719000Y-71219000D02*
X134719000Y-69364955D01*
X144099000Y-68679000D02*
X145380000Y-69960000D01*
X151749000Y-87059000D02*
X153000000Y-88310000D01*
X147255248Y-69960000D02*
X151749000Y-74453752D01*
%TD*%
%TA.AperFunction,Conductor*%
%TO.N,Earth*%
G36*
X175510000Y-77995668D02*
G01*
X175531728Y-77992227D01*
X175705441Y-77935783D01*
X175868182Y-77852862D01*
X176015951Y-77745500D01*
X176015952Y-77745500D01*
X176145100Y-77616352D01*
X176145100Y-77616351D01*
X176252462Y-77468582D01*
X176335383Y-77305843D01*
X176391827Y-77132128D01*
X176391827Y-77132127D01*
X176407273Y-77034605D01*
X176437202Y-76971470D01*
X176496513Y-76934538D01*
X176566376Y-76935536D01*
X176624609Y-76974145D01*
X176652219Y-77034603D01*
X176667684Y-77132242D01*
X176667685Y-77132245D01*
X176724152Y-77306031D01*
X176807109Y-77468844D01*
X176914515Y-77616676D01*
X177043724Y-77745885D01*
X177191556Y-77853291D01*
X177354369Y-77936248D01*
X177528155Y-77992715D01*
X177595835Y-78003434D01*
X177708630Y-78021300D01*
X177708635Y-78021300D01*
X177891370Y-78021300D01*
X177991631Y-78005419D01*
X178071845Y-77992715D01*
X178245631Y-77936248D01*
X178408444Y-77853291D01*
X178556276Y-77745885D01*
X178685485Y-77616676D01*
X178792891Y-77468844D01*
X178875848Y-77306031D01*
X178932315Y-77132245D01*
X178947527Y-77036202D01*
X178977456Y-76973067D01*
X179036768Y-76936136D01*
X179106630Y-76937134D01*
X179164863Y-76975744D01*
X179192473Y-77036202D01*
X179207684Y-77132241D01*
X179207684Y-77132243D01*
X179207685Y-77132245D01*
X179264152Y-77306031D01*
X179347109Y-77468844D01*
X179454515Y-77616676D01*
X179583724Y-77745885D01*
X179731556Y-77853291D01*
X179894369Y-77936248D01*
X180068155Y-77992715D01*
X180135835Y-78003434D01*
X180248630Y-78021300D01*
X180248635Y-78021300D01*
X180431370Y-78021300D01*
X180531631Y-78005419D01*
X180611845Y-77992715D01*
X180785631Y-77936248D01*
X180948444Y-77853291D01*
X181096276Y-77745885D01*
X181225485Y-77616676D01*
X181332891Y-77468844D01*
X181415848Y-77306031D01*
X181472315Y-77132245D01*
X181487527Y-77036202D01*
X181517456Y-76973067D01*
X181576768Y-76936136D01*
X181646630Y-76937134D01*
X181704863Y-76975744D01*
X181732473Y-77036202D01*
X181747684Y-77132241D01*
X181747684Y-77132243D01*
X181747685Y-77132245D01*
X181804152Y-77306031D01*
X181887109Y-77468844D01*
X181994515Y-77616676D01*
X182123724Y-77745885D01*
X182271556Y-77853291D01*
X182335779Y-77886014D01*
X182406851Y-77922227D01*
X182457647Y-77970201D01*
X182474442Y-78038022D01*
X182451905Y-78104157D01*
X182438237Y-78120393D01*
X169594451Y-90964181D01*
X169533128Y-90997666D01*
X169506770Y-91000500D01*
X168874951Y-91000500D01*
X168807912Y-90980815D01*
X168762157Y-90928011D01*
X168752213Y-90858853D01*
X168757020Y-90838183D01*
X168767988Y-90804425D01*
X168767989Y-90804418D01*
X168800000Y-90602317D01*
X168800000Y-90397682D01*
X168767990Y-90195582D01*
X168704755Y-90000968D01*
X168611859Y-89818650D01*
X168579474Y-89774077D01*
X168579474Y-89774076D01*
X167900000Y-90453551D01*
X167900000Y-90447339D01*
X167872741Y-90345606D01*
X167820080Y-90254394D01*
X167745606Y-90179920D01*
X167654394Y-90127259D01*
X167552661Y-90100000D01*
X167546446Y-90100000D01*
X168225922Y-89420524D01*
X168225921Y-89420523D01*
X168181359Y-89388147D01*
X168181350Y-89388141D01*
X167999031Y-89295244D01*
X167804417Y-89232009D01*
X167602317Y-89200000D01*
X167397683Y-89200000D01*
X167195582Y-89232009D01*
X167000968Y-89295244D01*
X166818644Y-89388143D01*
X166774077Y-89420523D01*
X166774077Y-89420524D01*
X167453554Y-90100000D01*
X167447339Y-90100000D01*
X167345606Y-90127259D01*
X167254394Y-90179920D01*
X167179920Y-90254394D01*
X167127259Y-90345606D01*
X167100000Y-90447339D01*
X167100000Y-90453553D01*
X166420524Y-89774077D01*
X166420523Y-89774077D01*
X166388143Y-89818644D01*
X166295244Y-90000968D01*
X166232009Y-90195582D01*
X166200000Y-90397682D01*
X166200000Y-90602317D01*
X166232010Y-90804418D01*
X166232011Y-90804425D01*
X166242980Y-90838183D01*
X166244975Y-90908024D01*
X166208894Y-90967856D01*
X166146193Y-90998684D01*
X166125049Y-91000500D01*
X164874951Y-91000500D01*
X164807912Y-90980815D01*
X164762157Y-90928011D01*
X164752213Y-90858853D01*
X164757020Y-90838183D01*
X164767988Y-90804425D01*
X164767989Y-90804418D01*
X164800000Y-90602317D01*
X164800000Y-90397682D01*
X164767990Y-90195582D01*
X164704755Y-90000968D01*
X164611859Y-89818650D01*
X164579474Y-89774077D01*
X164579474Y-89774076D01*
X163900000Y-90453551D01*
X163900000Y-90447339D01*
X163872741Y-90345606D01*
X163820080Y-90254394D01*
X163745606Y-90179920D01*
X163654394Y-90127259D01*
X163552661Y-90100000D01*
X163546446Y-90100000D01*
X164225922Y-89420524D01*
X164225921Y-89420523D01*
X164181359Y-89388147D01*
X164181350Y-89388141D01*
X163999031Y-89295244D01*
X163804417Y-89232009D01*
X163602317Y-89200000D01*
X163397683Y-89200000D01*
X163195582Y-89232009D01*
X163000968Y-89295244D01*
X162818644Y-89388143D01*
X162774077Y-89420523D01*
X162774077Y-89420524D01*
X163453554Y-90100000D01*
X163447339Y-90100000D01*
X163345606Y-90127259D01*
X163254394Y-90179920D01*
X163179920Y-90254394D01*
X163127259Y-90345606D01*
X163100000Y-90447339D01*
X163100000Y-90453553D01*
X162420524Y-89774077D01*
X162420523Y-89774077D01*
X162388143Y-89818644D01*
X162295244Y-90000968D01*
X162232009Y-90195582D01*
X162200000Y-90397682D01*
X162200000Y-90602317D01*
X162232010Y-90804418D01*
X162232011Y-90804425D01*
X162242980Y-90838183D01*
X162244975Y-90908024D01*
X162208894Y-90967856D01*
X162146193Y-90998684D01*
X162125049Y-91000500D01*
X160874951Y-91000500D01*
X160807912Y-90980815D01*
X160762157Y-90928011D01*
X160752213Y-90858853D01*
X160757020Y-90838183D01*
X160767988Y-90804425D01*
X160767989Y-90804418D01*
X160800000Y-90602317D01*
X160800000Y-90397682D01*
X160767990Y-90195582D01*
X160704755Y-90000968D01*
X160611859Y-89818650D01*
X160579474Y-89774077D01*
X160579474Y-89774076D01*
X159900000Y-90453551D01*
X159900000Y-90447339D01*
X159872741Y-90345606D01*
X159820080Y-90254394D01*
X159745606Y-90179920D01*
X159654394Y-90127259D01*
X159552661Y-90100000D01*
X159546446Y-90100000D01*
X160225922Y-89420524D01*
X160225921Y-89420523D01*
X160181359Y-89388147D01*
X160181349Y-89388140D01*
X160149712Y-89372020D01*
X160098917Y-89324045D01*
X160082123Y-89256223D01*
X160104662Y-89190089D01*
X160118317Y-89173867D01*
X163511548Y-85780637D01*
X163572871Y-85747152D01*
X163599229Y-85744318D01*
X165234920Y-85744318D01*
X165332462Y-85724914D01*
X165379913Y-85715476D01*
X165516495Y-85658902D01*
X165639416Y-85576769D01*
X165743951Y-85472234D01*
X165826084Y-85349313D01*
X165826085Y-85349308D01*
X165826089Y-85349303D01*
X165866494Y-85251754D01*
X165882658Y-85212731D01*
X165892096Y-85165280D01*
X165911500Y-85067738D01*
X165911500Y-84346882D01*
X165931185Y-84279843D01*
X165983989Y-84234088D01*
X166053147Y-84224144D01*
X166073813Y-84228949D01*
X166120414Y-84244091D01*
X166195465Y-84268477D01*
X166267227Y-84279843D01*
X166397648Y-84300500D01*
X166397649Y-84300500D01*
X166602351Y-84300500D01*
X166602352Y-84300500D01*
X166804534Y-84268477D01*
X166999219Y-84205220D01*
X167181610Y-84112287D01*
X167274590Y-84044732D01*
X167347213Y-83991971D01*
X167347215Y-83991968D01*
X167347219Y-83991966D01*
X167491966Y-83847219D01*
X167491968Y-83847215D01*
X167491971Y-83847213D01*
X167566568Y-83744537D01*
X167612287Y-83681610D01*
X167702872Y-83503827D01*
X167705218Y-83499223D01*
X167705218Y-83499222D01*
X167705220Y-83499219D01*
X167768477Y-83304534D01*
X167800500Y-83102352D01*
X167800500Y-82897648D01*
X167768477Y-82695466D01*
X167705220Y-82500781D01*
X167705218Y-82500778D01*
X167705218Y-82500776D01*
X167671503Y-82434607D01*
X167612287Y-82318390D01*
X167584032Y-82279500D01*
X167491971Y-82152786D01*
X167347213Y-82008028D01*
X167181614Y-81887715D01*
X167173038Y-81883345D01*
X167096545Y-81844370D01*
X167045750Y-81796397D01*
X167028955Y-81728576D01*
X167051492Y-81662441D01*
X167065154Y-81646211D01*
X169334351Y-79377016D01*
X169416484Y-79254095D01*
X169473058Y-79117513D01*
X169496433Y-79000001D01*
X169501900Y-78972520D01*
X169501900Y-78020149D01*
X169521585Y-77953110D01*
X169574389Y-77907355D01*
X169643547Y-77897411D01*
X169682194Y-77909663D01*
X169734369Y-77936248D01*
X169908155Y-77992715D01*
X169975835Y-78003434D01*
X170088630Y-78021300D01*
X170088635Y-78021300D01*
X170271370Y-78021300D01*
X170371631Y-78005419D01*
X170451845Y-77992715D01*
X170625631Y-77936248D01*
X170788444Y-77853291D01*
X170936276Y-77745885D01*
X171065485Y-77616676D01*
X171172891Y-77468844D01*
X171255848Y-77306031D01*
X171312315Y-77132245D01*
X171327527Y-77036202D01*
X171357456Y-76973067D01*
X171416768Y-76936136D01*
X171486630Y-76937134D01*
X171544863Y-76975744D01*
X171572473Y-77036202D01*
X171587684Y-77132241D01*
X171587684Y-77132243D01*
X171587685Y-77132245D01*
X171644152Y-77306031D01*
X171727109Y-77468844D01*
X171834515Y-77616676D01*
X171963724Y-77745885D01*
X172111556Y-77853291D01*
X172274369Y-77936248D01*
X172448155Y-77992715D01*
X172515835Y-78003434D01*
X172628630Y-78021300D01*
X172628635Y-78021300D01*
X172811370Y-78021300D01*
X172911631Y-78005419D01*
X172991845Y-77992715D01*
X173165631Y-77936248D01*
X173328444Y-77853291D01*
X173476276Y-77745885D01*
X173605485Y-77616676D01*
X173712891Y-77468844D01*
X173795848Y-77306031D01*
X173852315Y-77132245D01*
X173867780Y-77034603D01*
X173897709Y-76971469D01*
X173957021Y-76934538D01*
X174026883Y-76935536D01*
X174085116Y-76974146D01*
X174112726Y-77034603D01*
X174128173Y-77132129D01*
X174184616Y-77305843D01*
X174267537Y-77468582D01*
X174374899Y-77616351D01*
X174374899Y-77616352D01*
X174504047Y-77745500D01*
X174651817Y-77852862D01*
X174814558Y-77935783D01*
X174988271Y-77992227D01*
X175009999Y-77995668D01*
X175010000Y-77995667D01*
X175010000Y-76524737D01*
X175010464Y-76525201D01*
X175103135Y-76578705D01*
X175206496Y-76606400D01*
X175313504Y-76606400D01*
X175416865Y-76578705D01*
X175509536Y-76525201D01*
X175510000Y-76524737D01*
X175510000Y-77995668D01*
G37*
%TD.AperFunction*%
%TA.AperFunction,Conductor*%
G36*
X179225000Y-63552661D02*
G01*
X179252259Y-63654394D01*
X179304920Y-63745606D01*
X179379394Y-63820080D01*
X179470606Y-63872741D01*
X179572339Y-63900000D01*
X179578553Y-63900000D01*
X178899076Y-64579474D01*
X178943652Y-64611861D01*
X179090799Y-64686835D01*
X179141595Y-64734809D01*
X179158391Y-64802630D01*
X179135854Y-64868765D01*
X179122186Y-64885001D01*
X178328450Y-65678738D01*
X178328448Y-65678741D01*
X178312609Y-65702447D01*
X178312607Y-65702448D01*
X178312607Y-65702449D01*
X178246316Y-65801660D01*
X178246314Y-65801663D01*
X178189743Y-65938239D01*
X178189740Y-65938249D01*
X178160900Y-66083236D01*
X178160900Y-66656204D01*
X178141215Y-66723243D01*
X178088411Y-66768998D01*
X178019253Y-66778942D01*
X178017502Y-66778677D01*
X177891370Y-66758700D01*
X177891365Y-66758700D01*
X177708635Y-66758700D01*
X177708630Y-66758700D01*
X177528158Y-66787284D01*
X177354366Y-66843753D01*
X177191555Y-66926709D01*
X177043721Y-67034117D01*
X176914517Y-67163321D01*
X176807109Y-67311155D01*
X176724153Y-67473966D01*
X176667684Y-67647758D01*
X176652473Y-67743797D01*
X176622544Y-67806932D01*
X176563232Y-67843863D01*
X176493369Y-67842865D01*
X176435137Y-67804255D01*
X176407527Y-67743797D01*
X176392315Y-67647758D01*
X176392315Y-67647755D01*
X176335848Y-67473969D01*
X176252891Y-67311156D01*
X176145485Y-67163324D01*
X176016276Y-67034115D01*
X175868444Y-66926709D01*
X175732470Y-66857427D01*
X175705633Y-66843753D01*
X175705632Y-66843752D01*
X175705631Y-66843752D01*
X175531845Y-66787285D01*
X175531843Y-66787284D01*
X175531841Y-66787284D01*
X175351370Y-66758700D01*
X175351365Y-66758700D01*
X175168635Y-66758700D01*
X175168630Y-66758700D01*
X174988158Y-66787284D01*
X174814366Y-66843753D01*
X174651555Y-66926709D01*
X174503721Y-67034117D01*
X174374517Y-67163321D01*
X174267109Y-67311155D01*
X174184153Y-67473966D01*
X174127684Y-67647758D01*
X174112473Y-67743797D01*
X174082544Y-67806932D01*
X174023232Y-67843863D01*
X173953369Y-67842865D01*
X173895137Y-67804255D01*
X173867527Y-67743797D01*
X173852315Y-67647758D01*
X173852315Y-67647755D01*
X173795848Y-67473969D01*
X173712891Y-67311156D01*
X173605485Y-67163324D01*
X173476276Y-67034115D01*
X173328444Y-66926709D01*
X173192470Y-66857427D01*
X173165633Y-66843753D01*
X173165632Y-66843752D01*
X173165631Y-66843752D01*
X172991845Y-66787285D01*
X172991843Y-66787284D01*
X172991841Y-66787284D01*
X172811370Y-66758700D01*
X172811365Y-66758700D01*
X172628635Y-66758700D01*
X172628630Y-66758700D01*
X172448158Y-66787284D01*
X172274366Y-66843753D01*
X172111555Y-66926709D01*
X171963721Y-67034117D01*
X171834517Y-67163321D01*
X171727109Y-67311155D01*
X171644153Y-67473966D01*
X171587684Y-67647758D01*
X171572473Y-67743797D01*
X171542544Y-67806932D01*
X171483232Y-67843863D01*
X171413369Y-67842865D01*
X171355137Y-67804255D01*
X171327527Y-67743797D01*
X171312315Y-67647758D01*
X171312315Y-67647755D01*
X171255848Y-67473969D01*
X171172891Y-67311156D01*
X171065485Y-67163324D01*
X170936276Y-67034115D01*
X170788444Y-66926709D01*
X170652470Y-66857427D01*
X170625633Y-66843753D01*
X170625632Y-66843752D01*
X170625631Y-66843752D01*
X170451845Y-66787285D01*
X170451843Y-66787284D01*
X170451841Y-66787284D01*
X170271370Y-66758700D01*
X170271365Y-66758700D01*
X170088635Y-66758700D01*
X170088630Y-66758700D01*
X169908158Y-66787284D01*
X169734366Y-66843753D01*
X169571555Y-66926709D01*
X169423721Y-67034117D01*
X169294517Y-67163321D01*
X169187109Y-67311155D01*
X169104153Y-67473966D01*
X169047684Y-67647758D01*
X169032473Y-67743797D01*
X169002544Y-67806932D01*
X168943232Y-67843863D01*
X168873369Y-67842865D01*
X168815137Y-67804255D01*
X168787527Y-67743797D01*
X168772315Y-67647758D01*
X168772315Y-67647755D01*
X168715848Y-67473969D01*
X168632891Y-67311156D01*
X168525485Y-67163324D01*
X168396276Y-67034115D01*
X168248444Y-66926709D01*
X168112470Y-66857427D01*
X168085633Y-66843753D01*
X168085632Y-66843752D01*
X168085631Y-66843752D01*
X167911845Y-66787285D01*
X167911843Y-66787284D01*
X167911841Y-66787284D01*
X167731370Y-66758700D01*
X167731365Y-66758700D01*
X167548635Y-66758700D01*
X167548630Y-66758700D01*
X167368158Y-66787284D01*
X167194366Y-66843753D01*
X167031555Y-66926709D01*
X166883721Y-67034117D01*
X166754517Y-67163321D01*
X166647109Y-67311155D01*
X166564153Y-67473966D01*
X166507684Y-67647758D01*
X166479100Y-67828229D01*
X166479100Y-69331770D01*
X166504524Y-69492287D01*
X166507685Y-69512245D01*
X166564152Y-69686031D01*
X166647109Y-69848844D01*
X166754515Y-69996676D01*
X166883724Y-70125885D01*
X167031556Y-70233291D01*
X167194369Y-70316248D01*
X167368155Y-70372715D01*
X167422498Y-70381322D01*
X167548630Y-70401300D01*
X167548635Y-70401300D01*
X167731370Y-70401300D01*
X167831631Y-70385419D01*
X167911845Y-70372715D01*
X168085631Y-70316248D01*
X168248444Y-70233291D01*
X168396276Y-70125885D01*
X168525485Y-69996676D01*
X168632891Y-69848844D01*
X168715848Y-69686031D01*
X168772315Y-69512245D01*
X168781619Y-69453501D01*
X168787527Y-69416202D01*
X168817456Y-69353067D01*
X168876768Y-69316136D01*
X168946630Y-69317134D01*
X169004863Y-69355744D01*
X169032473Y-69416202D01*
X169044524Y-69492287D01*
X169047685Y-69512245D01*
X169104152Y-69686031D01*
X169187109Y-69848844D01*
X169294515Y-69996676D01*
X169423724Y-70125885D01*
X169571556Y-70233291D01*
X169734369Y-70316248D01*
X169908155Y-70372715D01*
X169962498Y-70381322D01*
X170088630Y-70401300D01*
X170088635Y-70401300D01*
X170271370Y-70401300D01*
X170371631Y-70385419D01*
X170451845Y-70372715D01*
X170625631Y-70316248D01*
X170788444Y-70233291D01*
X170936276Y-70125885D01*
X171065485Y-69996676D01*
X171172891Y-69848844D01*
X171255848Y-69686031D01*
X171312315Y-69512245D01*
X171321619Y-69453501D01*
X171327527Y-69416202D01*
X171357456Y-69353067D01*
X171416768Y-69316136D01*
X171486630Y-69317134D01*
X171544863Y-69355744D01*
X171572473Y-69416202D01*
X171584524Y-69492287D01*
X171587685Y-69512245D01*
X171644152Y-69686031D01*
X171727109Y-69848844D01*
X171834515Y-69996676D01*
X171963724Y-70125885D01*
X172111556Y-70233291D01*
X172224581Y-70290880D01*
X172246851Y-70302227D01*
X172297647Y-70350201D01*
X172314442Y-70418022D01*
X172291905Y-70484157D01*
X172278237Y-70500393D01*
X168301203Y-74477427D01*
X168239880Y-74510912D01*
X168170188Y-74505928D01*
X168157228Y-74500231D01*
X168085636Y-74463754D01*
X168085633Y-74463753D01*
X168085631Y-74463752D01*
X167911845Y-74407285D01*
X167911843Y-74407284D01*
X167911841Y-74407284D01*
X167731370Y-74378700D01*
X167731365Y-74378700D01*
X167548635Y-74378700D01*
X167548630Y-74378700D01*
X167368158Y-74407284D01*
X167194366Y-74463753D01*
X167031555Y-74546709D01*
X166883721Y-74654117D01*
X166754517Y-74783321D01*
X166647109Y-74931155D01*
X166564153Y-75093966D01*
X166507684Y-75267758D01*
X166479100Y-75448229D01*
X166479100Y-76951770D01*
X166507684Y-77132241D01*
X166507684Y-77132243D01*
X166507685Y-77132245D01*
X166564152Y-77306031D01*
X166647109Y-77468844D01*
X166754515Y-77616676D01*
X166754517Y-77616678D01*
X166853181Y-77715342D01*
X166886666Y-77776665D01*
X166889500Y-77803023D01*
X166889500Y-78377769D01*
X166869815Y-78444808D01*
X166853181Y-78465450D01*
X166457680Y-78860951D01*
X166396357Y-78894436D01*
X166326665Y-78889452D01*
X166282318Y-78860951D01*
X165459389Y-78038022D01*
X164616819Y-77195451D01*
X164583334Y-77134128D01*
X164580500Y-77107770D01*
X164580500Y-67672229D01*
X164600185Y-67605190D01*
X164616819Y-67584548D01*
X167914548Y-64286819D01*
X167975871Y-64253334D01*
X168002229Y-64250500D01*
X175999582Y-64250500D01*
X176066621Y-64270185D01*
X176099900Y-64301615D01*
X176133028Y-64347212D01*
X176133032Y-64347217D01*
X176277786Y-64491971D01*
X176398226Y-64579474D01*
X176443390Y-64612287D01*
X176559607Y-64671503D01*
X176625776Y-64705218D01*
X176625778Y-64705218D01*
X176625781Y-64705220D01*
X176716847Y-64734809D01*
X176820465Y-64768477D01*
X176921557Y-64784488D01*
X177022648Y-64800500D01*
X177022649Y-64800500D01*
X177227351Y-64800500D01*
X177227352Y-64800500D01*
X177429534Y-64768477D01*
X177624219Y-64705220D01*
X177806610Y-64612287D01*
X177899590Y-64544732D01*
X177972213Y-64491971D01*
X177972215Y-64491968D01*
X177972219Y-64491966D01*
X178116966Y-64347219D01*
X178116968Y-64347215D01*
X178116971Y-64347213D01*
X178237286Y-64181611D01*
X178237415Y-64181359D01*
X178264795Y-64127621D01*
X178312769Y-64076826D01*
X178380589Y-64060030D01*
X178446725Y-64082567D01*
X178485765Y-64127621D01*
X178513141Y-64181350D01*
X178513147Y-64181359D01*
X178545523Y-64225921D01*
X178545524Y-64225922D01*
X179225000Y-63546446D01*
X179225000Y-63552661D01*
G37*
%TD.AperFunction*%
%TA.AperFunction,Conductor*%
G36*
X176547071Y-69316854D02*
G01*
X176566630Y-69317134D01*
X176580040Y-69326025D01*
X176595543Y-69330338D01*
X176608561Y-69344935D01*
X176624863Y-69355744D01*
X176631855Y-69371054D01*
X176642047Y-69382483D01*
X176652473Y-69416202D01*
X176664524Y-69492287D01*
X176667685Y-69512245D01*
X176724152Y-69686031D01*
X176807109Y-69848844D01*
X176914515Y-69996676D01*
X177043724Y-70125885D01*
X177191556Y-70233291D01*
X177354369Y-70316248D01*
X177528155Y-70372715D01*
X177582498Y-70381322D01*
X177708630Y-70401300D01*
X177708635Y-70401300D01*
X177891369Y-70401300D01*
X177990000Y-70385677D01*
X178017501Y-70381322D01*
X178086795Y-70390276D01*
X178140247Y-70435272D01*
X178160887Y-70502024D01*
X178160900Y-70503795D01*
X178160900Y-74276204D01*
X178141215Y-74343243D01*
X178088411Y-74388998D01*
X178019253Y-74398942D01*
X178017502Y-74398677D01*
X177891370Y-74378700D01*
X177891365Y-74378700D01*
X177708635Y-74378700D01*
X177708630Y-74378700D01*
X177528158Y-74407284D01*
X177354366Y-74463753D01*
X177191555Y-74546709D01*
X177043721Y-74654117D01*
X176914517Y-74783321D01*
X176807109Y-74931155D01*
X176724153Y-75093966D01*
X176667684Y-75267757D01*
X176652219Y-75365396D01*
X176622289Y-75428531D01*
X176562977Y-75465461D01*
X176493114Y-75464463D01*
X176434882Y-75425852D01*
X176407273Y-75365395D01*
X176391826Y-75267870D01*
X176335383Y-75094156D01*
X176252462Y-74931417D01*
X176145100Y-74783648D01*
X176145100Y-74783647D01*
X176015952Y-74654499D01*
X175868182Y-74547137D01*
X175705441Y-74464216D01*
X175531727Y-74407773D01*
X175531722Y-74407772D01*
X175510000Y-74404331D01*
X175510000Y-75875263D01*
X175509536Y-75874799D01*
X175416865Y-75821295D01*
X175313504Y-75793600D01*
X175206496Y-75793600D01*
X175103135Y-75821295D01*
X175010464Y-75874799D01*
X175010000Y-75875263D01*
X175010000Y-74404331D01*
X175009999Y-74404331D01*
X174988277Y-74407772D01*
X174988272Y-74407773D01*
X174814558Y-74464216D01*
X174651817Y-74547137D01*
X174504048Y-74654499D01*
X174504047Y-74654499D01*
X174374899Y-74783647D01*
X174374899Y-74783648D01*
X174267537Y-74931417D01*
X174184616Y-75094156D01*
X174128173Y-75267870D01*
X174112726Y-75365396D01*
X174082796Y-75428530D01*
X174023485Y-75465461D01*
X173953622Y-75464463D01*
X173895390Y-75425853D01*
X173867780Y-75365395D01*
X173852315Y-75267758D01*
X173852315Y-75267757D01*
X173852315Y-75267755D01*
X173795848Y-75093969D01*
X173712891Y-74931156D01*
X173605485Y-74783324D01*
X173476276Y-74654115D01*
X173328444Y-74546709D01*
X173192470Y-74477427D01*
X173165633Y-74463753D01*
X173165632Y-74463752D01*
X173165631Y-74463752D01*
X172991845Y-74407285D01*
X172991843Y-74407284D01*
X172991841Y-74407284D01*
X172811370Y-74378700D01*
X172811365Y-74378700D01*
X172628635Y-74378700D01*
X172628630Y-74378700D01*
X172448158Y-74407284D01*
X172274366Y-74463753D01*
X172111555Y-74546709D01*
X171963721Y-74654117D01*
X171834517Y-74783321D01*
X171727109Y-74931155D01*
X171644153Y-75093966D01*
X171587684Y-75267758D01*
X171572473Y-75363797D01*
X171542544Y-75426932D01*
X171483232Y-75463863D01*
X171413369Y-75462865D01*
X171355137Y-75424255D01*
X171327527Y-75363797D01*
X171312315Y-75267758D01*
X171312315Y-75267757D01*
X171312315Y-75267755D01*
X171255848Y-75093969D01*
X171172891Y-74931156D01*
X171065485Y-74783324D01*
X170936276Y-74654115D01*
X170788444Y-74546709D01*
X170653147Y-74477771D01*
X170602351Y-74429796D01*
X170585556Y-74361975D01*
X170608094Y-74295840D01*
X170621755Y-74279611D01*
X174598796Y-70302569D01*
X174660117Y-70269086D01*
X174729809Y-70274070D01*
X174742769Y-70279767D01*
X174787526Y-70302571D01*
X174814369Y-70316248D01*
X174988155Y-70372715D01*
X175042498Y-70381322D01*
X175168630Y-70401300D01*
X175168635Y-70401300D01*
X175351370Y-70401300D01*
X175451631Y-70385419D01*
X175531845Y-70372715D01*
X175705631Y-70316248D01*
X175868444Y-70233291D01*
X176016276Y-70125885D01*
X176145485Y-69996676D01*
X176252891Y-69848844D01*
X176335848Y-69686031D01*
X176392315Y-69512245D01*
X176401619Y-69453501D01*
X176407527Y-69416202D01*
X176414419Y-69401661D01*
X176416482Y-69385705D01*
X176429076Y-69370743D01*
X176437456Y-69353067D01*
X176451117Y-69344560D01*
X176461478Y-69332253D01*
X176480162Y-69326475D01*
X176496768Y-69316136D01*
X176512857Y-69316365D01*
X176528229Y-69311613D01*
X176547071Y-69316854D01*
G37*
%TD.AperFunction*%
%TA.AperFunction,Conductor*%
G36*
X211111162Y-43180370D02*
G01*
X211112430Y-43180026D01*
X211144583Y-43190183D01*
X211176940Y-43199685D01*
X211177800Y-43200677D01*
X211179054Y-43201074D01*
X211200629Y-43227023D01*
X211222695Y-43252489D01*
X211222881Y-43253788D01*
X211223723Y-43254800D01*
X211227840Y-43288276D01*
X211232639Y-43321647D01*
X211232144Y-43323268D01*
X211232253Y-43324147D01*
X211221621Y-43357802D01*
X211138734Y-43529917D01*
X211049687Y-43784397D01*
X211049684Y-43784405D01*
X210989688Y-44047268D01*
X210989686Y-44047280D01*
X210959500Y-44315186D01*
X210959500Y-44584813D01*
X210989686Y-44852719D01*
X210989688Y-44852731D01*
X211049684Y-45115594D01*
X211049687Y-45115602D01*
X211138734Y-45370082D01*
X211255714Y-45612994D01*
X211255716Y-45612997D01*
X211399162Y-45841289D01*
X211524573Y-45998549D01*
X211536499Y-46013505D01*
X211567266Y-46052085D01*
X211757915Y-46242734D01*
X211968711Y-46410838D01*
X212197003Y-46554284D01*
X212439921Y-46671267D01*
X212631049Y-46738145D01*
X212694397Y-46760312D01*
X212694405Y-46760315D01*
X212694408Y-46760315D01*
X212694409Y-46760316D01*
X212957268Y-46820312D01*
X213225187Y-46850499D01*
X213225188Y-46850500D01*
X213225191Y-46850500D01*
X213494812Y-46850500D01*
X213494812Y-46850499D01*
X213762732Y-46820312D01*
X214025591Y-46760316D01*
X214280079Y-46671267D01*
X214452198Y-46588379D01*
X214521140Y-46577027D01*
X214585274Y-46604749D01*
X214624240Y-46662744D01*
X214630000Y-46700099D01*
X214630000Y-100860995D01*
X214610315Y-100928034D01*
X214557511Y-100973789D01*
X214488353Y-100983733D01*
X214424797Y-100954708D01*
X214388959Y-100901950D01*
X214342998Y-100770604D01*
X214311267Y-100679921D01*
X214194284Y-100437003D01*
X214050838Y-100208711D01*
X213882734Y-99997915D01*
X213692085Y-99807266D01*
X213481289Y-99639162D01*
X213252997Y-99495716D01*
X213252994Y-99495714D01*
X213010082Y-99378734D01*
X212755602Y-99289687D01*
X212755594Y-99289684D01*
X212558446Y-99244687D01*
X212492732Y-99229688D01*
X212492728Y-99229687D01*
X212492719Y-99229686D01*
X212224813Y-99199500D01*
X212224809Y-99199500D01*
X211955191Y-99199500D01*
X211955186Y-99199500D01*
X211687280Y-99229686D01*
X211687268Y-99229688D01*
X211424405Y-99289684D01*
X211424397Y-99289687D01*
X211169917Y-99378734D01*
X210927005Y-99495714D01*
X210698712Y-99639161D01*
X210487915Y-99807265D01*
X210297265Y-99997915D01*
X210129161Y-100208712D01*
X209985714Y-100437005D01*
X209868734Y-100679917D01*
X209779687Y-100934397D01*
X209779684Y-100934405D01*
X209719688Y-101197268D01*
X209719686Y-101197280D01*
X209689500Y-101465186D01*
X209689500Y-101734813D01*
X209719686Y-102002719D01*
X209719688Y-102002731D01*
X209779684Y-102265594D01*
X209779687Y-102265602D01*
X209868734Y-102520082D01*
X209951621Y-102692198D01*
X209962973Y-102761140D01*
X209935251Y-102825274D01*
X209877256Y-102864240D01*
X209839901Y-102870000D01*
X133060099Y-102870000D01*
X132993060Y-102850315D01*
X132947305Y-102797511D01*
X132937361Y-102728353D01*
X132948379Y-102692198D01*
X132953989Y-102680547D01*
X133031267Y-102520079D01*
X133120316Y-102265591D01*
X133180312Y-102002732D01*
X133210500Y-101734809D01*
X133210500Y-101465191D01*
X133180312Y-101197268D01*
X133120316Y-100934409D01*
X133031267Y-100679921D01*
X132914284Y-100437003D01*
X132770838Y-100208711D01*
X132602734Y-99997915D01*
X132412085Y-99807266D01*
X132201289Y-99639162D01*
X131972997Y-99495716D01*
X131972994Y-99495714D01*
X131730082Y-99378734D01*
X131475602Y-99289687D01*
X131475594Y-99289684D01*
X131278446Y-99244687D01*
X131212732Y-99229688D01*
X131212728Y-99229687D01*
X131212719Y-99229686D01*
X130944813Y-99199500D01*
X130944809Y-99199500D01*
X130675191Y-99199500D01*
X130675186Y-99199500D01*
X130407280Y-99229686D01*
X130407268Y-99229688D01*
X130144405Y-99289684D01*
X130144397Y-99289687D01*
X129889917Y-99378734D01*
X129647005Y-99495714D01*
X129418712Y-99639161D01*
X129207915Y-99807265D01*
X129017265Y-99997915D01*
X128849161Y-100208712D01*
X128705714Y-100437005D01*
X128588734Y-100679917D01*
X128511041Y-100901950D01*
X128470320Y-100958726D01*
X128405367Y-100984473D01*
X128336805Y-100971017D01*
X128286402Y-100922629D01*
X128270000Y-100860995D01*
X128270000Y-95397648D01*
X158199500Y-95397648D01*
X158199500Y-95602351D01*
X158231522Y-95804534D01*
X158294781Y-95999223D01*
X158387715Y-96181613D01*
X158508028Y-96347213D01*
X158652786Y-96491971D01*
X158807749Y-96604556D01*
X158818390Y-96612287D01*
X158920946Y-96664542D01*
X159000776Y-96705218D01*
X159000778Y-96705218D01*
X159000781Y-96705220D01*
X159105137Y-96739127D01*
X159195465Y-96768477D01*
X159279564Y-96781797D01*
X159397648Y-96800500D01*
X159397649Y-96800500D01*
X159602350Y-96800500D01*
X159602352Y-96800500D01*
X159658026Y-96791681D01*
X159727318Y-96800635D01*
X159765105Y-96826473D01*
X161132586Y-98193954D01*
X161162058Y-98213645D01*
X161206270Y-98243186D01*
X161255505Y-98276084D01*
X161255506Y-98276084D01*
X161255507Y-98276085D01*
X161255509Y-98276086D01*
X161392082Y-98332656D01*
X161392087Y-98332658D01*
X161392091Y-98332658D01*
X161392092Y-98332659D01*
X161537079Y-98361500D01*
X161537082Y-98361500D01*
X178592102Y-98361500D01*
X178689644Y-98342096D01*
X178737095Y-98332658D01*
X178873677Y-98276084D01*
X178922911Y-98243186D01*
X178922916Y-98243183D01*
X178947253Y-98226921D01*
X178996598Y-98193952D01*
X186233730Y-90956818D01*
X186295053Y-90923334D01*
X186321411Y-90920500D01*
X189281878Y-90920500D01*
X189348917Y-90940185D01*
X189382194Y-90971612D01*
X189450828Y-91066078D01*
X189603922Y-91219172D01*
X189779081Y-91346433D01*
X189864415Y-91389913D01*
X189915210Y-91437886D01*
X189932005Y-91505707D01*
X189909468Y-91571842D01*
X189895801Y-91588078D01*
X189560697Y-91923182D01*
X189499376Y-91956666D01*
X189473018Y-91959500D01*
X189178122Y-91959500D01*
X189111083Y-91939815D01*
X189077804Y-91908386D01*
X189009172Y-91813922D01*
X188856078Y-91660828D01*
X188680919Y-91533567D01*
X188626241Y-91505707D01*
X188488009Y-91435273D01*
X188488006Y-91435272D01*
X188282098Y-91368370D01*
X188175175Y-91351435D01*
X188068254Y-91334500D01*
X187851746Y-91334500D01*
X187780465Y-91345790D01*
X187637901Y-91368370D01*
X187431993Y-91435272D01*
X187431990Y-91435273D01*
X187239080Y-91533567D01*
X187186400Y-91571842D01*
X187063922Y-91660828D01*
X187063920Y-91660830D01*
X187063919Y-91660830D01*
X186910830Y-91813919D01*
X186910830Y-91813920D01*
X186910828Y-91813922D01*
X186856174Y-91889145D01*
X186783567Y-91989080D01*
X186685273Y-92181990D01*
X186685272Y-92181993D01*
X186618370Y-92387901D01*
X186584500Y-92601746D01*
X186584500Y-92818253D01*
X186618370Y-93032098D01*
X186685272Y-93238006D01*
X186685273Y-93238009D01*
X186783567Y-93430919D01*
X186910828Y-93606078D01*
X187063922Y-93759172D01*
X187239081Y-93886433D01*
X187333697Y-93934642D01*
X187431990Y-93984726D01*
X187431993Y-93984727D01*
X187534947Y-94018178D01*
X187637903Y-94051630D01*
X187851746Y-94085500D01*
X187851747Y-94085500D01*
X188068253Y-94085500D01*
X188068254Y-94085500D01*
X188282097Y-94051630D01*
X188488009Y-93984726D01*
X188680919Y-93886433D01*
X188856078Y-93759172D01*
X189009172Y-93606078D01*
X189077804Y-93511613D01*
X189133134Y-93468949D01*
X189178122Y-93460500D01*
X189909168Y-93460500D01*
X190006710Y-93441096D01*
X190054161Y-93431658D01*
X190190743Y-93375084D01*
X190239977Y-93342186D01*
X190313664Y-93292952D01*
X192408951Y-91197664D01*
X192491084Y-91074743D01*
X192547658Y-90938161D01*
X192557055Y-90890919D01*
X192571146Y-90820080D01*
X192576500Y-90793167D01*
X192576500Y-89546831D01*
X192547659Y-89401844D01*
X192547658Y-89401843D01*
X192547658Y-89401839D01*
X192503505Y-89295244D01*
X192491087Y-89265263D01*
X192491080Y-89265250D01*
X192408952Y-89142337D01*
X192408951Y-89142336D01*
X192304416Y-89037801D01*
X192125409Y-88858794D01*
X191527669Y-88261052D01*
X191527662Y-88261046D01*
X191453977Y-88211812D01*
X191453977Y-88211813D01*
X191404739Y-88178913D01*
X191386587Y-88171395D01*
X191268165Y-88122343D01*
X191268155Y-88122340D01*
X191123168Y-88093500D01*
X191123166Y-88093500D01*
X189876834Y-88093500D01*
X189876832Y-88093500D01*
X189731844Y-88122340D01*
X189731834Y-88122343D01*
X189595263Y-88178912D01*
X189595250Y-88178919D01*
X189472336Y-88261048D01*
X189472331Y-88261052D01*
X189434442Y-88298941D01*
X189373119Y-88332426D01*
X189303427Y-88327440D01*
X189247494Y-88285568D01*
X189223078Y-88220104D01*
X189234612Y-88163237D01*
X189232861Y-88162512D01*
X189234727Y-88158006D01*
X189266573Y-88059992D01*
X189266576Y-88059983D01*
X203199500Y-88059983D01*
X203199500Y-90260001D01*
X203199501Y-90260018D01*
X203210000Y-90362796D01*
X203210001Y-90362799D01*
X203225942Y-90410904D01*
X203265186Y-90529334D01*
X203357288Y-90678656D01*
X203481344Y-90802712D01*
X203630666Y-90894814D01*
X203797203Y-90949999D01*
X203899991Y-90960500D01*
X206100008Y-90960499D01*
X206202797Y-90949999D01*
X206369334Y-90894814D01*
X206518656Y-90802712D01*
X206642712Y-90678656D01*
X206734814Y-90529334D01*
X206789999Y-90362797D01*
X206800500Y-90260009D01*
X206800499Y-88059992D01*
X206789999Y-87957203D01*
X206734814Y-87790666D01*
X206642712Y-87641344D01*
X206518656Y-87517288D01*
X206369334Y-87425186D01*
X206202797Y-87370001D01*
X206202795Y-87370000D01*
X206100010Y-87359500D01*
X203899998Y-87359500D01*
X203899981Y-87359501D01*
X203797203Y-87370000D01*
X203797200Y-87370001D01*
X203630668Y-87425185D01*
X203630663Y-87425187D01*
X203481342Y-87517289D01*
X203357289Y-87641342D01*
X203265187Y-87790663D01*
X203265185Y-87790668D01*
X203258067Y-87812149D01*
X203210001Y-87957203D01*
X203210001Y-87957204D01*
X203210000Y-87957204D01*
X203199500Y-88059983D01*
X189266576Y-88059983D01*
X189301630Y-87952097D01*
X189335500Y-87738254D01*
X189335500Y-87521746D01*
X189301630Y-87307903D01*
X189235633Y-87104781D01*
X189234727Y-87101993D01*
X189234726Y-87101990D01*
X189136432Y-86909080D01*
X189009172Y-86733922D01*
X188856078Y-86580828D01*
X188848486Y-86575312D01*
X188761614Y-86512194D01*
X188718948Y-86456864D01*
X188710500Y-86411877D01*
X188710500Y-83961995D01*
X203199500Y-83961995D01*
X203199500Y-84198004D01*
X203199501Y-84198020D01*
X203230306Y-84432010D01*
X203291394Y-84659993D01*
X203381714Y-84878045D01*
X203381719Y-84878056D01*
X203452677Y-85000957D01*
X203499727Y-85082450D01*
X203499729Y-85082453D01*
X203499730Y-85082454D01*
X203643406Y-85269697D01*
X203643412Y-85269704D01*
X203810295Y-85436587D01*
X203810302Y-85436593D01*
X203920306Y-85521001D01*
X203997550Y-85580273D01*
X204128918Y-85656118D01*
X204201943Y-85698280D01*
X204201948Y-85698282D01*
X204201951Y-85698284D01*
X204420007Y-85788606D01*
X204647986Y-85849693D01*
X204881989Y-85880500D01*
X204881996Y-85880500D01*
X205118004Y-85880500D01*
X205118011Y-85880500D01*
X205352014Y-85849693D01*
X205579993Y-85788606D01*
X205798049Y-85698284D01*
X206002450Y-85580273D01*
X206189699Y-85436592D01*
X206356592Y-85269699D01*
X206500273Y-85082450D01*
X206618284Y-84878049D01*
X206708606Y-84659993D01*
X206769693Y-84432014D01*
X206800500Y-84198011D01*
X206800500Y-83961989D01*
X206769693Y-83727986D01*
X206708606Y-83500007D01*
X206618284Y-83281951D01*
X206618282Y-83281948D01*
X206618280Y-83281943D01*
X206514592Y-83102352D01*
X206500273Y-83077550D01*
X206356592Y-82890301D01*
X206356587Y-82890295D01*
X206189704Y-82723412D01*
X206189697Y-82723406D01*
X206002454Y-82579730D01*
X206002453Y-82579729D01*
X206002450Y-82579727D01*
X205865712Y-82500781D01*
X205798056Y-82461719D01*
X205798045Y-82461714D01*
X205579993Y-82371394D01*
X205352010Y-82310306D01*
X205118020Y-82279501D01*
X205118017Y-82279500D01*
X205118011Y-82279500D01*
X204881989Y-82279500D01*
X204881983Y-82279500D01*
X204881979Y-82279501D01*
X204647989Y-82310306D01*
X204420006Y-82371394D01*
X204201954Y-82461714D01*
X204201943Y-82461719D01*
X203997545Y-82579730D01*
X203810302Y-82723406D01*
X203810295Y-82723412D01*
X203643412Y-82890295D01*
X203643406Y-82890302D01*
X203499730Y-83077545D01*
X203381719Y-83281943D01*
X203381714Y-83281954D01*
X203291394Y-83500006D01*
X203230306Y-83727989D01*
X203199501Y-83961979D01*
X203199500Y-83961995D01*
X188710500Y-83961995D01*
X188710500Y-79872228D01*
X188730185Y-79805189D01*
X188746814Y-79784551D01*
X189649351Y-78882014D01*
X203200000Y-78882014D01*
X203200000Y-79117985D01*
X203230799Y-79351914D01*
X203291870Y-79579837D01*
X203382160Y-79797819D01*
X203382165Y-79797828D01*
X203500144Y-80002171D01*
X203500145Y-80002172D01*
X203562721Y-80083723D01*
X204398958Y-79247487D01*
X204423978Y-79307890D01*
X204495112Y-79414351D01*
X204585649Y-79504888D01*
X204692110Y-79576022D01*
X204752511Y-79601041D01*
X203916275Y-80437277D01*
X203997827Y-80499854D01*
X203997828Y-80499855D01*
X204202171Y-80617834D01*
X204202180Y-80617839D01*
X204420163Y-80708129D01*
X204420161Y-80708129D01*
X204648085Y-80769200D01*
X204882014Y-80799999D01*
X204882029Y-80800000D01*
X205117971Y-80800000D01*
X205117985Y-80799999D01*
X205351914Y-80769200D01*
X205579837Y-80708129D01*
X205797819Y-80617839D01*
X205797828Y-80617834D01*
X206002181Y-80499850D01*
X206083723Y-80437279D01*
X206083723Y-80437276D01*
X205247487Y-79601041D01*
X205307890Y-79576022D01*
X205414351Y-79504888D01*
X205504888Y-79414351D01*
X205576022Y-79307890D01*
X205601041Y-79247488D01*
X206437276Y-80083723D01*
X206437279Y-80083723D01*
X206499850Y-80002181D01*
X206617834Y-79797828D01*
X206617839Y-79797819D01*
X206708129Y-79579837D01*
X206769200Y-79351914D01*
X206799999Y-79117985D01*
X206800000Y-79117971D01*
X206800000Y-78882028D01*
X206799999Y-78882014D01*
X206769200Y-78648085D01*
X206708129Y-78420162D01*
X206617839Y-78202180D01*
X206617834Y-78202171D01*
X206499855Y-77997828D01*
X206499854Y-77997827D01*
X206437277Y-77916275D01*
X205601041Y-78752511D01*
X205576022Y-78692110D01*
X205504888Y-78585649D01*
X205414351Y-78495112D01*
X205307890Y-78423978D01*
X205247488Y-78398958D01*
X206083723Y-77562721D01*
X206002172Y-77500145D01*
X206002171Y-77500144D01*
X205797828Y-77382165D01*
X205797819Y-77382160D01*
X205579836Y-77291870D01*
X205579838Y-77291870D01*
X205351914Y-77230799D01*
X205117985Y-77200000D01*
X204882014Y-77200000D01*
X204648085Y-77230799D01*
X204420162Y-77291870D01*
X204202180Y-77382160D01*
X204202171Y-77382165D01*
X203997828Y-77500144D01*
X203997818Y-77500150D01*
X203916275Y-77562720D01*
X203916275Y-77562721D01*
X204752512Y-78398958D01*
X204692110Y-78423978D01*
X204585649Y-78495112D01*
X204495112Y-78585649D01*
X204423978Y-78692110D01*
X204398958Y-78752511D01*
X203562721Y-77916275D01*
X203562720Y-77916275D01*
X203500150Y-77997818D01*
X203500144Y-77997828D01*
X203382165Y-78202171D01*
X203382160Y-78202180D01*
X203291870Y-78420162D01*
X203230799Y-78648085D01*
X203200000Y-78882014D01*
X189649351Y-78882014D01*
X189734894Y-78796471D01*
X189796215Y-78762988D01*
X189841970Y-78761681D01*
X189897648Y-78770500D01*
X189897649Y-78770500D01*
X190102351Y-78770500D01*
X190102352Y-78770500D01*
X190304534Y-78738477D01*
X190499219Y-78675220D01*
X190681610Y-78582287D01*
X190842424Y-78465450D01*
X190847213Y-78461971D01*
X190847215Y-78461968D01*
X190847219Y-78461966D01*
X190991966Y-78317219D01*
X190991968Y-78317215D01*
X190991971Y-78317213D01*
X191075546Y-78202180D01*
X191112287Y-78151610D01*
X191205220Y-77969219D01*
X191268477Y-77774534D01*
X191300500Y-77572352D01*
X191300500Y-77367648D01*
X191268477Y-77165466D01*
X191249730Y-77107770D01*
X191239127Y-77075137D01*
X191205220Y-76970781D01*
X191205218Y-76970778D01*
X191205218Y-76970776D01*
X191171503Y-76904607D01*
X191112287Y-76788390D01*
X191034710Y-76681613D01*
X190991971Y-76622786D01*
X190847213Y-76478028D01*
X190681613Y-76357715D01*
X190681612Y-76357714D01*
X190681610Y-76357713D01*
X190580218Y-76306051D01*
X190499223Y-76264781D01*
X190304534Y-76201522D01*
X190129995Y-76173878D01*
X190102352Y-76169500D01*
X189897648Y-76169500D01*
X189873329Y-76173351D01*
X189695465Y-76201522D01*
X189500776Y-76264781D01*
X189318386Y-76357715D01*
X189152786Y-76478028D01*
X189008028Y-76622786D01*
X188887715Y-76788386D01*
X188794781Y-76970776D01*
X188731522Y-77165465D01*
X188699500Y-77367648D01*
X188699500Y-77572351D01*
X188708318Y-77628026D01*
X188699363Y-77697320D01*
X188673526Y-77735105D01*
X187377052Y-79031578D01*
X187377046Y-79031585D01*
X187334344Y-79095494D01*
X187334345Y-79095495D01*
X187294913Y-79154508D01*
X187238343Y-79291082D01*
X187238340Y-79291092D01*
X187209500Y-79436079D01*
X187209500Y-86411877D01*
X187189815Y-86478916D01*
X187158386Y-86512194D01*
X187063928Y-86580823D01*
X187063919Y-86580830D01*
X186910830Y-86733919D01*
X186910830Y-86733920D01*
X186910828Y-86733922D01*
X186859453Y-86804633D01*
X186783567Y-86909080D01*
X186685273Y-87101990D01*
X186685272Y-87101993D01*
X186618370Y-87307901D01*
X186584500Y-87521746D01*
X186584500Y-87738253D01*
X186618370Y-87952098D01*
X186685272Y-88158006D01*
X186685273Y-88158009D01*
X186783567Y-88350919D01*
X186907585Y-88521614D01*
X186931065Y-88587421D01*
X186915240Y-88655475D01*
X186865134Y-88704170D01*
X186807267Y-88718500D01*
X184817076Y-88718500D01*
X184788242Y-88724234D01*
X184788243Y-88724235D01*
X184672093Y-88747339D01*
X184672085Y-88747341D01*
X184617183Y-88770082D01*
X184617184Y-88770083D01*
X184535506Y-88803914D01*
X184453372Y-88858795D01*
X184412585Y-88886047D01*
X184412581Y-88886050D01*
X178265105Y-95033526D01*
X178203782Y-95067011D01*
X178158026Y-95068318D01*
X178102352Y-95059500D01*
X177897648Y-95059500D01*
X177873329Y-95063351D01*
X177695465Y-95091522D01*
X177500776Y-95154781D01*
X177318386Y-95247715D01*
X177152786Y-95368028D01*
X177008028Y-95512786D01*
X176887715Y-95678386D01*
X176794781Y-95860776D01*
X176731522Y-96055465D01*
X176711543Y-96181610D01*
X176699500Y-96257648D01*
X176699500Y-96462352D01*
X176704191Y-96491971D01*
X176731523Y-96664535D01*
X176731524Y-96664542D01*
X176742455Y-96698183D01*
X176744450Y-96768024D01*
X176708369Y-96827856D01*
X176645668Y-96858684D01*
X176624524Y-96860500D01*
X168210962Y-96860500D01*
X168143923Y-96840815D01*
X168098168Y-96788011D01*
X168088224Y-96718853D01*
X168117249Y-96655297D01*
X168154667Y-96626015D01*
X168181610Y-96612287D01*
X168202770Y-96596913D01*
X168347213Y-96491971D01*
X168347215Y-96491968D01*
X168347219Y-96491966D01*
X168491966Y-96347219D01*
X168491968Y-96347215D01*
X168491971Y-96347213D01*
X168544732Y-96274590D01*
X168612287Y-96181610D01*
X168705220Y-95999219D01*
X168768477Y-95804534D01*
X168800500Y-95602352D01*
X168800500Y-95397648D01*
X168768477Y-95195466D01*
X168705220Y-95000781D01*
X168705218Y-95000778D01*
X168705218Y-95000776D01*
X168671503Y-94934607D01*
X168612287Y-94818390D01*
X168604556Y-94807749D01*
X168491971Y-94652786D01*
X168347213Y-94508028D01*
X168181613Y-94387715D01*
X168181612Y-94387714D01*
X168181610Y-94387713D01*
X168124653Y-94358691D01*
X167999223Y-94294781D01*
X167804534Y-94231522D01*
X167629995Y-94203878D01*
X167602352Y-94199500D01*
X167397648Y-94199500D01*
X167373329Y-94203351D01*
X167195465Y-94231522D01*
X167000776Y-94294781D01*
X166818386Y-94387715D01*
X166652786Y-94508028D01*
X166508028Y-94652786D01*
X166387715Y-94818386D01*
X166294781Y-95000776D01*
X166231522Y-95195465D01*
X166199500Y-95397648D01*
X166199500Y-95602351D01*
X166231522Y-95804534D01*
X166294781Y-95999223D01*
X166387715Y-96181613D01*
X166508028Y-96347213D01*
X166652786Y-96491971D01*
X166818385Y-96612284D01*
X166818387Y-96612285D01*
X166818390Y-96612287D01*
X166845333Y-96626015D01*
X166896129Y-96673990D01*
X166912924Y-96741811D01*
X166890387Y-96807945D01*
X166835672Y-96851397D01*
X166789038Y-96860500D01*
X164210962Y-96860500D01*
X164143923Y-96840815D01*
X164098168Y-96788011D01*
X164088224Y-96718853D01*
X164117249Y-96655297D01*
X164154667Y-96626015D01*
X164181610Y-96612287D01*
X164202770Y-96596913D01*
X164347213Y-96491971D01*
X164347215Y-96491968D01*
X164347219Y-96491966D01*
X164491966Y-96347219D01*
X164491968Y-96347215D01*
X164491971Y-96347213D01*
X164544732Y-96274590D01*
X164612287Y-96181610D01*
X164705220Y-95999219D01*
X164768477Y-95804534D01*
X164800500Y-95602352D01*
X164800500Y-95397648D01*
X164768477Y-95195466D01*
X164705220Y-95000781D01*
X164705218Y-95000778D01*
X164705218Y-95000776D01*
X164671503Y-94934607D01*
X164612287Y-94818390D01*
X164604556Y-94807749D01*
X164491971Y-94652786D01*
X164347213Y-94508028D01*
X164181613Y-94387715D01*
X164181612Y-94387714D01*
X164181610Y-94387713D01*
X164124653Y-94358691D01*
X163999223Y-94294781D01*
X163804534Y-94231522D01*
X163629995Y-94203878D01*
X163602352Y-94199500D01*
X163397648Y-94199500D01*
X163373329Y-94203351D01*
X163195465Y-94231522D01*
X163000776Y-94294781D01*
X162818386Y-94387715D01*
X162652786Y-94508028D01*
X162508028Y-94652786D01*
X162387715Y-94818386D01*
X162294781Y-95000776D01*
X162231522Y-95195465D01*
X162199500Y-95397648D01*
X162199500Y-95602351D01*
X162231522Y-95804534D01*
X162294781Y-95999223D01*
X162387715Y-96181613D01*
X162508028Y-96347213D01*
X162652786Y-96491971D01*
X162818385Y-96612284D01*
X162818387Y-96612285D01*
X162818390Y-96612287D01*
X162845333Y-96626015D01*
X162896129Y-96673990D01*
X162912924Y-96741811D01*
X162890387Y-96807945D01*
X162835672Y-96851397D01*
X162789038Y-96860500D01*
X161973230Y-96860500D01*
X161906191Y-96840815D01*
X161885549Y-96824181D01*
X160826473Y-95765105D01*
X160792988Y-95703782D01*
X160791681Y-95658027D01*
X160800500Y-95602352D01*
X160800500Y-95397648D01*
X160768477Y-95195466D01*
X160705220Y-95000781D01*
X160705218Y-95000778D01*
X160705218Y-95000776D01*
X160671503Y-94934607D01*
X160612287Y-94818390D01*
X160604556Y-94807749D01*
X160491971Y-94652786D01*
X160347213Y-94508028D01*
X160181613Y-94387715D01*
X160181612Y-94387714D01*
X160181610Y-94387713D01*
X160124653Y-94358691D01*
X159999223Y-94294781D01*
X159804534Y-94231522D01*
X159629995Y-94203878D01*
X159602352Y-94199500D01*
X159397648Y-94199500D01*
X159373329Y-94203351D01*
X159195465Y-94231522D01*
X159000776Y-94294781D01*
X158818386Y-94387715D01*
X158652786Y-94508028D01*
X158508028Y-94652786D01*
X158387715Y-94818386D01*
X158294781Y-95000776D01*
X158231522Y-95195465D01*
X158199500Y-95397648D01*
X128270000Y-95397648D01*
X128270000Y-58493920D01*
X130059499Y-58493920D01*
X130088340Y-58638907D01*
X130088343Y-58638917D01*
X130144913Y-58775490D01*
X130144918Y-58775499D01*
X130152134Y-58786298D01*
X130152136Y-58786300D01*
X130174038Y-58819080D01*
X130227051Y-58898420D01*
X130227052Y-58898421D01*
X135103181Y-63774549D01*
X135136666Y-63835872D01*
X135139500Y-63862230D01*
X135139500Y-66062026D01*
X135119815Y-66129065D01*
X135080598Y-66167563D01*
X134997879Y-66218584D01*
X134951342Y-66247289D01*
X134827289Y-66371342D01*
X134735187Y-66520663D01*
X134735185Y-66520668D01*
X134712761Y-66588340D01*
X134680001Y-66687203D01*
X134680001Y-66687204D01*
X134680000Y-66687204D01*
X134669500Y-66789983D01*
X134669500Y-67830001D01*
X134669501Y-67830019D01*
X134680000Y-67932796D01*
X134680001Y-67932799D01*
X134727277Y-68075466D01*
X134735186Y-68099334D01*
X134755461Y-68132206D01*
X134773901Y-68199596D01*
X134752979Y-68266260D01*
X134737603Y-68284982D01*
X134136048Y-68886538D01*
X134128569Y-68897732D01*
X134093980Y-68949500D01*
X134053919Y-69009454D01*
X134053912Y-69009466D01*
X133997343Y-69146037D01*
X133997340Y-69146047D01*
X133968500Y-69291034D01*
X133968500Y-69291037D01*
X133968500Y-71292918D01*
X133968500Y-71292920D01*
X133968499Y-71292920D01*
X133997340Y-71437907D01*
X133997343Y-71437917D01*
X134053914Y-71574492D01*
X134053915Y-71574494D01*
X134053916Y-71574495D01*
X134073578Y-71603922D01*
X134086812Y-71623727D01*
X134086813Y-71623730D01*
X134136046Y-71697414D01*
X134136052Y-71697421D01*
X134633679Y-72195048D01*
X134667164Y-72256371D01*
X134669389Y-72289073D01*
X134669500Y-72289073D01*
X134669500Y-72290698D01*
X134669618Y-72292433D01*
X134669500Y-72293936D01*
X134669500Y-72486054D01*
X134699553Y-72675802D01*
X134758916Y-72858506D01*
X134845283Y-73028009D01*
X134846135Y-73029681D01*
X134959055Y-73185102D01*
X135094898Y-73320945D01*
X135250319Y-73433865D01*
X135301608Y-73459998D01*
X135421493Y-73521083D01*
X135507944Y-73549172D01*
X135604199Y-73580447D01*
X135793945Y-73610500D01*
X135793946Y-73610500D01*
X135986054Y-73610500D01*
X135986055Y-73610500D01*
X136175801Y-73580447D01*
X136358509Y-73521082D01*
X136529681Y-73433865D01*
X136685102Y-73320945D01*
X136820945Y-73185102D01*
X136933865Y-73029681D01*
X137021082Y-72858509D01*
X137080447Y-72675801D01*
X137110500Y-72486055D01*
X137110500Y-72431230D01*
X137130185Y-72364191D01*
X137182989Y-72318436D01*
X137252147Y-72308492D01*
X137315703Y-72337517D01*
X137322181Y-72343549D01*
X138061584Y-73082952D01*
X138104544Y-73111656D01*
X138104546Y-73111658D01*
X138104547Y-73111658D01*
X138184505Y-73165084D01*
X138184506Y-73165084D01*
X138184507Y-73165085D01*
X138319298Y-73220917D01*
X138321087Y-73221658D01*
X138321091Y-73221658D01*
X138321092Y-73221659D01*
X138466079Y-73250500D01*
X138466082Y-73250500D01*
X138466083Y-73250500D01*
X138613917Y-73250500D01*
X146701878Y-73250500D01*
X146768917Y-73270185D01*
X146802194Y-73301612D01*
X146870828Y-73396078D01*
X147023922Y-73549172D01*
X147118386Y-73617804D01*
X147161051Y-73673134D01*
X147169500Y-73718122D01*
X147169500Y-85073100D01*
X147169500Y-85073102D01*
X147169499Y-85073102D01*
X147198340Y-85218089D01*
X147198343Y-85218099D01*
X147254914Y-85354674D01*
X147287812Y-85403909D01*
X147287813Y-85403912D01*
X147337046Y-85477596D01*
X147337052Y-85477603D01*
X152003396Y-90143947D01*
X152003403Y-90143953D01*
X152073299Y-90190655D01*
X152073301Y-90190656D01*
X152073304Y-90190658D01*
X152126323Y-90226084D01*
X152126324Y-90226084D01*
X152126325Y-90226085D01*
X152208206Y-90260001D01*
X152262905Y-90282658D01*
X152262909Y-90282658D01*
X152262910Y-90282659D01*
X152407897Y-90311500D01*
X152407900Y-90311500D01*
X153592102Y-90311500D01*
X153689644Y-90292096D01*
X153737095Y-90282658D01*
X153828149Y-90244942D01*
X153873675Y-90226085D01*
X153873675Y-90226084D01*
X153873677Y-90226084D01*
X153926696Y-90190658D01*
X153926696Y-90190657D01*
X153926698Y-90190657D01*
X153992865Y-90146446D01*
X153996598Y-90143952D01*
X160273001Y-83867547D01*
X160334324Y-83834063D01*
X160404016Y-83839047D01*
X160448363Y-83867548D01*
X160572786Y-83991971D01*
X160727749Y-84104556D01*
X160738390Y-84112287D01*
X160831498Y-84159728D01*
X160920776Y-84205218D01*
X160920778Y-84205218D01*
X160920781Y-84205220D01*
X161009628Y-84234088D01*
X161115465Y-84268477D01*
X161187227Y-84279843D01*
X161317648Y-84300500D01*
X161317649Y-84300500D01*
X161522351Y-84300500D01*
X161522352Y-84300500D01*
X161724534Y-84268477D01*
X161919219Y-84205220D01*
X162101610Y-84112287D01*
X162194590Y-84044732D01*
X162267213Y-83991971D01*
X162267215Y-83991968D01*
X162267219Y-83991966D01*
X162411966Y-83847219D01*
X162486568Y-83744536D01*
X162541898Y-83701870D01*
X162611511Y-83695891D01*
X162673306Y-83728496D01*
X162707664Y-83789334D01*
X162710177Y-83804166D01*
X162715909Y-83857483D01*
X162766202Y-83992328D01*
X162766206Y-83992335D01*
X162852452Y-84107544D01*
X162852453Y-84107544D01*
X162852454Y-84107546D01*
X162870015Y-84120692D01*
X162881994Y-84129660D01*
X162923865Y-84185595D01*
X162928848Y-84255287D01*
X162895361Y-84316609D01*
X162876573Y-84332028D01*
X162758584Y-84410866D01*
X162758580Y-84410869D01*
X157666047Y-89503402D01*
X157666043Y-89503407D01*
X157624452Y-89565656D01*
X157624451Y-89565658D01*
X157583919Y-89626317D01*
X157583912Y-89626329D01*
X157527343Y-89762900D01*
X157527340Y-89762910D01*
X157498500Y-89907897D01*
X157498500Y-89907900D01*
X157498500Y-91092100D01*
X157498500Y-91092102D01*
X157498499Y-91092102D01*
X157527340Y-91237089D01*
X157527343Y-91237099D01*
X157583912Y-91373670D01*
X157583921Y-91373686D01*
X157598498Y-91395501D01*
X157598499Y-91395505D01*
X157598500Y-91395505D01*
X157666046Y-91496596D01*
X157666052Y-91496603D01*
X158503398Y-92333948D01*
X158503402Y-92333951D01*
X158626316Y-92416080D01*
X158626329Y-92416087D01*
X158762900Y-92472656D01*
X158762905Y-92472658D01*
X158762909Y-92472658D01*
X158762910Y-92472659D01*
X158907897Y-92501500D01*
X158907900Y-92501500D01*
X169942920Y-92501500D01*
X170040462Y-92482096D01*
X170087913Y-92472658D01*
X170224495Y-92416084D01*
X170273729Y-92383186D01*
X170347416Y-92333952D01*
X174043720Y-88637648D01*
X176699500Y-88637648D01*
X176699500Y-88842351D01*
X176731522Y-89044534D01*
X176794781Y-89239223D01*
X176823326Y-89295244D01*
X176887159Y-89420523D01*
X176887715Y-89421613D01*
X177008028Y-89587213D01*
X177152786Y-89731971D01*
X177272084Y-89818644D01*
X177318390Y-89852287D01*
X177434607Y-89911503D01*
X177500776Y-89945218D01*
X177500778Y-89945218D01*
X177500781Y-89945220D01*
X177605137Y-89979127D01*
X177695465Y-90008477D01*
X177796557Y-90024488D01*
X177897648Y-90040500D01*
X177897649Y-90040500D01*
X178102351Y-90040500D01*
X178102352Y-90040500D01*
X178304534Y-90008477D01*
X178499219Y-89945220D01*
X178681610Y-89852287D01*
X178804642Y-89762900D01*
X178847213Y-89731971D01*
X178847215Y-89731968D01*
X178847219Y-89731966D01*
X178991966Y-89587219D01*
X178991968Y-89587215D01*
X178991971Y-89587213D01*
X179052862Y-89503402D01*
X179112287Y-89421610D01*
X179205220Y-89239219D01*
X179268477Y-89044534D01*
X179300500Y-88842352D01*
X179300500Y-88637648D01*
X179268477Y-88435466D01*
X179205220Y-88240781D01*
X179205218Y-88240778D01*
X179205218Y-88240776D01*
X179163044Y-88158006D01*
X179112287Y-88058390D01*
X179038772Y-87957204D01*
X178991971Y-87892786D01*
X178847213Y-87748028D01*
X178681613Y-87627715D01*
X178681612Y-87627714D01*
X178681610Y-87627713D01*
X178624653Y-87598691D01*
X178499223Y-87534781D01*
X178304534Y-87471522D01*
X178129995Y-87443878D01*
X178102352Y-87439500D01*
X177897648Y-87439500D01*
X177873329Y-87443351D01*
X177695465Y-87471522D01*
X177500776Y-87534781D01*
X177318386Y-87627715D01*
X177152786Y-87748028D01*
X177008028Y-87892786D01*
X176887715Y-88058386D01*
X176794781Y-88240776D01*
X176731522Y-88435465D01*
X176699500Y-88637648D01*
X174043720Y-88637648D01*
X180479241Y-82202127D01*
X190582948Y-72098419D01*
X190582947Y-72098419D01*
X190582951Y-72098416D01*
X190665084Y-71975495D01*
X190721658Y-71838913D01*
X190739444Y-71749500D01*
X190750500Y-71693920D01*
X190750500Y-70975416D01*
X190770185Y-70908377D01*
X190801613Y-70875099D01*
X190847219Y-70841966D01*
X190991966Y-70697219D01*
X190991968Y-70697215D01*
X190991971Y-70697213D01*
X191091651Y-70560013D01*
X203200000Y-70560013D01*
X203200000Y-71410000D01*
X204399999Y-71410000D01*
X204374979Y-71470402D01*
X204350000Y-71595981D01*
X204350000Y-71724019D01*
X204374979Y-71849598D01*
X204399999Y-71910000D01*
X203200001Y-71910000D01*
X203200001Y-72759986D01*
X203210494Y-72862697D01*
X203265641Y-73029119D01*
X203265643Y-73029124D01*
X203357684Y-73178345D01*
X203481654Y-73302315D01*
X203630875Y-73394356D01*
X203630880Y-73394358D01*
X203797302Y-73449505D01*
X203797309Y-73449506D01*
X203900019Y-73459999D01*
X204749999Y-73459999D01*
X204750000Y-73459998D01*
X204750000Y-72260001D01*
X204810402Y-72285021D01*
X204935981Y-72310000D01*
X205064019Y-72310000D01*
X205189598Y-72285021D01*
X205250000Y-72260001D01*
X205250000Y-73459999D01*
X206099972Y-73459999D01*
X206099986Y-73459998D01*
X206202697Y-73449505D01*
X206369119Y-73394358D01*
X206369124Y-73394356D01*
X206518345Y-73302315D01*
X206642315Y-73178345D01*
X206734356Y-73029124D01*
X206734358Y-73029119D01*
X206789505Y-72862697D01*
X206789506Y-72862690D01*
X206799999Y-72759986D01*
X206800000Y-72759973D01*
X206800000Y-71910000D01*
X205600001Y-71910000D01*
X205625021Y-71849598D01*
X205650000Y-71724019D01*
X205650000Y-71595981D01*
X205625021Y-71470402D01*
X205600001Y-71410000D01*
X206799999Y-71410000D01*
X206799999Y-70560028D01*
X206799998Y-70560013D01*
X206789505Y-70457302D01*
X206734358Y-70290880D01*
X206734356Y-70290875D01*
X206642315Y-70141654D01*
X206518345Y-70017684D01*
X206369124Y-69925643D01*
X206369119Y-69925641D01*
X206202697Y-69870494D01*
X206202690Y-69870493D01*
X206099986Y-69860000D01*
X205250000Y-69860000D01*
X205250000Y-71059998D01*
X205189598Y-71034979D01*
X205064019Y-71010000D01*
X204935981Y-71010000D01*
X204810402Y-71034979D01*
X204750000Y-71059998D01*
X204750000Y-69860000D01*
X203900028Y-69860000D01*
X203900012Y-69860001D01*
X203797302Y-69870494D01*
X203630880Y-69925641D01*
X203630875Y-69925643D01*
X203481654Y-70017684D01*
X203357684Y-70141654D01*
X203265643Y-70290875D01*
X203265641Y-70290880D01*
X203210494Y-70457302D01*
X203210493Y-70457309D01*
X203200000Y-70560013D01*
X191091651Y-70560013D01*
X191112284Y-70531614D01*
X191112285Y-70531613D01*
X191112287Y-70531610D01*
X191205220Y-70349219D01*
X191268477Y-70154534D01*
X191300500Y-69952352D01*
X191300500Y-69747648D01*
X191298722Y-69736420D01*
X191268477Y-69545465D01*
X191231606Y-69431990D01*
X191205220Y-69350781D01*
X191205218Y-69350778D01*
X191205218Y-69350776D01*
X191147928Y-69238340D01*
X191112287Y-69168390D01*
X191096047Y-69146037D01*
X190991971Y-69002786D01*
X190847213Y-68858028D01*
X190681613Y-68737715D01*
X190681612Y-68737714D01*
X190681610Y-68737713D01*
X190624653Y-68708691D01*
X190499223Y-68644781D01*
X190304534Y-68581522D01*
X190129995Y-68553878D01*
X190102352Y-68549500D01*
X189897648Y-68549500D01*
X189873329Y-68553351D01*
X189695465Y-68581522D01*
X189500776Y-68644781D01*
X189318386Y-68737715D01*
X189152786Y-68858028D01*
X189008028Y-69002786D01*
X188887715Y-69168386D01*
X188794781Y-69350776D01*
X188731522Y-69545465D01*
X188699500Y-69747648D01*
X188699500Y-69952351D01*
X188731522Y-70154534D01*
X188794781Y-70349223D01*
X188838626Y-70435272D01*
X188863534Y-70484157D01*
X188887715Y-70531613D01*
X189008028Y-70697213D01*
X189008034Y-70697219D01*
X189152781Y-70841966D01*
X189198384Y-70875098D01*
X189241050Y-70930425D01*
X189249500Y-70975416D01*
X189249500Y-71257770D01*
X189229815Y-71324809D01*
X189213181Y-71345451D01*
X184252581Y-76306051D01*
X184191258Y-76339536D01*
X184121566Y-76334552D01*
X184065633Y-76292680D01*
X184041216Y-76227216D01*
X184040900Y-76218370D01*
X184040900Y-75448229D01*
X184012315Y-75267758D01*
X184012315Y-75267757D01*
X184012315Y-75267755D01*
X183955848Y-75093969D01*
X183872891Y-74931156D01*
X183765485Y-74783324D01*
X183636276Y-74654115D01*
X183488444Y-74546709D01*
X183352470Y-74477427D01*
X183325633Y-74463753D01*
X183325632Y-74463752D01*
X183325631Y-74463752D01*
X183151845Y-74407285D01*
X183151843Y-74407284D01*
X183151841Y-74407284D01*
X182971370Y-74378700D01*
X182971365Y-74378700D01*
X182788635Y-74378700D01*
X182788630Y-74378700D01*
X182608158Y-74407284D01*
X182434366Y-74463753D01*
X182271555Y-74546709D01*
X182123721Y-74654117D01*
X181994517Y-74783321D01*
X181887109Y-74931155D01*
X181804153Y-75093966D01*
X181747684Y-75267758D01*
X181732473Y-75363797D01*
X181702544Y-75426932D01*
X181643232Y-75463863D01*
X181573369Y-75462865D01*
X181515137Y-75424255D01*
X181487527Y-75363797D01*
X181472315Y-75267758D01*
X181472315Y-75267757D01*
X181472315Y-75267755D01*
X181415848Y-75093969D01*
X181332891Y-74931156D01*
X181225485Y-74783324D01*
X181096276Y-74654115D01*
X180948444Y-74546709D01*
X180812470Y-74477427D01*
X180785633Y-74463753D01*
X180785632Y-74463752D01*
X180785631Y-74463752D01*
X180611845Y-74407285D01*
X180611843Y-74407284D01*
X180611841Y-74407284D01*
X180431370Y-74378700D01*
X180431365Y-74378700D01*
X180248635Y-74378700D01*
X180248630Y-74378700D01*
X180068158Y-74407284D01*
X179894363Y-74463754D01*
X179842194Y-74490335D01*
X179773524Y-74503231D01*
X179708784Y-74476954D01*
X179668528Y-74419847D01*
X179661900Y-74379850D01*
X179661900Y-70400149D01*
X179681585Y-70333110D01*
X179734389Y-70287355D01*
X179803547Y-70277411D01*
X179842194Y-70289663D01*
X179894369Y-70316248D01*
X180068155Y-70372715D01*
X180122498Y-70381322D01*
X180248630Y-70401300D01*
X180248635Y-70401300D01*
X180431370Y-70401300D01*
X180531631Y-70385419D01*
X180611845Y-70372715D01*
X180785631Y-70316248D01*
X180948444Y-70233291D01*
X181096276Y-70125885D01*
X181225485Y-69996676D01*
X181332891Y-69848844D01*
X181415848Y-69686031D01*
X181472315Y-69512245D01*
X181481619Y-69453501D01*
X181487527Y-69416202D01*
X181517456Y-69353067D01*
X181576768Y-69316136D01*
X181646630Y-69317134D01*
X181704863Y-69355744D01*
X181732473Y-69416202D01*
X181744524Y-69492287D01*
X181747685Y-69512245D01*
X181804152Y-69686031D01*
X181887109Y-69848844D01*
X181994515Y-69996676D01*
X182123724Y-70125885D01*
X182271556Y-70233291D01*
X182434369Y-70316248D01*
X182608155Y-70372715D01*
X182662498Y-70381322D01*
X182788630Y-70401300D01*
X182788635Y-70401300D01*
X182971370Y-70401300D01*
X183071631Y-70385419D01*
X183151845Y-70372715D01*
X183325631Y-70316248D01*
X183488444Y-70233291D01*
X183636276Y-70125885D01*
X183765485Y-69996676D01*
X183872891Y-69848844D01*
X183955848Y-69686031D01*
X184012315Y-69512245D01*
X184032357Y-69385705D01*
X184040900Y-69331770D01*
X184040900Y-67828229D01*
X184012315Y-67647758D01*
X184012315Y-67647755D01*
X183955848Y-67473969D01*
X183872891Y-67311156D01*
X183765485Y-67163324D01*
X183636276Y-67034115D01*
X183488444Y-66926709D01*
X183353147Y-66857771D01*
X183302351Y-66809796D01*
X183285556Y-66741975D01*
X183308094Y-66675840D01*
X183321755Y-66659611D01*
X187694549Y-62286819D01*
X187755872Y-62253334D01*
X187782230Y-62250500D01*
X203282672Y-62250500D01*
X203349711Y-62270185D01*
X203390059Y-62312500D01*
X203422547Y-62368771D01*
X203499727Y-62502450D01*
X203499729Y-62502453D01*
X203499730Y-62502454D01*
X203643406Y-62689697D01*
X203643412Y-62689704D01*
X203810295Y-62856587D01*
X203810302Y-62856593D01*
X203889588Y-62917431D01*
X203997550Y-63000273D01*
X204083280Y-63049769D01*
X204201943Y-63118280D01*
X204201948Y-63118282D01*
X204201951Y-63118284D01*
X204420007Y-63208606D01*
X204647986Y-63269693D01*
X204881989Y-63300500D01*
X204881996Y-63300500D01*
X205118004Y-63300500D01*
X205118011Y-63300500D01*
X205352014Y-63269693D01*
X205579993Y-63208606D01*
X205798049Y-63118284D01*
X206002450Y-63000273D01*
X206189699Y-62856592D01*
X206356592Y-62689699D01*
X206500273Y-62502450D01*
X206618284Y-62298049D01*
X206708606Y-62079993D01*
X206769693Y-61852014D01*
X206800500Y-61618011D01*
X206800500Y-61381989D01*
X206769693Y-61147986D01*
X206708606Y-60920007D01*
X206618284Y-60701951D01*
X206618282Y-60701948D01*
X206618280Y-60701943D01*
X206510972Y-60516082D01*
X206500273Y-60497550D01*
X206356592Y-60310301D01*
X206356587Y-60310295D01*
X206189704Y-60143412D01*
X206189697Y-60143406D01*
X206002454Y-59999730D01*
X206002453Y-59999729D01*
X206002450Y-59999727D01*
X205920957Y-59952677D01*
X205798056Y-59881719D01*
X205798045Y-59881714D01*
X205579993Y-59791394D01*
X205352010Y-59730306D01*
X205118020Y-59699501D01*
X205118017Y-59699500D01*
X205118011Y-59699500D01*
X204881989Y-59699500D01*
X204881983Y-59699500D01*
X204881979Y-59699501D01*
X204647989Y-59730306D01*
X204420006Y-59791394D01*
X204201954Y-59881714D01*
X204201943Y-59881719D01*
X203997545Y-59999730D01*
X203810302Y-60143406D01*
X203810295Y-60143412D01*
X203643412Y-60310295D01*
X203643406Y-60310302D01*
X203499730Y-60497545D01*
X203390059Y-60687500D01*
X203339492Y-60735716D01*
X203282672Y-60749500D01*
X187346080Y-60749500D01*
X187201092Y-60778340D01*
X187201086Y-60778342D01*
X187064508Y-60834914D01*
X187064496Y-60834921D01*
X187015269Y-60867813D01*
X186941588Y-60917044D01*
X186941580Y-60917050D01*
X181001203Y-66857427D01*
X180939880Y-66890912D01*
X180870188Y-66885928D01*
X180857228Y-66880231D01*
X180785636Y-66843754D01*
X180785633Y-66843753D01*
X180785631Y-66843752D01*
X180611845Y-66787285D01*
X180611843Y-66787284D01*
X180611841Y-66787284D01*
X180431370Y-66758700D01*
X180431365Y-66758700D01*
X180248635Y-66758700D01*
X180248630Y-66758700D01*
X180068158Y-66787284D01*
X179894363Y-66843754D01*
X179842194Y-66870335D01*
X179839489Y-66870842D01*
X179837411Y-66872644D01*
X179805355Y-66877253D01*
X179773524Y-66883231D01*
X179770975Y-66882196D01*
X179768253Y-66882588D01*
X179738795Y-66869135D01*
X179708784Y-66856954D01*
X179707199Y-66854705D01*
X179704697Y-66853563D01*
X179687186Y-66826315D01*
X179668528Y-66799847D01*
X179667955Y-66796391D01*
X179666923Y-66794785D01*
X179661900Y-66759850D01*
X179661900Y-66519386D01*
X179681585Y-66452347D01*
X179698219Y-66431705D01*
X192537819Y-53592105D01*
X192599142Y-53558620D01*
X192668834Y-53563604D01*
X192724767Y-53605476D01*
X192749184Y-53670940D01*
X192749500Y-53679786D01*
X192749500Y-56590128D01*
X192729815Y-56657167D01*
X192681797Y-56700612D01*
X192661151Y-56711131D01*
X192457350Y-56859201D01*
X192457345Y-56859205D01*
X192279205Y-57037345D01*
X192279201Y-57037350D01*
X192131132Y-57241151D01*
X192016760Y-57465616D01*
X191938910Y-57705214D01*
X191930399Y-57758949D01*
X191899500Y-57954038D01*
X191899500Y-58205962D01*
X191920988Y-58341629D01*
X191938910Y-58454785D01*
X192016760Y-58694383D01*
X192075273Y-58809219D01*
X192120723Y-58898421D01*
X192131132Y-58918848D01*
X192279201Y-59122649D01*
X192279205Y-59122654D01*
X192457345Y-59300794D01*
X192457350Y-59300798D01*
X192635117Y-59429952D01*
X192661155Y-59448870D01*
X192804184Y-59521747D01*
X192885616Y-59563239D01*
X192885618Y-59563239D01*
X192885621Y-59563241D01*
X193125215Y-59641090D01*
X193374038Y-59680500D01*
X193374039Y-59680500D01*
X193625961Y-59680500D01*
X193625962Y-59680500D01*
X193874785Y-59641090D01*
X194114379Y-59563241D01*
X194338845Y-59448870D01*
X194542656Y-59300793D01*
X194720793Y-59122656D01*
X194868870Y-58918845D01*
X194983241Y-58694379D01*
X195061090Y-58454785D01*
X195100500Y-58205962D01*
X195100500Y-57954038D01*
X195061090Y-57705215D01*
X194983241Y-57465621D01*
X194983239Y-57465618D01*
X194983239Y-57465616D01*
X194910112Y-57322097D01*
X194868870Y-57241155D01*
X194772312Y-57108254D01*
X194720798Y-57037350D01*
X194720794Y-57037345D01*
X194542654Y-56859205D01*
X194542649Y-56859201D01*
X194338848Y-56711131D01*
X194318203Y-56700612D01*
X194267408Y-56652637D01*
X194250500Y-56590128D01*
X194250500Y-53242229D01*
X194270185Y-53175190D01*
X194286819Y-53154548D01*
X198394548Y-49046819D01*
X198455871Y-49013334D01*
X198482229Y-49010500D01*
X209187770Y-49010500D01*
X209254809Y-49030185D01*
X209275451Y-49046819D01*
X211303181Y-51074548D01*
X211336666Y-51135871D01*
X211339500Y-51162229D01*
X211339500Y-65677770D01*
X211330855Y-65707210D01*
X211324332Y-65737197D01*
X211320577Y-65742212D01*
X211319815Y-65744809D01*
X211303181Y-65765451D01*
X211275451Y-65793181D01*
X211214128Y-65826666D01*
X211187770Y-65829500D01*
X206717328Y-65829500D01*
X206650289Y-65809815D01*
X206609941Y-65767500D01*
X206572382Y-65702447D01*
X206500273Y-65577550D01*
X206356592Y-65390301D01*
X206356587Y-65390295D01*
X206189704Y-65223412D01*
X206189697Y-65223406D01*
X206002454Y-65079730D01*
X206002453Y-65079729D01*
X206002450Y-65079727D01*
X205920957Y-65032677D01*
X205798056Y-64961719D01*
X205798045Y-64961714D01*
X205579993Y-64871394D01*
X205352010Y-64810306D01*
X205118020Y-64779501D01*
X205118017Y-64779500D01*
X205118011Y-64779500D01*
X204881989Y-64779500D01*
X204881983Y-64779500D01*
X204881979Y-64779501D01*
X204647989Y-64810306D01*
X204420006Y-64871394D01*
X204201954Y-64961714D01*
X204201943Y-64961719D01*
X203997545Y-65079730D01*
X203810302Y-65223406D01*
X203810295Y-65223412D01*
X203643412Y-65390295D01*
X203643406Y-65390302D01*
X203499730Y-65577545D01*
X203381719Y-65781943D01*
X203381714Y-65781954D01*
X203291394Y-66000006D01*
X203230306Y-66227989D01*
X203199501Y-66461979D01*
X203199500Y-66461995D01*
X203199500Y-66698004D01*
X203199501Y-66698020D01*
X203229608Y-66926709D01*
X203230307Y-66932014D01*
X203236334Y-66954508D01*
X203291394Y-67159993D01*
X203381714Y-67378045D01*
X203381719Y-67378056D01*
X203437095Y-67473969D01*
X203499727Y-67582450D01*
X203499729Y-67582453D01*
X203499730Y-67582454D01*
X203643406Y-67769697D01*
X203643412Y-67769704D01*
X203810295Y-67936587D01*
X203810301Y-67936592D01*
X203997550Y-68080273D01*
X204103020Y-68141166D01*
X204201943Y-68198280D01*
X204201948Y-68198282D01*
X204201951Y-68198284D01*
X204420007Y-68288606D01*
X204647986Y-68349693D01*
X204881989Y-68380500D01*
X204881996Y-68380500D01*
X205118004Y-68380500D01*
X205118011Y-68380500D01*
X205352014Y-68349693D01*
X205579993Y-68288606D01*
X205798049Y-68198284D01*
X206002450Y-68080273D01*
X206189699Y-67936592D01*
X206356592Y-67769699D01*
X206500273Y-67582450D01*
X206609941Y-67392500D01*
X206660508Y-67344284D01*
X206717328Y-67330500D01*
X211623920Y-67330500D01*
X211721462Y-67311096D01*
X211768913Y-67301658D01*
X211905495Y-67245084D01*
X211954729Y-67212186D01*
X212028416Y-67162952D01*
X212672951Y-66518416D01*
X212755084Y-66395495D01*
X212765089Y-66371342D01*
X212811656Y-66258917D01*
X212811658Y-66258913D01*
X212840500Y-66113918D01*
X212840500Y-65966083D01*
X212840500Y-50726082D01*
X212840500Y-50726079D01*
X212811659Y-50581092D01*
X212811658Y-50581091D01*
X212811658Y-50581087D01*
X212811656Y-50581082D01*
X212755087Y-50444511D01*
X212755080Y-50444498D01*
X212672952Y-50321585D01*
X212672951Y-50321584D01*
X212568416Y-50217049D01*
X211943467Y-49592100D01*
X210028421Y-47677052D01*
X210028414Y-47677046D01*
X209954729Y-47627812D01*
X209954729Y-47627813D01*
X209905491Y-47594913D01*
X209768917Y-47538343D01*
X209768907Y-47538340D01*
X209623920Y-47509500D01*
X209623918Y-47509500D01*
X198046082Y-47509500D01*
X198029824Y-47512734D01*
X198029823Y-47512734D01*
X197901095Y-47538339D01*
X197901087Y-47538341D01*
X197837923Y-47564505D01*
X197764509Y-47594914D01*
X197764501Y-47594918D01*
X197682372Y-47649795D01*
X197641585Y-47677047D01*
X197641581Y-47677050D01*
X196013181Y-49305451D01*
X195951858Y-49338936D01*
X195882166Y-49333952D01*
X195826233Y-49292080D01*
X195801816Y-49226616D01*
X195801500Y-49217770D01*
X195801500Y-46295079D01*
X195772659Y-46150092D01*
X195772658Y-46150091D01*
X195772658Y-46150087D01*
X195761322Y-46122719D01*
X195716087Y-46013511D01*
X195716080Y-46013498D01*
X195633951Y-45890584D01*
X195633948Y-45890580D01*
X195529419Y-45786051D01*
X195529415Y-45786048D01*
X195406501Y-45703919D01*
X195406488Y-45703912D01*
X195269917Y-45647343D01*
X195269907Y-45647340D01*
X195124920Y-45618500D01*
X195124918Y-45618500D01*
X169457082Y-45618500D01*
X169457080Y-45618500D01*
X169312092Y-45647340D01*
X169312086Y-45647342D01*
X169175508Y-45703914D01*
X169175496Y-45703921D01*
X169126269Y-45736813D01*
X169052588Y-45786044D01*
X169052580Y-45786050D01*
X167666050Y-47172581D01*
X167666047Y-47172584D01*
X167634183Y-47220272D01*
X167634184Y-47220273D01*
X167583913Y-47295508D01*
X167527343Y-47432082D01*
X167527340Y-47432092D01*
X167498500Y-47577079D01*
X167498500Y-47577082D01*
X167498500Y-49592100D01*
X167498500Y-49592102D01*
X167498499Y-49592102D01*
X167527340Y-49737089D01*
X167527343Y-49737099D01*
X167583914Y-49873674D01*
X167616812Y-49922909D01*
X167616813Y-49922912D01*
X167666046Y-49996596D01*
X167666052Y-49996603D01*
X169964181Y-52294730D01*
X169997666Y-52356053D01*
X170000500Y-52382411D01*
X170000500Y-55244524D01*
X169980815Y-55311563D01*
X169928011Y-55357318D01*
X169858853Y-55367262D01*
X169838183Y-55362455D01*
X169804542Y-55351524D01*
X169804535Y-55351523D01*
X169703443Y-55335511D01*
X169602352Y-55319500D01*
X169397648Y-55319500D01*
X169373329Y-55323351D01*
X169195465Y-55351522D01*
X169000776Y-55414781D01*
X168818386Y-55507715D01*
X168652786Y-55628028D01*
X168508028Y-55772786D01*
X168387715Y-55938386D01*
X168294779Y-56120780D01*
X168294778Y-56120783D01*
X168280796Y-56163818D01*
X168241358Y-56221494D01*
X168177000Y-56248692D01*
X168162865Y-56249500D01*
X160218122Y-56249500D01*
X160151083Y-56229815D01*
X160117804Y-56198386D01*
X160049172Y-56103922D01*
X159896078Y-55950828D01*
X159720919Y-55823567D01*
X159528009Y-55725273D01*
X159528006Y-55725272D01*
X159322098Y-55658370D01*
X159130566Y-55628034D01*
X159108254Y-55624500D01*
X158891746Y-55624500D01*
X158869434Y-55628034D01*
X158677901Y-55658370D01*
X158471993Y-55725272D01*
X158471990Y-55725273D01*
X158279080Y-55823567D01*
X158179145Y-55896174D01*
X158103922Y-55950828D01*
X158103920Y-55950830D01*
X158103919Y-55950830D01*
X157950830Y-56103919D01*
X157950830Y-56103920D01*
X157950828Y-56103922D01*
X157938578Y-56120783D01*
X157823567Y-56279080D01*
X157725273Y-56471990D01*
X157725272Y-56471993D01*
X157658370Y-56677901D01*
X157658370Y-56677903D01*
X157624500Y-56891746D01*
X157624500Y-57108254D01*
X157640948Y-57212099D01*
X157658370Y-57322098D01*
X157725272Y-57528006D01*
X157725273Y-57528009D01*
X157783474Y-57642233D01*
X157823567Y-57720919D01*
X157950828Y-57896078D01*
X158103922Y-58049172D01*
X158279081Y-58176433D01*
X158322135Y-58198370D01*
X158471990Y-58274726D01*
X158471993Y-58274727D01*
X158574947Y-58308178D01*
X158677903Y-58341630D01*
X158891746Y-58375500D01*
X158891747Y-58375500D01*
X159108253Y-58375500D01*
X159108254Y-58375500D01*
X159322097Y-58341630D01*
X159528009Y-58274726D01*
X159720919Y-58176433D01*
X159896078Y-58049172D01*
X160049172Y-57896078D01*
X160117804Y-57801613D01*
X160173134Y-57758949D01*
X160218122Y-57750500D01*
X168777951Y-57750500D01*
X168844990Y-57770185D01*
X168890745Y-57822989D01*
X168900689Y-57892147D01*
X168871664Y-57955703D01*
X168865632Y-57962181D01*
X168074633Y-58753181D01*
X168013310Y-58786666D01*
X167986952Y-58789500D01*
X162758122Y-58789500D01*
X162691083Y-58769815D01*
X162657804Y-58738386D01*
X162589172Y-58643922D01*
X162436078Y-58490828D01*
X162260919Y-58363567D01*
X162068009Y-58265273D01*
X162068006Y-58265272D01*
X161862098Y-58198370D01*
X161755175Y-58181435D01*
X161648254Y-58164500D01*
X161431746Y-58164500D01*
X161360465Y-58175790D01*
X161217901Y-58198370D01*
X161011993Y-58265272D01*
X161011990Y-58265273D01*
X160819080Y-58363567D01*
X160751936Y-58412351D01*
X160643922Y-58490828D01*
X160643920Y-58490830D01*
X160643919Y-58490830D01*
X160490830Y-58643919D01*
X160490830Y-58643920D01*
X160490828Y-58643922D01*
X160454169Y-58694379D01*
X160363567Y-58819080D01*
X160265273Y-59011990D01*
X160265272Y-59011993D01*
X160198370Y-59217901D01*
X160164500Y-59431746D01*
X160164500Y-59648253D01*
X160198370Y-59862098D01*
X160265272Y-60068006D01*
X160265273Y-60068009D01*
X160350105Y-60234498D01*
X160363567Y-60260919D01*
X160490828Y-60436078D01*
X160643922Y-60589172D01*
X160819081Y-60716433D01*
X160913697Y-60764642D01*
X161011990Y-60814726D01*
X161011993Y-60814727D01*
X161093661Y-60841262D01*
X161217903Y-60881630D01*
X161431746Y-60915500D01*
X161431747Y-60915500D01*
X161648253Y-60915500D01*
X161648254Y-60915500D01*
X161862097Y-60881630D01*
X162068009Y-60814726D01*
X162260919Y-60716433D01*
X162436078Y-60589172D01*
X162589172Y-60436078D01*
X162657804Y-60341613D01*
X162713134Y-60298949D01*
X162758122Y-60290500D01*
X168423102Y-60290500D01*
X168520644Y-60271096D01*
X168568095Y-60261658D01*
X168704677Y-60205084D01*
X168753911Y-60172186D01*
X168827598Y-60122952D01*
X171333952Y-57616597D01*
X171361205Y-57575809D01*
X171416084Y-57493677D01*
X171450951Y-57409500D01*
X171472659Y-57357094D01*
X171501500Y-57212099D01*
X171501500Y-57064264D01*
X171501500Y-51946264D01*
X171501500Y-51946261D01*
X171472659Y-51801274D01*
X171472658Y-51801273D01*
X171472658Y-51801269D01*
X171472656Y-51801264D01*
X171416087Y-51664693D01*
X171416080Y-51664680D01*
X171333952Y-51541767D01*
X171282092Y-51489907D01*
X171229416Y-51437231D01*
X170118327Y-50326141D01*
X170084843Y-50264820D01*
X170089827Y-50195128D01*
X170131699Y-50139195D01*
X170149718Y-50127975D01*
X170181350Y-50111859D01*
X170346894Y-49991582D01*
X170346895Y-49991582D01*
X170491582Y-49846895D01*
X170491582Y-49846894D01*
X170611859Y-49681349D01*
X170704755Y-49499029D01*
X170767990Y-49304413D01*
X170776609Y-49250000D01*
X169815686Y-49250000D01*
X169820080Y-49245606D01*
X169872741Y-49154394D01*
X169900000Y-49052661D01*
X169900000Y-48947339D01*
X169872741Y-48845606D01*
X169820080Y-48754394D01*
X169815686Y-48750000D01*
X170776609Y-48750000D01*
X170767990Y-48695586D01*
X170704755Y-48500970D01*
X170611859Y-48318650D01*
X170491582Y-48153105D01*
X170491582Y-48153104D01*
X170346895Y-48008417D01*
X170181349Y-47888140D01*
X169999029Y-47795244D01*
X169804413Y-47732009D01*
X169750000Y-47723390D01*
X169750000Y-48684314D01*
X169745606Y-48679920D01*
X169654394Y-48627259D01*
X169552661Y-48600000D01*
X169447339Y-48600000D01*
X169345606Y-48627259D01*
X169254394Y-48679920D01*
X169250000Y-48684314D01*
X169250000Y-47762729D01*
X169258644Y-47733288D01*
X169265168Y-47703302D01*
X169268922Y-47698286D01*
X169269685Y-47695690D01*
X169286314Y-47675053D01*
X169805549Y-47155819D01*
X169866872Y-47122334D01*
X169893230Y-47119500D01*
X183520111Y-47119500D01*
X183587150Y-47139185D01*
X183632905Y-47191989D01*
X183642849Y-47261147D01*
X183613824Y-47324703D01*
X183605731Y-47332581D01*
X183605891Y-47332741D01*
X179975449Y-50963181D01*
X179914126Y-50996666D01*
X179887768Y-50999500D01*
X178452129Y-50999500D01*
X178452123Y-50999501D01*
X178392516Y-51005908D01*
X178257671Y-51056202D01*
X178257664Y-51056206D01*
X178142455Y-51142452D01*
X178142452Y-51142455D01*
X178056206Y-51257664D01*
X178056202Y-51257671D01*
X178005908Y-51392517D01*
X177999501Y-51452116D01*
X177999500Y-51452135D01*
X177999500Y-53547870D01*
X177999501Y-53547876D01*
X178005908Y-53607483D01*
X178056202Y-53742328D01*
X178056206Y-53742335D01*
X178142452Y-53857544D01*
X178142455Y-53857547D01*
X178257664Y-53943793D01*
X178257671Y-53943797D01*
X178392517Y-53994091D01*
X178392516Y-53994091D01*
X178399444Y-53994835D01*
X178452127Y-54000500D01*
X180547872Y-54000499D01*
X180607483Y-53994091D01*
X180742331Y-53943796D01*
X180857546Y-53857546D01*
X180943796Y-53742331D01*
X180994091Y-53607483D01*
X181000500Y-53547873D01*
X181000499Y-52112228D01*
X181020184Y-52045190D01*
X181036813Y-52024553D01*
X181584832Y-51476534D01*
X181646153Y-51443051D01*
X181715845Y-51448035D01*
X181771778Y-51489907D01*
X181796195Y-51555371D01*
X181781343Y-51623644D01*
X181772830Y-51637102D01*
X181717084Y-51713829D01*
X181609897Y-51924197D01*
X181536934Y-52148752D01*
X181500000Y-52381947D01*
X181500000Y-52618052D01*
X181536934Y-52851247D01*
X181609897Y-53075802D01*
X181717087Y-53286174D01*
X181777338Y-53369104D01*
X181777340Y-53369105D01*
X182517037Y-52629408D01*
X182534075Y-52692993D01*
X182599901Y-52807007D01*
X182692993Y-52900099D01*
X182807007Y-52965925D01*
X182870590Y-52982962D01*
X182130893Y-53722658D01*
X182213828Y-53782914D01*
X182424197Y-53890102D01*
X182648752Y-53963065D01*
X182648751Y-53963065D01*
X182881948Y-54000000D01*
X183118052Y-54000000D01*
X183351247Y-53963065D01*
X183575802Y-53890102D01*
X183786163Y-53782918D01*
X183786169Y-53782914D01*
X183869104Y-53722658D01*
X183869105Y-53722658D01*
X183129408Y-52982962D01*
X183192993Y-52965925D01*
X183307007Y-52900099D01*
X183400099Y-52807007D01*
X183465925Y-52692993D01*
X183482962Y-52629408D01*
X184222658Y-53369105D01*
X184222658Y-53369104D01*
X184282914Y-53286169D01*
X184282918Y-53286163D01*
X184390102Y-53075802D01*
X184463065Y-52851247D01*
X184500000Y-52618052D01*
X184500000Y-52381947D01*
X184463065Y-52148752D01*
X184390102Y-51924197D01*
X184282914Y-51713828D01*
X184222658Y-51630894D01*
X184222658Y-51630893D01*
X183482962Y-52370590D01*
X183465925Y-52307007D01*
X183400099Y-52192993D01*
X183307007Y-52099901D01*
X183192993Y-52034075D01*
X183129408Y-52017037D01*
X183869105Y-51277340D01*
X183869104Y-51277338D01*
X183786174Y-51217087D01*
X183575802Y-51109897D01*
X183351247Y-51036934D01*
X183351248Y-51036934D01*
X183118052Y-51000000D01*
X182881948Y-51000000D01*
X182648752Y-51036934D01*
X182424197Y-51109897D01*
X182213829Y-51217084D01*
X182137102Y-51272830D01*
X182071295Y-51296309D01*
X182003241Y-51280483D01*
X181954547Y-51230377D01*
X181940672Y-51161899D01*
X181966022Y-51096790D01*
X181976528Y-51084838D01*
X184354548Y-48706819D01*
X184415871Y-48673334D01*
X184442229Y-48670500D01*
X191775501Y-48670500D01*
X191842540Y-48690185D01*
X191888295Y-48742989D01*
X191899501Y-48794500D01*
X191899501Y-49067876D01*
X191905908Y-49127483D01*
X191956202Y-49262328D01*
X191956206Y-49262335D01*
X192042452Y-49377544D01*
X192042455Y-49377547D01*
X192157664Y-49463793D01*
X192157671Y-49463797D01*
X192292517Y-49514091D01*
X192292516Y-49514091D01*
X192299444Y-49514835D01*
X192352127Y-49520500D01*
X194176500Y-49520499D01*
X194185185Y-49523049D01*
X194194147Y-49521761D01*
X194218187Y-49532739D01*
X194243539Y-49540184D01*
X194249466Y-49547024D01*
X194257703Y-49550786D01*
X194271990Y-49573018D01*
X194289294Y-49592987D01*
X194291581Y-49603502D01*
X194295477Y-49609564D01*
X194300500Y-49644499D01*
X194300500Y-49655326D01*
X194280815Y-49722365D01*
X194264181Y-49743007D01*
X181010001Y-62997186D01*
X180948678Y-63030671D01*
X180878986Y-63025687D01*
X180823053Y-62983815D01*
X180811835Y-62965799D01*
X180736861Y-62818652D01*
X180704474Y-62774077D01*
X180704474Y-62774076D01*
X180025000Y-63453553D01*
X180025000Y-63447339D01*
X179997741Y-63345606D01*
X179945080Y-63254394D01*
X179870606Y-63179920D01*
X179779394Y-63127259D01*
X179677661Y-63100000D01*
X179671446Y-63100000D01*
X180350922Y-62420524D01*
X180350921Y-62420523D01*
X180306359Y-62388147D01*
X180306350Y-62388141D01*
X180124031Y-62295244D01*
X179929417Y-62232009D01*
X179727317Y-62200000D01*
X179522683Y-62200000D01*
X179320582Y-62232009D01*
X179125968Y-62295244D01*
X178943644Y-62388143D01*
X178899077Y-62420523D01*
X178899077Y-62420524D01*
X179578554Y-63100000D01*
X179572339Y-63100000D01*
X179470606Y-63127259D01*
X179379394Y-63179920D01*
X179304920Y-63254394D01*
X179252259Y-63345606D01*
X179225000Y-63447339D01*
X179225000Y-63453553D01*
X178545524Y-62774077D01*
X178545523Y-62774077D01*
X178513143Y-62818644D01*
X178485765Y-62872378D01*
X178437790Y-62923174D01*
X178369969Y-62939969D01*
X178303834Y-62917431D01*
X178264795Y-62872378D01*
X178237284Y-62818385D01*
X178116971Y-62652786D01*
X177972213Y-62508028D01*
X177806613Y-62387715D01*
X177806612Y-62387714D01*
X177806610Y-62387713D01*
X177748111Y-62357906D01*
X177624223Y-62294781D01*
X177429534Y-62231522D01*
X177243799Y-62202105D01*
X177227352Y-62199500D01*
X177022648Y-62199500D01*
X177006201Y-62202105D01*
X176820465Y-62231522D01*
X176625776Y-62294781D01*
X176443386Y-62387715D01*
X176277786Y-62508028D01*
X176133032Y-62652782D01*
X176133028Y-62652787D01*
X176099900Y-62698385D01*
X176044571Y-62741051D01*
X175999582Y-62749500D01*
X167566076Y-62749500D01*
X167537242Y-62755234D01*
X167537243Y-62755235D01*
X167421092Y-62778339D01*
X167421086Y-62778341D01*
X167366580Y-62800919D01*
X167284506Y-62834915D01*
X167202372Y-62889795D01*
X167161585Y-62917047D01*
X167161581Y-62917050D01*
X163247052Y-66831578D01*
X163247049Y-66831581D01*
X163215489Y-66878814D01*
X163215490Y-66878815D01*
X163164913Y-66954508D01*
X163108343Y-67091082D01*
X163108340Y-67091092D01*
X163079500Y-67236079D01*
X163079500Y-75837770D01*
X163059815Y-75904809D01*
X163043181Y-75925451D01*
X159586047Y-79382584D01*
X159586045Y-79382586D01*
X159550305Y-79436079D01*
X159550303Y-79436082D01*
X159503919Y-79505499D01*
X159503912Y-79505511D01*
X159447343Y-79642082D01*
X159447340Y-79642092D01*
X159418500Y-79787079D01*
X159418500Y-82547951D01*
X159398815Y-82614990D01*
X159382181Y-82635632D01*
X154326514Y-87691298D01*
X154265191Y-87724783D01*
X154195499Y-87719799D01*
X154139566Y-87677927D01*
X154128348Y-87659912D01*
X154112284Y-87628385D01*
X153991971Y-87462786D01*
X153847213Y-87318028D01*
X153681613Y-87197715D01*
X153681612Y-87197714D01*
X153681610Y-87197713D01*
X153624653Y-87168691D01*
X153499223Y-87104781D01*
X153304534Y-87041522D01*
X153129995Y-87013878D01*
X153102352Y-87009500D01*
X152897648Y-87009500D01*
X152841971Y-87018318D01*
X152772678Y-87009363D01*
X152734893Y-86983526D01*
X152535819Y-86784451D01*
X152502334Y-86723128D01*
X152499500Y-86696770D01*
X152499500Y-82064950D01*
X152519185Y-81997911D01*
X152571989Y-81952156D01*
X152641147Y-81942212D01*
X152661819Y-81947019D01*
X152695578Y-81957988D01*
X152750000Y-81966607D01*
X152750000Y-81005686D01*
X152754394Y-81010080D01*
X152845606Y-81062741D01*
X152947339Y-81090000D01*
X153052661Y-81090000D01*
X153154394Y-81062741D01*
X153245606Y-81010080D01*
X153250000Y-81005686D01*
X153250000Y-81966606D01*
X153304421Y-81957988D01*
X153499031Y-81894754D01*
X153681349Y-81801859D01*
X153846894Y-81681582D01*
X153846895Y-81681582D01*
X153991582Y-81536895D01*
X153991582Y-81536894D01*
X154111859Y-81371349D01*
X154204755Y-81189029D01*
X154267990Y-80994413D01*
X154276609Y-80940000D01*
X153315686Y-80940000D01*
X153320080Y-80935606D01*
X153372741Y-80844394D01*
X153400000Y-80742661D01*
X153400000Y-80637339D01*
X153372741Y-80535606D01*
X153320080Y-80444394D01*
X153315686Y-80440000D01*
X154276609Y-80440000D01*
X154267990Y-80385586D01*
X154204755Y-80190970D01*
X154111859Y-80008650D01*
X153991582Y-79843105D01*
X153991582Y-79843104D01*
X153846895Y-79698417D01*
X153681349Y-79578140D01*
X153499029Y-79485244D01*
X153304413Y-79422009D01*
X153250000Y-79413390D01*
X153250000Y-80374314D01*
X153245606Y-80369920D01*
X153154394Y-80317259D01*
X153052661Y-80290000D01*
X152947339Y-80290000D01*
X152845606Y-80317259D01*
X152754394Y-80369920D01*
X152750000Y-80374314D01*
X152750000Y-79413390D01*
X152695586Y-79422009D01*
X152695581Y-79422010D01*
X152661817Y-79432981D01*
X152591976Y-79434976D01*
X152532144Y-79398895D01*
X152501316Y-79336194D01*
X152499500Y-79315050D01*
X152499500Y-75897648D01*
X158199500Y-75897648D01*
X158199500Y-76102351D01*
X158231522Y-76304534D01*
X158294781Y-76499223D01*
X158387715Y-76681613D01*
X158508028Y-76847213D01*
X158652786Y-76991971D01*
X158807749Y-77104556D01*
X158818390Y-77112287D01*
X158922758Y-77165465D01*
X159000776Y-77205218D01*
X159000778Y-77205218D01*
X159000781Y-77205220D01*
X159079505Y-77230799D01*
X159195465Y-77268477D01*
X159296557Y-77284488D01*
X159397648Y-77300500D01*
X159397649Y-77300500D01*
X159602351Y-77300500D01*
X159602352Y-77300500D01*
X159804534Y-77268477D01*
X159999219Y-77205220D01*
X160181610Y-77112287D01*
X160288531Y-77034605D01*
X160347213Y-76991971D01*
X160347215Y-76991968D01*
X160347219Y-76991966D01*
X160491966Y-76847219D01*
X160491968Y-76847215D01*
X160491971Y-76847213D01*
X160544732Y-76774590D01*
X160612287Y-76681610D01*
X160705220Y-76499219D01*
X160768477Y-76304534D01*
X160800500Y-76102352D01*
X160800500Y-75897648D01*
X160768477Y-75695466D01*
X160705220Y-75500781D01*
X160705218Y-75500778D01*
X160705218Y-75500776D01*
X160666228Y-75424255D01*
X160612287Y-75318390D01*
X160604556Y-75307749D01*
X160491971Y-75152786D01*
X160347213Y-75008028D01*
X160181613Y-74887715D01*
X160181612Y-74887714D01*
X160181610Y-74887713D01*
X160124653Y-74858691D01*
X159999223Y-74794781D01*
X159804534Y-74731522D01*
X159629995Y-74703878D01*
X159602352Y-74699500D01*
X159397648Y-74699500D01*
X159373329Y-74703351D01*
X159195465Y-74731522D01*
X159000776Y-74794781D01*
X158818386Y-74887715D01*
X158652786Y-75008028D01*
X158508028Y-75152786D01*
X158387715Y-75318386D01*
X158294781Y-75500776D01*
X158231522Y-75695465D01*
X158199500Y-75897648D01*
X152499500Y-75897648D01*
X152499500Y-74379831D01*
X152470659Y-74234844D01*
X152470658Y-74234843D01*
X152470658Y-74234839D01*
X152414084Y-74098257D01*
X152381186Y-74049022D01*
X152381185Y-74049020D01*
X152331956Y-73975341D01*
X152331952Y-73975336D01*
X149791060Y-71434443D01*
X149757575Y-71373120D01*
X149762559Y-71303428D01*
X149804431Y-71247495D01*
X149869895Y-71223078D01*
X149926762Y-71234612D01*
X149927488Y-71232861D01*
X149931993Y-71234727D01*
X149971290Y-71247495D01*
X150137903Y-71301630D01*
X150351746Y-71335500D01*
X150351747Y-71335500D01*
X150568253Y-71335500D01*
X150568254Y-71335500D01*
X150782097Y-71301630D01*
X150988009Y-71234726D01*
X151180919Y-71136433D01*
X151356078Y-71009172D01*
X151509172Y-70856078D01*
X151636433Y-70680919D01*
X151734726Y-70488009D01*
X151801630Y-70282097D01*
X151835500Y-70068254D01*
X151835500Y-69851746D01*
X151801630Y-69637903D01*
X151760802Y-69512245D01*
X151734727Y-69431993D01*
X151734726Y-69431990D01*
X151676203Y-69317134D01*
X151636433Y-69239081D01*
X151509172Y-69063922D01*
X151356078Y-68910828D01*
X151180919Y-68783567D01*
X150988009Y-68685273D01*
X150988006Y-68685272D01*
X150782098Y-68618370D01*
X150627034Y-68593810D01*
X150568254Y-68584500D01*
X150351746Y-68584500D01*
X150351741Y-68584500D01*
X150236420Y-68602765D01*
X150167126Y-68593810D01*
X150129341Y-68567973D01*
X149921825Y-68360457D01*
X149839016Y-68277648D01*
X158199500Y-68277648D01*
X158199500Y-68482351D01*
X158231522Y-68684534D01*
X158294781Y-68879223D01*
X158387715Y-69061613D01*
X158508028Y-69227213D01*
X158652786Y-69371971D01*
X158807749Y-69484556D01*
X158818390Y-69492287D01*
X158922758Y-69545465D01*
X159000776Y-69585218D01*
X159000778Y-69585218D01*
X159000781Y-69585220D01*
X159105137Y-69619127D01*
X159195465Y-69648477D01*
X159296557Y-69664488D01*
X159397648Y-69680500D01*
X159397649Y-69680500D01*
X159602351Y-69680500D01*
X159602352Y-69680500D01*
X159804534Y-69648477D01*
X159999219Y-69585220D01*
X160181610Y-69492287D01*
X160328309Y-69385705D01*
X160347213Y-69371971D01*
X160347215Y-69371968D01*
X160347219Y-69371966D01*
X160491966Y-69227219D01*
X160491968Y-69227215D01*
X160491971Y-69227213D01*
X160550948Y-69146037D01*
X160612287Y-69061610D01*
X160705220Y-68879219D01*
X160768477Y-68684534D01*
X160800500Y-68482352D01*
X160800500Y-68277648D01*
X160772258Y-68099336D01*
X160768477Y-68075465D01*
X160723352Y-67936587D01*
X160705220Y-67880781D01*
X160705218Y-67880778D01*
X160705218Y-67880776D01*
X160648623Y-67769704D01*
X160612287Y-67698390D01*
X160555964Y-67620867D01*
X160491971Y-67532786D01*
X160347213Y-67388028D01*
X160181613Y-67267715D01*
X160181612Y-67267714D01*
X160181610Y-67267713D01*
X160119525Y-67236079D01*
X159999223Y-67174781D01*
X159804534Y-67111522D01*
X159629995Y-67083878D01*
X159602352Y-67079500D01*
X159397648Y-67079500D01*
X159373329Y-67083351D01*
X159195465Y-67111522D01*
X159000776Y-67174781D01*
X158818386Y-67267715D01*
X158652786Y-67388028D01*
X158508028Y-67532786D01*
X158387715Y-67698386D01*
X158294781Y-67880776D01*
X158231522Y-68075465D01*
X158199500Y-68277648D01*
X149839016Y-68277648D01*
X148288421Y-66727052D01*
X148288420Y-66727051D01*
X148244971Y-66698020D01*
X148178967Y-66653918D01*
X148165495Y-66644916D01*
X148165490Y-66644913D01*
X148028917Y-66588343D01*
X148028907Y-66588340D01*
X147883920Y-66559500D01*
X147883918Y-66559500D01*
X137137974Y-66559500D01*
X137070935Y-66539815D01*
X137032435Y-66500597D01*
X137012344Y-66468024D01*
X136952712Y-66371344D01*
X136828656Y-66247288D01*
X136699402Y-66167564D01*
X136652679Y-66115617D01*
X136640500Y-66062026D01*
X136640500Y-63426079D01*
X136611659Y-63281092D01*
X136611658Y-63281091D01*
X136611658Y-63281087D01*
X136611656Y-63281082D01*
X136555086Y-63144508D01*
X136491784Y-63049769D01*
X136491784Y-63049768D01*
X136491782Y-63049767D01*
X136472952Y-63021584D01*
X131659016Y-58207648D01*
X136699500Y-58207648D01*
X136699500Y-58412351D01*
X136731522Y-58614534D01*
X136794781Y-58809223D01*
X136887715Y-58991613D01*
X137008028Y-59157213D01*
X137152786Y-59301971D01*
X137307749Y-59414556D01*
X137318390Y-59422287D01*
X137434607Y-59481503D01*
X137500776Y-59515218D01*
X137500778Y-59515218D01*
X137500781Y-59515220D01*
X137605137Y-59549127D01*
X137695465Y-59578477D01*
X137796557Y-59594488D01*
X137897648Y-59610500D01*
X137897649Y-59610500D01*
X138102351Y-59610500D01*
X138102352Y-59610500D01*
X138304534Y-59578477D01*
X138499219Y-59515220D01*
X138681610Y-59422287D01*
X138774590Y-59354732D01*
X138847213Y-59301971D01*
X138847215Y-59301968D01*
X138847219Y-59301966D01*
X138991966Y-59157219D01*
X138994650Y-59153524D01*
X139025100Y-59111615D01*
X139080429Y-59068949D01*
X139125418Y-59060500D01*
X141374582Y-59060500D01*
X141441621Y-59080185D01*
X141474900Y-59111615D01*
X141508028Y-59157212D01*
X141508032Y-59157217D01*
X141652786Y-59301971D01*
X141807749Y-59414556D01*
X141818390Y-59422287D01*
X141934607Y-59481503D01*
X142000776Y-59515218D01*
X142000778Y-59515218D01*
X142000781Y-59515220D01*
X142105137Y-59549127D01*
X142195465Y-59578477D01*
X142296557Y-59594488D01*
X142397648Y-59610500D01*
X142397649Y-59610500D01*
X142602351Y-59610500D01*
X142602352Y-59610500D01*
X142804534Y-59578477D01*
X142999219Y-59515220D01*
X143181610Y-59422287D01*
X143274590Y-59354732D01*
X143347213Y-59301971D01*
X143347215Y-59301968D01*
X143347219Y-59301966D01*
X143491966Y-59157219D01*
X143494650Y-59153524D01*
X143525100Y-59111615D01*
X143580429Y-59068949D01*
X143625418Y-59060500D01*
X145874582Y-59060500D01*
X145941621Y-59080185D01*
X145974900Y-59111615D01*
X146008028Y-59157212D01*
X146008032Y-59157217D01*
X146152786Y-59301971D01*
X146307749Y-59414556D01*
X146318390Y-59422287D01*
X146434607Y-59481503D01*
X146500776Y-59515218D01*
X146500778Y-59515218D01*
X146500781Y-59515220D01*
X146605137Y-59549127D01*
X146695465Y-59578477D01*
X146796557Y-59594488D01*
X146897648Y-59610500D01*
X146897649Y-59610500D01*
X147102351Y-59610500D01*
X147102352Y-59610500D01*
X147304534Y-59578477D01*
X147499219Y-59515220D01*
X147681610Y-59422287D01*
X147774590Y-59354732D01*
X147847213Y-59301971D01*
X147847215Y-59301968D01*
X147847219Y-59301966D01*
X147991966Y-59157219D01*
X147991968Y-59157215D01*
X147991971Y-59157213D01*
X148062236Y-59060500D01*
X148112287Y-58991610D01*
X148205220Y-58809219D01*
X148268477Y-58614534D01*
X148300500Y-58412352D01*
X148300500Y-58207648D01*
X148276761Y-58057770D01*
X148268477Y-58005465D01*
X148231657Y-57892147D01*
X148205220Y-57810781D01*
X148205218Y-57810778D01*
X148205218Y-57810776D01*
X148192700Y-57786209D01*
X148179804Y-57717540D01*
X148206080Y-57652799D01*
X148263187Y-57612542D01*
X148332992Y-57609550D01*
X148390866Y-57642233D01*
X151613181Y-60864548D01*
X151646666Y-60925871D01*
X151649500Y-60952229D01*
X151649500Y-61996963D01*
X151629815Y-62064002D01*
X151577011Y-62109757D01*
X151507853Y-62119701D01*
X151506103Y-62119436D01*
X151380229Y-62099500D01*
X151380222Y-62099500D01*
X151159778Y-62099500D01*
X151095018Y-62109757D01*
X150942047Y-62133985D01*
X150732396Y-62202103D01*
X150732393Y-62202104D01*
X150535974Y-62302187D01*
X150357641Y-62431752D01*
X150357636Y-62431756D01*
X150307075Y-62482317D01*
X150245752Y-62515801D01*
X150176060Y-62510816D01*
X150120127Y-62468945D01*
X150103213Y-62437968D01*
X150073354Y-62357913D01*
X150073350Y-62357906D01*
X149987190Y-62242812D01*
X149987187Y-62242809D01*
X149872093Y-62156649D01*
X149872086Y-62156645D01*
X149737379Y-62106403D01*
X149737372Y-62106401D01*
X149677844Y-62100000D01*
X148980000Y-62100000D01*
X148980000Y-63124722D01*
X148903694Y-63080667D01*
X148789244Y-63050000D01*
X148670756Y-63050000D01*
X148556306Y-63080667D01*
X148480000Y-63124722D01*
X148480000Y-62100000D01*
X147782155Y-62100000D01*
X147722627Y-62106401D01*
X147722620Y-62106403D01*
X147587913Y-62156645D01*
X147587906Y-62156649D01*
X147472812Y-62242809D01*
X147472809Y-62242812D01*
X147386649Y-62357906D01*
X147386645Y-62357913D01*
X147336403Y-62492620D01*
X147336401Y-62492627D01*
X147330000Y-62552155D01*
X147330000Y-63250000D01*
X148354722Y-63250000D01*
X148310667Y-63326306D01*
X148280000Y-63440756D01*
X148280000Y-63559244D01*
X148310667Y-63673694D01*
X148354722Y-63750000D01*
X147330000Y-63750000D01*
X147330000Y-64447844D01*
X147336401Y-64507372D01*
X147336403Y-64507379D01*
X147386645Y-64642086D01*
X147386649Y-64642093D01*
X147472809Y-64757187D01*
X147472812Y-64757190D01*
X147587906Y-64843350D01*
X147587913Y-64843354D01*
X147722620Y-64893596D01*
X147722627Y-64893598D01*
X147782155Y-64899999D01*
X147782172Y-64900000D01*
X148480000Y-64900000D01*
X148480000Y-63875277D01*
X148556306Y-63919333D01*
X148670756Y-63950000D01*
X148789244Y-63950000D01*
X148903694Y-63919333D01*
X148980000Y-63875277D01*
X148980000Y-64900000D01*
X149677828Y-64900000D01*
X149677844Y-64899999D01*
X149737372Y-64893598D01*
X149737379Y-64893596D01*
X149872086Y-64843354D01*
X149872093Y-64843350D01*
X149987187Y-64757190D01*
X149987190Y-64757187D01*
X150073350Y-64642093D01*
X150073354Y-64642086D01*
X150103213Y-64562031D01*
X150145084Y-64506097D01*
X150210548Y-64481680D01*
X150278821Y-64496531D01*
X150307076Y-64517683D01*
X150357636Y-64568243D01*
X150357641Y-64568247D01*
X150513192Y-64681260D01*
X150535978Y-64697815D01*
X150652501Y-64757187D01*
X150732393Y-64797895D01*
X150732396Y-64797896D01*
X150837221Y-64831955D01*
X150942049Y-64866015D01*
X151159778Y-64900500D01*
X151159779Y-64900500D01*
X151380221Y-64900500D01*
X151380222Y-64900500D01*
X151597951Y-64866015D01*
X151807606Y-64797895D01*
X152004022Y-64697815D01*
X152182365Y-64568242D01*
X152338242Y-64412365D01*
X152467815Y-64234022D01*
X152567895Y-64037606D01*
X152636015Y-63827951D01*
X152670500Y-63610222D01*
X152670500Y-63389778D01*
X152649084Y-63254566D01*
X152658038Y-63185276D01*
X152683871Y-63147495D01*
X152982951Y-62848416D01*
X153065084Y-62725495D01*
X153121658Y-62588913D01*
X153137746Y-62508034D01*
X153150500Y-62443920D01*
X153150500Y-60516079D01*
X153121659Y-60371092D01*
X153121658Y-60371091D01*
X153121658Y-60371087D01*
X153076332Y-60261659D01*
X153065087Y-60234511D01*
X153065080Y-60234498D01*
X152982952Y-60111585D01*
X152939373Y-60068006D01*
X152878416Y-60007049D01*
X143826473Y-50955106D01*
X143792988Y-50893783D01*
X143791681Y-50848028D01*
X143800500Y-50792352D01*
X143800500Y-50587648D01*
X145699500Y-50587648D01*
X145699500Y-50792351D01*
X145731522Y-50994534D01*
X145794781Y-51189223D01*
X145887715Y-51371613D01*
X146008028Y-51537213D01*
X146152786Y-51681971D01*
X146307749Y-51794556D01*
X146318390Y-51802287D01*
X146414175Y-51851092D01*
X146500776Y-51895218D01*
X146500778Y-51895218D01*
X146500781Y-51895220D01*
X146589963Y-51924197D01*
X146695465Y-51958477D01*
X146779564Y-51971797D01*
X146897648Y-51990500D01*
X146897649Y-51990500D01*
X147102350Y-51990500D01*
X147102352Y-51990500D01*
X147158027Y-51981681D01*
X147227319Y-51990635D01*
X147265106Y-52016473D01*
X157640995Y-62392362D01*
X157671245Y-62441725D01*
X157725272Y-62608006D01*
X157725273Y-62608009D01*
X157809890Y-62774076D01*
X157823567Y-62800919D01*
X157950828Y-62976078D01*
X158103922Y-63129172D01*
X158279081Y-63256433D01*
X158327467Y-63281087D01*
X158471990Y-63354726D01*
X158471993Y-63354727D01*
X158574947Y-63388178D01*
X158677903Y-63421630D01*
X158891746Y-63455500D01*
X158891747Y-63455500D01*
X159108253Y-63455500D01*
X159108254Y-63455500D01*
X159322097Y-63421630D01*
X159528009Y-63354726D01*
X159720919Y-63256433D01*
X159896078Y-63129172D01*
X160049172Y-62976078D01*
X160176433Y-62800919D01*
X160274726Y-62608009D01*
X160341630Y-62402097D01*
X160375500Y-62188254D01*
X160375500Y-61971746D01*
X160341630Y-61757903D01*
X160274726Y-61551991D01*
X160274726Y-61551990D01*
X160176432Y-61359080D01*
X160049172Y-61183922D01*
X159896078Y-61030828D01*
X159720919Y-60903567D01*
X159715620Y-60900867D01*
X159528009Y-60805273D01*
X159528006Y-60805272D01*
X159322098Y-60738370D01*
X159215175Y-60721435D01*
X159108254Y-60704500D01*
X158891746Y-60704500D01*
X158820465Y-60715790D01*
X158677901Y-60738370D01*
X158471993Y-60805272D01*
X158471990Y-60805273D01*
X158356605Y-60864066D01*
X158287936Y-60876962D01*
X158223195Y-60850686D01*
X158212629Y-60841262D01*
X148326473Y-50955106D01*
X148292988Y-50893783D01*
X148291681Y-50848028D01*
X148300500Y-50792352D01*
X148300500Y-50587648D01*
X148268477Y-50385466D01*
X148247720Y-50321584D01*
X148213755Y-50217049D01*
X148205220Y-50190781D01*
X148205218Y-50190778D01*
X148205218Y-50190776D01*
X148147928Y-50078340D01*
X148112287Y-50008390D01*
X148100075Y-49991582D01*
X147991971Y-49842786D01*
X147847213Y-49698028D01*
X147681613Y-49577715D01*
X147681612Y-49577714D01*
X147681610Y-49577713D01*
X147621380Y-49547024D01*
X147499223Y-49484781D01*
X147304534Y-49421522D01*
X147129995Y-49393878D01*
X147102352Y-49389500D01*
X146897648Y-49389500D01*
X146873329Y-49393351D01*
X146695465Y-49421522D01*
X146500776Y-49484781D01*
X146318386Y-49577715D01*
X146152786Y-49698028D01*
X146008028Y-49842786D01*
X145887715Y-50008386D01*
X145794781Y-50190776D01*
X145731522Y-50385465D01*
X145699500Y-50587648D01*
X143800500Y-50587648D01*
X143768477Y-50385466D01*
X143747720Y-50321584D01*
X143713755Y-50217049D01*
X143705220Y-50190781D01*
X143705218Y-50190778D01*
X143705218Y-50190776D01*
X143647928Y-50078340D01*
X143612287Y-50008390D01*
X143600075Y-49991582D01*
X143491971Y-49842786D01*
X143347213Y-49698028D01*
X143181613Y-49577715D01*
X143181612Y-49577714D01*
X143181610Y-49577713D01*
X143121380Y-49547024D01*
X142999223Y-49484781D01*
X142804534Y-49421522D01*
X142629995Y-49393878D01*
X142602352Y-49389500D01*
X142397648Y-49389500D01*
X142373329Y-49393351D01*
X142195465Y-49421522D01*
X142000776Y-49484781D01*
X141818386Y-49577715D01*
X141652786Y-49698028D01*
X141508028Y-49842786D01*
X141387715Y-50008386D01*
X141294781Y-50190776D01*
X141231522Y-50385465D01*
X141199500Y-50587648D01*
X141199500Y-50792351D01*
X141231522Y-50994534D01*
X141294781Y-51189223D01*
X141387715Y-51371613D01*
X141508028Y-51537213D01*
X141652786Y-51681971D01*
X141807749Y-51794556D01*
X141818390Y-51802287D01*
X141914175Y-51851092D01*
X142000776Y-51895218D01*
X142000778Y-51895218D01*
X142000781Y-51895220D01*
X142089963Y-51924197D01*
X142195465Y-51958477D01*
X142279564Y-51971797D01*
X142397648Y-51990500D01*
X142397649Y-51990500D01*
X142602350Y-51990500D01*
X142602352Y-51990500D01*
X142658027Y-51981681D01*
X142727319Y-51990635D01*
X142765106Y-52016473D01*
X147667766Y-56919133D01*
X147701251Y-56980456D01*
X147696267Y-57050148D01*
X147654395Y-57106081D01*
X147588931Y-57130498D01*
X147523791Y-57117299D01*
X147499226Y-57104782D01*
X147304534Y-57041522D01*
X147129995Y-57013878D01*
X147102352Y-57009500D01*
X146897648Y-57009500D01*
X146873329Y-57013351D01*
X146695465Y-57041522D01*
X146500776Y-57104781D01*
X146318386Y-57197715D01*
X146152786Y-57318028D01*
X146008032Y-57462782D01*
X146008028Y-57462787D01*
X145974900Y-57508385D01*
X145919571Y-57551051D01*
X145874582Y-57559500D01*
X143625418Y-57559500D01*
X143558379Y-57539815D01*
X143525100Y-57508385D01*
X143491971Y-57462787D01*
X143491967Y-57462782D01*
X143347213Y-57318028D01*
X143181613Y-57197715D01*
X143181612Y-57197714D01*
X143181610Y-57197713D01*
X143124653Y-57168691D01*
X142999223Y-57104781D01*
X142804534Y-57041522D01*
X142629995Y-57013878D01*
X142602352Y-57009500D01*
X142397648Y-57009500D01*
X142373329Y-57013351D01*
X142195465Y-57041522D01*
X142000776Y-57104781D01*
X141818386Y-57197715D01*
X141652786Y-57318028D01*
X141508032Y-57462782D01*
X141508028Y-57462787D01*
X141474900Y-57508385D01*
X141419571Y-57551051D01*
X141374582Y-57559500D01*
X139125418Y-57559500D01*
X139058379Y-57539815D01*
X139025100Y-57508385D01*
X138991971Y-57462787D01*
X138991967Y-57462782D01*
X138847213Y-57318028D01*
X138681613Y-57197715D01*
X138681612Y-57197714D01*
X138681610Y-57197713D01*
X138624653Y-57168691D01*
X138499223Y-57104781D01*
X138304534Y-57041522D01*
X138129995Y-57013878D01*
X138102352Y-57009500D01*
X137897648Y-57009500D01*
X137873329Y-57013351D01*
X137695465Y-57041522D01*
X137500776Y-57104781D01*
X137318386Y-57197715D01*
X137152786Y-57318028D01*
X137008028Y-57462786D01*
X136887715Y-57628386D01*
X136794781Y-57810776D01*
X136731522Y-58005465D01*
X136699500Y-58207648D01*
X131659016Y-58207648D01*
X131596819Y-58145451D01*
X131563334Y-58084128D01*
X131560500Y-58057770D01*
X131560500Y-52432229D01*
X131580185Y-52365190D01*
X131596819Y-52344548D01*
X132354548Y-51586819D01*
X132415871Y-51553334D01*
X132442229Y-51550500D01*
X136969953Y-51550500D01*
X137036992Y-51570185D01*
X137057634Y-51586819D01*
X137152786Y-51681971D01*
X137307749Y-51794556D01*
X137318390Y-51802287D01*
X137414175Y-51851092D01*
X137500776Y-51895218D01*
X137500778Y-51895218D01*
X137500781Y-51895220D01*
X137589963Y-51924197D01*
X137695465Y-51958477D01*
X137779564Y-51971797D01*
X137897648Y-51990500D01*
X137897649Y-51990500D01*
X138102351Y-51990500D01*
X138102352Y-51990500D01*
X138304534Y-51958477D01*
X138499219Y-51895220D01*
X138681610Y-51802287D01*
X138774590Y-51734732D01*
X138847213Y-51681971D01*
X138847215Y-51681968D01*
X138847219Y-51681966D01*
X138991966Y-51537219D01*
X138991968Y-51537215D01*
X138991971Y-51537213D01*
X139097097Y-51392517D01*
X139112287Y-51371610D01*
X139205220Y-51189219D01*
X139268477Y-50994534D01*
X139300500Y-50792352D01*
X139300500Y-50587648D01*
X139268477Y-50385466D01*
X139247720Y-50321584D01*
X139213755Y-50217049D01*
X139205220Y-50190781D01*
X139205218Y-50190778D01*
X139205218Y-50190776D01*
X139147928Y-50078340D01*
X139112287Y-50008390D01*
X139100075Y-49991582D01*
X138991971Y-49842786D01*
X138847213Y-49698028D01*
X138681613Y-49577715D01*
X138681612Y-49577714D01*
X138681610Y-49577713D01*
X138621380Y-49547024D01*
X138499223Y-49484781D01*
X138304534Y-49421522D01*
X138129995Y-49393878D01*
X138102352Y-49389500D01*
X137897648Y-49389500D01*
X137873329Y-49393351D01*
X137695465Y-49421522D01*
X137500776Y-49484781D01*
X137318386Y-49577715D01*
X137152786Y-49698028D01*
X137008032Y-49842782D01*
X137008028Y-49842787D01*
X136894981Y-49998385D01*
X136839652Y-50041051D01*
X136794663Y-50049500D01*
X132006080Y-50049500D01*
X131861092Y-50078340D01*
X131861082Y-50078343D01*
X131724511Y-50134912D01*
X131724498Y-50134919D01*
X131601584Y-50217048D01*
X131601582Y-50217050D01*
X130227049Y-51591582D01*
X130212493Y-51613368D01*
X130144913Y-51714508D01*
X130088343Y-51851082D01*
X130088340Y-51851092D01*
X130059500Y-51996079D01*
X130059500Y-51996082D01*
X130059500Y-58493918D01*
X130059500Y-58493920D01*
X130059499Y-58493920D01*
X128270000Y-58493920D01*
X128270000Y-46459004D01*
X128289685Y-46391965D01*
X128342489Y-46346210D01*
X128411647Y-46336266D01*
X128475203Y-46365291D01*
X128511041Y-46418049D01*
X128588734Y-46640082D01*
X128705714Y-46882994D01*
X128705716Y-46882997D01*
X128849162Y-47111289D01*
X128936073Y-47220272D01*
X128996071Y-47295508D01*
X129017266Y-47322085D01*
X129207915Y-47512734D01*
X129418711Y-47680838D01*
X129647003Y-47824284D01*
X129889921Y-47941267D01*
X130081049Y-48008145D01*
X130144397Y-48030312D01*
X130144405Y-48030315D01*
X130144408Y-48030315D01*
X130144409Y-48030316D01*
X130407268Y-48090312D01*
X130675187Y-48120499D01*
X130675188Y-48120500D01*
X130675191Y-48120500D01*
X130944812Y-48120500D01*
X130944812Y-48120499D01*
X131212732Y-48090312D01*
X131475591Y-48030316D01*
X131730079Y-47941267D01*
X131972997Y-47824284D01*
X132201289Y-47680838D01*
X132412085Y-47512734D01*
X132602734Y-47322085D01*
X132770838Y-47111289D01*
X132914284Y-46882997D01*
X133031267Y-46640079D01*
X133120316Y-46385591D01*
X133180312Y-46122732D01*
X133210500Y-45854809D01*
X133210500Y-45585191D01*
X133180312Y-45317268D01*
X133120316Y-45054409D01*
X133031267Y-44799921D01*
X132914284Y-44557003D01*
X132770838Y-44328711D01*
X132602734Y-44117915D01*
X132412085Y-43927266D01*
X132201289Y-43759162D01*
X131972997Y-43615716D01*
X131972994Y-43615714D01*
X131730082Y-43498734D01*
X131508050Y-43421041D01*
X131451274Y-43380320D01*
X131425527Y-43315367D01*
X131438983Y-43246805D01*
X131487371Y-43196402D01*
X131549005Y-43180000D01*
X211109901Y-43180000D01*
X211111162Y-43180370D01*
G37*
%TD.AperFunction*%
%TD*%
M02*
