%TF.GenerationSoftware,KiCad,Pcbnew,9.0.0*%
%TF.CreationDate,2025-04-29T18:27:41-04:00*%
%TF.ProjectId,Generador de funciones,47656e65-7261-4646-9f72-206465206675,rev?*%
%TF.SameCoordinates,Original*%
%TF.FileFunction,Legend,Top*%
%TF.FilePolarity,Positive*%
%FSLAX46Y46*%
G04 Gerber Fmt 4.6, Leading zero omitted, Abs format (unit mm)*
G04 Created by KiCad (PCBNEW 9.0.0) date 2025-04-29 18:27:41*
%MOMM*%
%LPD*%
G01*
G04 APERTURE LIST*
%ADD10C,0.150000*%
%ADD11C,0.120000*%
%ADD12C,0.152400*%
G04 APERTURE END LIST*
D10*
X181083333Y-46609580D02*
X181035714Y-46657200D01*
X181035714Y-46657200D02*
X180892857Y-46704819D01*
X180892857Y-46704819D02*
X180797619Y-46704819D01*
X180797619Y-46704819D02*
X180654762Y-46657200D01*
X180654762Y-46657200D02*
X180559524Y-46561961D01*
X180559524Y-46561961D02*
X180511905Y-46466723D01*
X180511905Y-46466723D02*
X180464286Y-46276247D01*
X180464286Y-46276247D02*
X180464286Y-46133390D01*
X180464286Y-46133390D02*
X180511905Y-45942914D01*
X180511905Y-45942914D02*
X180559524Y-45847676D01*
X180559524Y-45847676D02*
X180654762Y-45752438D01*
X180654762Y-45752438D02*
X180797619Y-45704819D01*
X180797619Y-45704819D02*
X180892857Y-45704819D01*
X180892857Y-45704819D02*
X181035714Y-45752438D01*
X181035714Y-45752438D02*
X181083333Y-45800057D01*
X182035714Y-46704819D02*
X181464286Y-46704819D01*
X181750000Y-46704819D02*
X181750000Y-45704819D01*
X181750000Y-45704819D02*
X181654762Y-45847676D01*
X181654762Y-45847676D02*
X181559524Y-45942914D01*
X181559524Y-45942914D02*
X181464286Y-45990533D01*
X139644819Y-70905238D02*
X139168628Y-71238571D01*
X139644819Y-71476666D02*
X138644819Y-71476666D01*
X138644819Y-71476666D02*
X138644819Y-71095714D01*
X138644819Y-71095714D02*
X138692438Y-71000476D01*
X138692438Y-71000476D02*
X138740057Y-70952857D01*
X138740057Y-70952857D02*
X138835295Y-70905238D01*
X138835295Y-70905238D02*
X138978152Y-70905238D01*
X138978152Y-70905238D02*
X139073390Y-70952857D01*
X139073390Y-70952857D02*
X139121009Y-71000476D01*
X139121009Y-71000476D02*
X139168628Y-71095714D01*
X139168628Y-71095714D02*
X139168628Y-71476666D01*
X138644819Y-70619523D02*
X139644819Y-70286190D01*
X139644819Y-70286190D02*
X138644819Y-69952857D01*
X138740057Y-69667142D02*
X138692438Y-69619523D01*
X138692438Y-69619523D02*
X138644819Y-69524285D01*
X138644819Y-69524285D02*
X138644819Y-69286190D01*
X138644819Y-69286190D02*
X138692438Y-69190952D01*
X138692438Y-69190952D02*
X138740057Y-69143333D01*
X138740057Y-69143333D02*
X138835295Y-69095714D01*
X138835295Y-69095714D02*
X138930533Y-69095714D01*
X138930533Y-69095714D02*
X139073390Y-69143333D01*
X139073390Y-69143333D02*
X139644819Y-69714761D01*
X139644819Y-69714761D02*
X139644819Y-69095714D01*
X187364761Y-95684819D02*
X187031428Y-95208628D01*
X186793333Y-95684819D02*
X186793333Y-94684819D01*
X186793333Y-94684819D02*
X187174285Y-94684819D01*
X187174285Y-94684819D02*
X187269523Y-94732438D01*
X187269523Y-94732438D02*
X187317142Y-94780057D01*
X187317142Y-94780057D02*
X187364761Y-94875295D01*
X187364761Y-94875295D02*
X187364761Y-95018152D01*
X187364761Y-95018152D02*
X187317142Y-95113390D01*
X187317142Y-95113390D02*
X187269523Y-95161009D01*
X187269523Y-95161009D02*
X187174285Y-95208628D01*
X187174285Y-95208628D02*
X186793333Y-95208628D01*
X187650476Y-94684819D02*
X187983809Y-95684819D01*
X187983809Y-95684819D02*
X188317142Y-94684819D01*
X189174285Y-95684819D02*
X188602857Y-95684819D01*
X188888571Y-95684819D02*
X188888571Y-94684819D01*
X188888571Y-94684819D02*
X188793333Y-94827676D01*
X188793333Y-94827676D02*
X188698095Y-94922914D01*
X188698095Y-94922914D02*
X188602857Y-94970533D01*
X140584819Y-54666666D02*
X140108628Y-54999999D01*
X140584819Y-55238094D02*
X139584819Y-55238094D01*
X139584819Y-55238094D02*
X139584819Y-54857142D01*
X139584819Y-54857142D02*
X139632438Y-54761904D01*
X139632438Y-54761904D02*
X139680057Y-54714285D01*
X139680057Y-54714285D02*
X139775295Y-54666666D01*
X139775295Y-54666666D02*
X139918152Y-54666666D01*
X139918152Y-54666666D02*
X140013390Y-54714285D01*
X140013390Y-54714285D02*
X140061009Y-54761904D01*
X140061009Y-54761904D02*
X140108628Y-54857142D01*
X140108628Y-54857142D02*
X140108628Y-55238094D01*
X140584819Y-53714285D02*
X140584819Y-54285713D01*
X140584819Y-53999999D02*
X139584819Y-53999999D01*
X139584819Y-53999999D02*
X139727676Y-54095237D01*
X139727676Y-54095237D02*
X139822914Y-54190475D01*
X139822914Y-54190475D02*
X139870533Y-54285713D01*
X149261905Y-60994819D02*
X149261905Y-59994819D01*
X149261905Y-59994819D02*
X149500000Y-59994819D01*
X149500000Y-59994819D02*
X149642857Y-60042438D01*
X149642857Y-60042438D02*
X149738095Y-60137676D01*
X149738095Y-60137676D02*
X149785714Y-60232914D01*
X149785714Y-60232914D02*
X149833333Y-60423390D01*
X149833333Y-60423390D02*
X149833333Y-60566247D01*
X149833333Y-60566247D02*
X149785714Y-60756723D01*
X149785714Y-60756723D02*
X149738095Y-60851961D01*
X149738095Y-60851961D02*
X149642857Y-60947200D01*
X149642857Y-60947200D02*
X149500000Y-60994819D01*
X149500000Y-60994819D02*
X149261905Y-60994819D01*
X150214286Y-60090057D02*
X150261905Y-60042438D01*
X150261905Y-60042438D02*
X150357143Y-59994819D01*
X150357143Y-59994819D02*
X150595238Y-59994819D01*
X150595238Y-59994819D02*
X150690476Y-60042438D01*
X150690476Y-60042438D02*
X150738095Y-60090057D01*
X150738095Y-60090057D02*
X150785714Y-60185295D01*
X150785714Y-60185295D02*
X150785714Y-60280533D01*
X150785714Y-60280533D02*
X150738095Y-60423390D01*
X150738095Y-60423390D02*
X150166667Y-60994819D01*
X150166667Y-60994819D02*
X150785714Y-60994819D01*
X145084819Y-54666666D02*
X144608628Y-54999999D01*
X145084819Y-55238094D02*
X144084819Y-55238094D01*
X144084819Y-55238094D02*
X144084819Y-54857142D01*
X144084819Y-54857142D02*
X144132438Y-54761904D01*
X144132438Y-54761904D02*
X144180057Y-54714285D01*
X144180057Y-54714285D02*
X144275295Y-54666666D01*
X144275295Y-54666666D02*
X144418152Y-54666666D01*
X144418152Y-54666666D02*
X144513390Y-54714285D01*
X144513390Y-54714285D02*
X144561009Y-54761904D01*
X144561009Y-54761904D02*
X144608628Y-54857142D01*
X144608628Y-54857142D02*
X144608628Y-55238094D01*
X144084819Y-53761904D02*
X144084819Y-54238094D01*
X144084819Y-54238094D02*
X144561009Y-54285713D01*
X144561009Y-54285713D02*
X144513390Y-54238094D01*
X144513390Y-54238094D02*
X144465771Y-54142856D01*
X144465771Y-54142856D02*
X144465771Y-53904761D01*
X144465771Y-53904761D02*
X144513390Y-53809523D01*
X144513390Y-53809523D02*
X144561009Y-53761904D01*
X144561009Y-53761904D02*
X144656247Y-53714285D01*
X144656247Y-53714285D02*
X144894342Y-53714285D01*
X144894342Y-53714285D02*
X144989580Y-53761904D01*
X144989580Y-53761904D02*
X145037200Y-53809523D01*
X145037200Y-53809523D02*
X145084819Y-53904761D01*
X145084819Y-53904761D02*
X145084819Y-54142856D01*
X145084819Y-54142856D02*
X145037200Y-54238094D01*
X145037200Y-54238094D02*
X144989580Y-54285713D01*
X176084819Y-92716666D02*
X175608628Y-93049999D01*
X176084819Y-93288094D02*
X175084819Y-93288094D01*
X175084819Y-93288094D02*
X175084819Y-92907142D01*
X175084819Y-92907142D02*
X175132438Y-92811904D01*
X175132438Y-92811904D02*
X175180057Y-92764285D01*
X175180057Y-92764285D02*
X175275295Y-92716666D01*
X175275295Y-92716666D02*
X175418152Y-92716666D01*
X175418152Y-92716666D02*
X175513390Y-92764285D01*
X175513390Y-92764285D02*
X175561009Y-92811904D01*
X175561009Y-92811904D02*
X175608628Y-92907142D01*
X175608628Y-92907142D02*
X175608628Y-93288094D01*
X175418152Y-91859523D02*
X176084819Y-91859523D01*
X175037200Y-92097618D02*
X175751485Y-92335713D01*
X175751485Y-92335713D02*
X175751485Y-91716666D01*
X196424819Y-53738094D02*
X195424819Y-53738094D01*
X195424819Y-53738094D02*
X195424819Y-53499999D01*
X195424819Y-53499999D02*
X195472438Y-53357142D01*
X195472438Y-53357142D02*
X195567676Y-53261904D01*
X195567676Y-53261904D02*
X195662914Y-53214285D01*
X195662914Y-53214285D02*
X195853390Y-53166666D01*
X195853390Y-53166666D02*
X195996247Y-53166666D01*
X195996247Y-53166666D02*
X196186723Y-53214285D01*
X196186723Y-53214285D02*
X196281961Y-53261904D01*
X196281961Y-53261904D02*
X196377200Y-53357142D01*
X196377200Y-53357142D02*
X196424819Y-53499999D01*
X196424819Y-53499999D02*
X196424819Y-53738094D01*
X196424819Y-52214285D02*
X196424819Y-52785713D01*
X196424819Y-52499999D02*
X195424819Y-52499999D01*
X195424819Y-52499999D02*
X195567676Y-52595237D01*
X195567676Y-52595237D02*
X195662914Y-52690475D01*
X195662914Y-52690475D02*
X195710533Y-52785713D01*
X196054819Y-48181904D02*
X195054819Y-48181904D01*
X196054819Y-47610476D02*
X195483390Y-48039047D01*
X195054819Y-47610476D02*
X195626247Y-48181904D01*
X129476666Y-43274819D02*
X129143333Y-42798628D01*
X128905238Y-43274819D02*
X128905238Y-42274819D01*
X128905238Y-42274819D02*
X129286190Y-42274819D01*
X129286190Y-42274819D02*
X129381428Y-42322438D01*
X129381428Y-42322438D02*
X129429047Y-42370057D01*
X129429047Y-42370057D02*
X129476666Y-42465295D01*
X129476666Y-42465295D02*
X129476666Y-42608152D01*
X129476666Y-42608152D02*
X129429047Y-42703390D01*
X129429047Y-42703390D02*
X129381428Y-42751009D01*
X129381428Y-42751009D02*
X129286190Y-42798628D01*
X129286190Y-42798628D02*
X128905238Y-42798628D01*
X129905238Y-42751009D02*
X130238571Y-42751009D01*
X130381428Y-43274819D02*
X129905238Y-43274819D01*
X129905238Y-43274819D02*
X129905238Y-42274819D01*
X129905238Y-42274819D02*
X130381428Y-42274819D01*
X131143333Y-42751009D02*
X130810000Y-42751009D01*
X130810000Y-43274819D02*
X130810000Y-42274819D01*
X130810000Y-42274819D02*
X131286190Y-42274819D01*
X131810000Y-42274819D02*
X131810000Y-42512914D01*
X131571905Y-42417676D02*
X131810000Y-42512914D01*
X131810000Y-42512914D02*
X132048095Y-42417676D01*
X131667143Y-42703390D02*
X131810000Y-42512914D01*
X131810000Y-42512914D02*
X131952857Y-42703390D01*
X132571905Y-42274819D02*
X132571905Y-42512914D01*
X132333810Y-42417676D02*
X132571905Y-42512914D01*
X132571905Y-42512914D02*
X132810000Y-42417676D01*
X132429048Y-42703390D02*
X132571905Y-42512914D01*
X132571905Y-42512914D02*
X132714762Y-42703390D01*
X197434819Y-66913333D02*
X198149104Y-66913333D01*
X198149104Y-66913333D02*
X198291961Y-66960952D01*
X198291961Y-66960952D02*
X198387200Y-67056190D01*
X198387200Y-67056190D02*
X198434819Y-67199047D01*
X198434819Y-67199047D02*
X198434819Y-67294285D01*
X198434819Y-65913333D02*
X198434819Y-66484761D01*
X198434819Y-66199047D02*
X197434819Y-66199047D01*
X197434819Y-66199047D02*
X197577676Y-66294285D01*
X197577676Y-66294285D02*
X197672914Y-66389523D01*
X197672914Y-66389523D02*
X197720533Y-66484761D01*
X162626667Y-80867200D02*
X162769524Y-80914819D01*
X162769524Y-80914819D02*
X163007619Y-80914819D01*
X163007619Y-80914819D02*
X163102857Y-80867200D01*
X163102857Y-80867200D02*
X163150476Y-80819580D01*
X163150476Y-80819580D02*
X163198095Y-80724342D01*
X163198095Y-80724342D02*
X163198095Y-80629104D01*
X163198095Y-80629104D02*
X163150476Y-80533866D01*
X163150476Y-80533866D02*
X163102857Y-80486247D01*
X163102857Y-80486247D02*
X163007619Y-80438628D01*
X163007619Y-80438628D02*
X162817143Y-80391009D01*
X162817143Y-80391009D02*
X162721905Y-80343390D01*
X162721905Y-80343390D02*
X162674286Y-80295771D01*
X162674286Y-80295771D02*
X162626667Y-80200533D01*
X162626667Y-80200533D02*
X162626667Y-80105295D01*
X162626667Y-80105295D02*
X162674286Y-80010057D01*
X162674286Y-80010057D02*
X162721905Y-79962438D01*
X162721905Y-79962438D02*
X162817143Y-79914819D01*
X162817143Y-79914819D02*
X163055238Y-79914819D01*
X163055238Y-79914819D02*
X163198095Y-79962438D01*
X163531429Y-79914819D02*
X163769524Y-80914819D01*
X163769524Y-80914819D02*
X163960000Y-80200533D01*
X163960000Y-80200533D02*
X164150476Y-80914819D01*
X164150476Y-80914819D02*
X164388572Y-79914819D01*
X165293333Y-80914819D02*
X164721905Y-80914819D01*
X165007619Y-80914819D02*
X165007619Y-79914819D01*
X165007619Y-79914819D02*
X164912381Y-80057676D01*
X164912381Y-80057676D02*
X164817143Y-80152914D01*
X164817143Y-80152914D02*
X164721905Y-80200533D01*
X129476666Y-99154819D02*
X129143333Y-98678628D01*
X128905238Y-99154819D02*
X128905238Y-98154819D01*
X128905238Y-98154819D02*
X129286190Y-98154819D01*
X129286190Y-98154819D02*
X129381428Y-98202438D01*
X129381428Y-98202438D02*
X129429047Y-98250057D01*
X129429047Y-98250057D02*
X129476666Y-98345295D01*
X129476666Y-98345295D02*
X129476666Y-98488152D01*
X129476666Y-98488152D02*
X129429047Y-98583390D01*
X129429047Y-98583390D02*
X129381428Y-98631009D01*
X129381428Y-98631009D02*
X129286190Y-98678628D01*
X129286190Y-98678628D02*
X128905238Y-98678628D01*
X129905238Y-98631009D02*
X130238571Y-98631009D01*
X130381428Y-99154819D02*
X129905238Y-99154819D01*
X129905238Y-99154819D02*
X129905238Y-98154819D01*
X129905238Y-98154819D02*
X130381428Y-98154819D01*
X131143333Y-98631009D02*
X130810000Y-98631009D01*
X130810000Y-99154819D02*
X130810000Y-98154819D01*
X130810000Y-98154819D02*
X131286190Y-98154819D01*
X131810000Y-98154819D02*
X131810000Y-98392914D01*
X131571905Y-98297676D02*
X131810000Y-98392914D01*
X131810000Y-98392914D02*
X132048095Y-98297676D01*
X131667143Y-98583390D02*
X131810000Y-98392914D01*
X131810000Y-98392914D02*
X131952857Y-98583390D01*
X132571905Y-98154819D02*
X132571905Y-98392914D01*
X132333810Y-98297676D02*
X132571905Y-98392914D01*
X132571905Y-98392914D02*
X132810000Y-98297676D01*
X132429048Y-98583390D02*
X132571905Y-98392914D01*
X132571905Y-98392914D02*
X132714762Y-98583390D01*
X151084819Y-84666666D02*
X150608628Y-84999999D01*
X151084819Y-85238094D02*
X150084819Y-85238094D01*
X150084819Y-85238094D02*
X150084819Y-84857142D01*
X150084819Y-84857142D02*
X150132438Y-84761904D01*
X150132438Y-84761904D02*
X150180057Y-84714285D01*
X150180057Y-84714285D02*
X150275295Y-84666666D01*
X150275295Y-84666666D02*
X150418152Y-84666666D01*
X150418152Y-84666666D02*
X150513390Y-84714285D01*
X150513390Y-84714285D02*
X150561009Y-84761904D01*
X150561009Y-84761904D02*
X150608628Y-84857142D01*
X150608628Y-84857142D02*
X150608628Y-85238094D01*
X150513390Y-84095237D02*
X150465771Y-84190475D01*
X150465771Y-84190475D02*
X150418152Y-84238094D01*
X150418152Y-84238094D02*
X150322914Y-84285713D01*
X150322914Y-84285713D02*
X150275295Y-84285713D01*
X150275295Y-84285713D02*
X150180057Y-84238094D01*
X150180057Y-84238094D02*
X150132438Y-84190475D01*
X150132438Y-84190475D02*
X150084819Y-84095237D01*
X150084819Y-84095237D02*
X150084819Y-83904761D01*
X150084819Y-83904761D02*
X150132438Y-83809523D01*
X150132438Y-83809523D02*
X150180057Y-83761904D01*
X150180057Y-83761904D02*
X150275295Y-83714285D01*
X150275295Y-83714285D02*
X150322914Y-83714285D01*
X150322914Y-83714285D02*
X150418152Y-83761904D01*
X150418152Y-83761904D02*
X150465771Y-83809523D01*
X150465771Y-83809523D02*
X150513390Y-83904761D01*
X150513390Y-83904761D02*
X150513390Y-84095237D01*
X150513390Y-84095237D02*
X150561009Y-84190475D01*
X150561009Y-84190475D02*
X150608628Y-84238094D01*
X150608628Y-84238094D02*
X150703866Y-84285713D01*
X150703866Y-84285713D02*
X150894342Y-84285713D01*
X150894342Y-84285713D02*
X150989580Y-84238094D01*
X150989580Y-84238094D02*
X151037200Y-84190475D01*
X151037200Y-84190475D02*
X151084819Y-84095237D01*
X151084819Y-84095237D02*
X151084819Y-83904761D01*
X151084819Y-83904761D02*
X151037200Y-83809523D01*
X151037200Y-83809523D02*
X150989580Y-83761904D01*
X150989580Y-83761904D02*
X150894342Y-83714285D01*
X150894342Y-83714285D02*
X150703866Y-83714285D01*
X150703866Y-83714285D02*
X150608628Y-83761904D01*
X150608628Y-83761904D02*
X150561009Y-83809523D01*
X150561009Y-83809523D02*
X150513390Y-83904761D01*
X158404761Y-65054819D02*
X158071428Y-64578628D01*
X157833333Y-65054819D02*
X157833333Y-64054819D01*
X157833333Y-64054819D02*
X158214285Y-64054819D01*
X158214285Y-64054819D02*
X158309523Y-64102438D01*
X158309523Y-64102438D02*
X158357142Y-64150057D01*
X158357142Y-64150057D02*
X158404761Y-64245295D01*
X158404761Y-64245295D02*
X158404761Y-64388152D01*
X158404761Y-64388152D02*
X158357142Y-64483390D01*
X158357142Y-64483390D02*
X158309523Y-64531009D01*
X158309523Y-64531009D02*
X158214285Y-64578628D01*
X158214285Y-64578628D02*
X157833333Y-64578628D01*
X158690476Y-64054819D02*
X159023809Y-65054819D01*
X159023809Y-65054819D02*
X159357142Y-64054819D01*
X160119047Y-64388152D02*
X160119047Y-65054819D01*
X159880952Y-64007200D02*
X159642857Y-64721485D01*
X159642857Y-64721485D02*
X160261904Y-64721485D01*
X210756666Y-99154819D02*
X210423333Y-98678628D01*
X210185238Y-99154819D02*
X210185238Y-98154819D01*
X210185238Y-98154819D02*
X210566190Y-98154819D01*
X210566190Y-98154819D02*
X210661428Y-98202438D01*
X210661428Y-98202438D02*
X210709047Y-98250057D01*
X210709047Y-98250057D02*
X210756666Y-98345295D01*
X210756666Y-98345295D02*
X210756666Y-98488152D01*
X210756666Y-98488152D02*
X210709047Y-98583390D01*
X210709047Y-98583390D02*
X210661428Y-98631009D01*
X210661428Y-98631009D02*
X210566190Y-98678628D01*
X210566190Y-98678628D02*
X210185238Y-98678628D01*
X211185238Y-98631009D02*
X211518571Y-98631009D01*
X211661428Y-99154819D02*
X211185238Y-99154819D01*
X211185238Y-99154819D02*
X211185238Y-98154819D01*
X211185238Y-98154819D02*
X211661428Y-98154819D01*
X212423333Y-98631009D02*
X212090000Y-98631009D01*
X212090000Y-99154819D02*
X212090000Y-98154819D01*
X212090000Y-98154819D02*
X212566190Y-98154819D01*
X213090000Y-98154819D02*
X213090000Y-98392914D01*
X212851905Y-98297676D02*
X213090000Y-98392914D01*
X213090000Y-98392914D02*
X213328095Y-98297676D01*
X212947143Y-98583390D02*
X213090000Y-98392914D01*
X213090000Y-98392914D02*
X213232857Y-98583390D01*
X213851905Y-98154819D02*
X213851905Y-98392914D01*
X213613810Y-98297676D02*
X213851905Y-98392914D01*
X213851905Y-98392914D02*
X214090000Y-98297676D01*
X213709048Y-98583390D02*
X213851905Y-98392914D01*
X213851905Y-98392914D02*
X213994762Y-98583390D01*
X184197843Y-72972344D02*
X184197843Y-71971446D01*
X185246402Y-72877021D02*
X185198740Y-72924683D01*
X185198740Y-72924683D02*
X185055755Y-72972344D01*
X185055755Y-72972344D02*
X184960431Y-72972344D01*
X184960431Y-72972344D02*
X184817446Y-72924683D01*
X184817446Y-72924683D02*
X184722122Y-72829359D01*
X184722122Y-72829359D02*
X184674461Y-72734035D01*
X184674461Y-72734035D02*
X184626799Y-72543388D01*
X184626799Y-72543388D02*
X184626799Y-72400403D01*
X184626799Y-72400403D02*
X184674461Y-72209755D01*
X184674461Y-72209755D02*
X184722122Y-72114432D01*
X184722122Y-72114432D02*
X184817446Y-72019108D01*
X184817446Y-72019108D02*
X184960431Y-71971446D01*
X184960431Y-71971446D02*
X185055755Y-71971446D01*
X185055755Y-71971446D02*
X185198740Y-72019108D01*
X185198740Y-72019108D02*
X185246402Y-72066770D01*
X186199638Y-72972344D02*
X185627697Y-72972344D01*
X185913668Y-72972344D02*
X185913668Y-71971446D01*
X185913668Y-71971446D02*
X185818344Y-72114432D01*
X185818344Y-72114432D02*
X185723020Y-72209755D01*
X185723020Y-72209755D02*
X185627697Y-72257417D01*
X157359580Y-93166666D02*
X157407200Y-93214285D01*
X157407200Y-93214285D02*
X157454819Y-93357142D01*
X157454819Y-93357142D02*
X157454819Y-93452380D01*
X157454819Y-93452380D02*
X157407200Y-93595237D01*
X157407200Y-93595237D02*
X157311961Y-93690475D01*
X157311961Y-93690475D02*
X157216723Y-93738094D01*
X157216723Y-93738094D02*
X157026247Y-93785713D01*
X157026247Y-93785713D02*
X156883390Y-93785713D01*
X156883390Y-93785713D02*
X156692914Y-93738094D01*
X156692914Y-93738094D02*
X156597676Y-93690475D01*
X156597676Y-93690475D02*
X156502438Y-93595237D01*
X156502438Y-93595237D02*
X156454819Y-93452380D01*
X156454819Y-93452380D02*
X156454819Y-93357142D01*
X156454819Y-93357142D02*
X156502438Y-93214285D01*
X156502438Y-93214285D02*
X156550057Y-93166666D01*
X156454819Y-92833332D02*
X156454819Y-92214285D01*
X156454819Y-92214285D02*
X156835771Y-92547618D01*
X156835771Y-92547618D02*
X156835771Y-92404761D01*
X156835771Y-92404761D02*
X156883390Y-92309523D01*
X156883390Y-92309523D02*
X156931009Y-92261904D01*
X156931009Y-92261904D02*
X157026247Y-92214285D01*
X157026247Y-92214285D02*
X157264342Y-92214285D01*
X157264342Y-92214285D02*
X157359580Y-92261904D01*
X157359580Y-92261904D02*
X157407200Y-92309523D01*
X157407200Y-92309523D02*
X157454819Y-92404761D01*
X157454819Y-92404761D02*
X157454819Y-92690475D01*
X157454819Y-92690475D02*
X157407200Y-92785713D01*
X157407200Y-92785713D02*
X157359580Y-92833332D01*
X161359580Y-93166666D02*
X161407200Y-93214285D01*
X161407200Y-93214285D02*
X161454819Y-93357142D01*
X161454819Y-93357142D02*
X161454819Y-93452380D01*
X161454819Y-93452380D02*
X161407200Y-93595237D01*
X161407200Y-93595237D02*
X161311961Y-93690475D01*
X161311961Y-93690475D02*
X161216723Y-93738094D01*
X161216723Y-93738094D02*
X161026247Y-93785713D01*
X161026247Y-93785713D02*
X160883390Y-93785713D01*
X160883390Y-93785713D02*
X160692914Y-93738094D01*
X160692914Y-93738094D02*
X160597676Y-93690475D01*
X160597676Y-93690475D02*
X160502438Y-93595237D01*
X160502438Y-93595237D02*
X160454819Y-93452380D01*
X160454819Y-93452380D02*
X160454819Y-93357142D01*
X160454819Y-93357142D02*
X160502438Y-93214285D01*
X160502438Y-93214285D02*
X160550057Y-93166666D01*
X160788152Y-92309523D02*
X161454819Y-92309523D01*
X160407200Y-92547618D02*
X161121485Y-92785713D01*
X161121485Y-92785713D02*
X161121485Y-92166666D01*
X212026666Y-42004819D02*
X211693333Y-41528628D01*
X211455238Y-42004819D02*
X211455238Y-41004819D01*
X211455238Y-41004819D02*
X211836190Y-41004819D01*
X211836190Y-41004819D02*
X211931428Y-41052438D01*
X211931428Y-41052438D02*
X211979047Y-41100057D01*
X211979047Y-41100057D02*
X212026666Y-41195295D01*
X212026666Y-41195295D02*
X212026666Y-41338152D01*
X212026666Y-41338152D02*
X211979047Y-41433390D01*
X211979047Y-41433390D02*
X211931428Y-41481009D01*
X211931428Y-41481009D02*
X211836190Y-41528628D01*
X211836190Y-41528628D02*
X211455238Y-41528628D01*
X212455238Y-41481009D02*
X212788571Y-41481009D01*
X212931428Y-42004819D02*
X212455238Y-42004819D01*
X212455238Y-42004819D02*
X212455238Y-41004819D01*
X212455238Y-41004819D02*
X212931428Y-41004819D01*
X213693333Y-41481009D02*
X213360000Y-41481009D01*
X213360000Y-42004819D02*
X213360000Y-41004819D01*
X213360000Y-41004819D02*
X213836190Y-41004819D01*
X214360000Y-41004819D02*
X214360000Y-41242914D01*
X214121905Y-41147676D02*
X214360000Y-41242914D01*
X214360000Y-41242914D02*
X214598095Y-41147676D01*
X214217143Y-41433390D02*
X214360000Y-41242914D01*
X214360000Y-41242914D02*
X214502857Y-41433390D01*
X215121905Y-41004819D02*
X215121905Y-41242914D01*
X214883810Y-41147676D02*
X215121905Y-41242914D01*
X215121905Y-41242914D02*
X215360000Y-41147676D01*
X214979048Y-41433390D02*
X215121905Y-41242914D01*
X215121905Y-41242914D02*
X215264762Y-41433390D01*
X197434819Y-84413333D02*
X198149104Y-84413333D01*
X198149104Y-84413333D02*
X198291961Y-84460952D01*
X198291961Y-84460952D02*
X198387200Y-84556190D01*
X198387200Y-84556190D02*
X198434819Y-84699047D01*
X198434819Y-84699047D02*
X198434819Y-84794285D01*
X197530057Y-83984761D02*
X197482438Y-83937142D01*
X197482438Y-83937142D02*
X197434819Y-83841904D01*
X197434819Y-83841904D02*
X197434819Y-83603809D01*
X197434819Y-83603809D02*
X197482438Y-83508571D01*
X197482438Y-83508571D02*
X197530057Y-83460952D01*
X197530057Y-83460952D02*
X197625295Y-83413333D01*
X197625295Y-83413333D02*
X197720533Y-83413333D01*
X197720533Y-83413333D02*
X197863390Y-83460952D01*
X197863390Y-83460952D02*
X198434819Y-84032380D01*
X198434819Y-84032380D02*
X198434819Y-83413333D01*
X168359580Y-92666666D02*
X168407200Y-92714285D01*
X168407200Y-92714285D02*
X168454819Y-92857142D01*
X168454819Y-92857142D02*
X168454819Y-92952380D01*
X168454819Y-92952380D02*
X168407200Y-93095237D01*
X168407200Y-93095237D02*
X168311961Y-93190475D01*
X168311961Y-93190475D02*
X168216723Y-93238094D01*
X168216723Y-93238094D02*
X168026247Y-93285713D01*
X168026247Y-93285713D02*
X167883390Y-93285713D01*
X167883390Y-93285713D02*
X167692914Y-93238094D01*
X167692914Y-93238094D02*
X167597676Y-93190475D01*
X167597676Y-93190475D02*
X167502438Y-93095237D01*
X167502438Y-93095237D02*
X167454819Y-92952380D01*
X167454819Y-92952380D02*
X167454819Y-92857142D01*
X167454819Y-92857142D02*
X167502438Y-92714285D01*
X167502438Y-92714285D02*
X167550057Y-92666666D01*
X167454819Y-91761904D02*
X167454819Y-92238094D01*
X167454819Y-92238094D02*
X167931009Y-92285713D01*
X167931009Y-92285713D02*
X167883390Y-92238094D01*
X167883390Y-92238094D02*
X167835771Y-92142856D01*
X167835771Y-92142856D02*
X167835771Y-91904761D01*
X167835771Y-91904761D02*
X167883390Y-91809523D01*
X167883390Y-91809523D02*
X167931009Y-91761904D01*
X167931009Y-91761904D02*
X168026247Y-91714285D01*
X168026247Y-91714285D02*
X168264342Y-91714285D01*
X168264342Y-91714285D02*
X168359580Y-91761904D01*
X168359580Y-91761904D02*
X168407200Y-91809523D01*
X168407200Y-91809523D02*
X168454819Y-91904761D01*
X168454819Y-91904761D02*
X168454819Y-92142856D01*
X168454819Y-92142856D02*
X168407200Y-92238094D01*
X168407200Y-92238094D02*
X168359580Y-92285713D01*
X162324819Y-72356666D02*
X161848628Y-72689999D01*
X162324819Y-72928094D02*
X161324819Y-72928094D01*
X161324819Y-72928094D02*
X161324819Y-72547142D01*
X161324819Y-72547142D02*
X161372438Y-72451904D01*
X161372438Y-72451904D02*
X161420057Y-72404285D01*
X161420057Y-72404285D02*
X161515295Y-72356666D01*
X161515295Y-72356666D02*
X161658152Y-72356666D01*
X161658152Y-72356666D02*
X161753390Y-72404285D01*
X161753390Y-72404285D02*
X161801009Y-72451904D01*
X161801009Y-72451904D02*
X161848628Y-72547142D01*
X161848628Y-72547142D02*
X161848628Y-72928094D01*
X161324819Y-71499523D02*
X161324819Y-71689999D01*
X161324819Y-71689999D02*
X161372438Y-71785237D01*
X161372438Y-71785237D02*
X161420057Y-71832856D01*
X161420057Y-71832856D02*
X161562914Y-71928094D01*
X161562914Y-71928094D02*
X161753390Y-71975713D01*
X161753390Y-71975713D02*
X162134342Y-71975713D01*
X162134342Y-71975713D02*
X162229580Y-71928094D01*
X162229580Y-71928094D02*
X162277200Y-71880475D01*
X162277200Y-71880475D02*
X162324819Y-71785237D01*
X162324819Y-71785237D02*
X162324819Y-71594761D01*
X162324819Y-71594761D02*
X162277200Y-71499523D01*
X162277200Y-71499523D02*
X162229580Y-71451904D01*
X162229580Y-71451904D02*
X162134342Y-71404285D01*
X162134342Y-71404285D02*
X161896247Y-71404285D01*
X161896247Y-71404285D02*
X161801009Y-71451904D01*
X161801009Y-71451904D02*
X161753390Y-71499523D01*
X161753390Y-71499523D02*
X161705771Y-71594761D01*
X161705771Y-71594761D02*
X161705771Y-71785237D01*
X161705771Y-71785237D02*
X161753390Y-71880475D01*
X161753390Y-71880475D02*
X161801009Y-71928094D01*
X161801009Y-71928094D02*
X161896247Y-71975713D01*
X178208333Y-61359580D02*
X178160714Y-61407200D01*
X178160714Y-61407200D02*
X178017857Y-61454819D01*
X178017857Y-61454819D02*
X177922619Y-61454819D01*
X177922619Y-61454819D02*
X177779762Y-61407200D01*
X177779762Y-61407200D02*
X177684524Y-61311961D01*
X177684524Y-61311961D02*
X177636905Y-61216723D01*
X177636905Y-61216723D02*
X177589286Y-61026247D01*
X177589286Y-61026247D02*
X177589286Y-60883390D01*
X177589286Y-60883390D02*
X177636905Y-60692914D01*
X177636905Y-60692914D02*
X177684524Y-60597676D01*
X177684524Y-60597676D02*
X177779762Y-60502438D01*
X177779762Y-60502438D02*
X177922619Y-60454819D01*
X177922619Y-60454819D02*
X178017857Y-60454819D01*
X178017857Y-60454819D02*
X178160714Y-60502438D01*
X178160714Y-60502438D02*
X178208333Y-60550057D01*
X178589286Y-60550057D02*
X178636905Y-60502438D01*
X178636905Y-60502438D02*
X178732143Y-60454819D01*
X178732143Y-60454819D02*
X178970238Y-60454819D01*
X178970238Y-60454819D02*
X179065476Y-60502438D01*
X179065476Y-60502438D02*
X179113095Y-60550057D01*
X179113095Y-60550057D02*
X179160714Y-60645295D01*
X179160714Y-60645295D02*
X179160714Y-60740533D01*
X179160714Y-60740533D02*
X179113095Y-60883390D01*
X179113095Y-60883390D02*
X178541667Y-61454819D01*
X178541667Y-61454819D02*
X179160714Y-61454819D01*
D11*
%TO.C,C1*%
X175770354Y-49625000D02*
X176770354Y-49625000D01*
X176270354Y-49125000D02*
X176270354Y-50125000D01*
X181250000Y-47420000D02*
X181250000Y-57580000D01*
X181290000Y-47420000D02*
X181290000Y-57580000D01*
X181330000Y-47420000D02*
X181330000Y-57580000D01*
X181370000Y-47421000D02*
X181370000Y-57579000D01*
X181410000Y-47422000D02*
X181410000Y-57578000D01*
X181450000Y-47423000D02*
X181450000Y-57577000D01*
X181490000Y-47425000D02*
X181490000Y-57575000D01*
X181530000Y-47427000D02*
X181530000Y-57573000D01*
X181570000Y-47430000D02*
X181570000Y-57570000D01*
X181610000Y-47432000D02*
X181610000Y-57568000D01*
X181650000Y-47435000D02*
X181650000Y-57565000D01*
X181690000Y-47438000D02*
X181690000Y-57562000D01*
X181730000Y-47442000D02*
X181730000Y-57558000D01*
X181770000Y-47446000D02*
X181770000Y-51259000D01*
X181770000Y-53741000D02*
X181770000Y-57554000D01*
X181810000Y-47450000D02*
X181810000Y-51259000D01*
X181810000Y-53741000D02*
X181810000Y-57550000D01*
X181850000Y-47455000D02*
X181850000Y-51259000D01*
X181850000Y-53741000D02*
X181850000Y-57545000D01*
X181890000Y-47460000D02*
X181890000Y-51259000D01*
X181890000Y-53741000D02*
X181890000Y-57540000D01*
X181930000Y-47465000D02*
X181930000Y-51259000D01*
X181930000Y-53741000D02*
X181930000Y-57535000D01*
X181971000Y-47470000D02*
X181971000Y-51259000D01*
X181971000Y-53741000D02*
X181971000Y-57530000D01*
X182011000Y-47476000D02*
X182011000Y-51259000D01*
X182011000Y-53741000D02*
X182011000Y-57524000D01*
X182051000Y-47482000D02*
X182051000Y-51259000D01*
X182051000Y-53741000D02*
X182051000Y-57518000D01*
X182091000Y-47489000D02*
X182091000Y-51259000D01*
X182091000Y-53741000D02*
X182091000Y-57511000D01*
X182131000Y-47496000D02*
X182131000Y-51259000D01*
X182131000Y-53741000D02*
X182131000Y-57504000D01*
X182171000Y-47503000D02*
X182171000Y-51259000D01*
X182171000Y-53741000D02*
X182171000Y-57497000D01*
X182211000Y-47510000D02*
X182211000Y-51259000D01*
X182211000Y-53741000D02*
X182211000Y-57490000D01*
X182251000Y-47518000D02*
X182251000Y-51259000D01*
X182251000Y-53741000D02*
X182251000Y-57482000D01*
X182291000Y-47526000D02*
X182291000Y-51259000D01*
X182291000Y-53741000D02*
X182291000Y-57474000D01*
X182331000Y-47535000D02*
X182331000Y-51259000D01*
X182331000Y-53741000D02*
X182331000Y-57465000D01*
X182371000Y-47544000D02*
X182371000Y-51259000D01*
X182371000Y-53741000D02*
X182371000Y-57456000D01*
X182411000Y-47553000D02*
X182411000Y-51259000D01*
X182411000Y-53741000D02*
X182411000Y-57447000D01*
X182451000Y-47562000D02*
X182451000Y-51259000D01*
X182451000Y-53741000D02*
X182451000Y-57438000D01*
X182491000Y-47572000D02*
X182491000Y-51259000D01*
X182491000Y-53741000D02*
X182491000Y-57428000D01*
X182531000Y-47582000D02*
X182531000Y-51259000D01*
X182531000Y-53741000D02*
X182531000Y-57418000D01*
X182571000Y-47593000D02*
X182571000Y-51259000D01*
X182571000Y-53741000D02*
X182571000Y-57407000D01*
X182611000Y-47603000D02*
X182611000Y-51259000D01*
X182611000Y-53741000D02*
X182611000Y-57397000D01*
X182651000Y-47615000D02*
X182651000Y-51259000D01*
X182651000Y-53741000D02*
X182651000Y-57385000D01*
X182691000Y-47626000D02*
X182691000Y-51259000D01*
X182691000Y-53741000D02*
X182691000Y-57374000D01*
X182731000Y-47638000D02*
X182731000Y-51259000D01*
X182731000Y-53741000D02*
X182731000Y-57362000D01*
X182771000Y-47650000D02*
X182771000Y-51259000D01*
X182771000Y-53741000D02*
X182771000Y-57350000D01*
X182811000Y-47663000D02*
X182811000Y-51259000D01*
X182811000Y-53741000D02*
X182811000Y-57337000D01*
X182851000Y-47676000D02*
X182851000Y-51259000D01*
X182851000Y-53741000D02*
X182851000Y-57324000D01*
X182891000Y-47689000D02*
X182891000Y-51259000D01*
X182891000Y-53741000D02*
X182891000Y-57311000D01*
X182931000Y-47703000D02*
X182931000Y-51259000D01*
X182931000Y-53741000D02*
X182931000Y-57297000D01*
X182971000Y-47717000D02*
X182971000Y-51259000D01*
X182971000Y-53741000D02*
X182971000Y-57283000D01*
X183011000Y-47732000D02*
X183011000Y-51259000D01*
X183011000Y-53741000D02*
X183011000Y-57268000D01*
X183051000Y-47746000D02*
X183051000Y-51259000D01*
X183051000Y-53741000D02*
X183051000Y-57254000D01*
X183091000Y-47762000D02*
X183091000Y-51259000D01*
X183091000Y-53741000D02*
X183091000Y-57238000D01*
X183131000Y-47777000D02*
X183131000Y-51259000D01*
X183131000Y-53741000D02*
X183131000Y-57223000D01*
X183171000Y-47793000D02*
X183171000Y-51259000D01*
X183171000Y-53741000D02*
X183171000Y-57207000D01*
X183211000Y-47810000D02*
X183211000Y-51259000D01*
X183211000Y-53741000D02*
X183211000Y-57190000D01*
X183251000Y-47826000D02*
X183251000Y-51259000D01*
X183251000Y-53741000D02*
X183251000Y-57174000D01*
X183291000Y-47843000D02*
X183291000Y-51259000D01*
X183291000Y-53741000D02*
X183291000Y-57157000D01*
X183331000Y-47861000D02*
X183331000Y-51259000D01*
X183331000Y-53741000D02*
X183331000Y-57139000D01*
X183371000Y-47879000D02*
X183371000Y-51259000D01*
X183371000Y-53741000D02*
X183371000Y-57121000D01*
X183411000Y-47897000D02*
X183411000Y-51259000D01*
X183411000Y-53741000D02*
X183411000Y-57103000D01*
X183451000Y-47916000D02*
X183451000Y-51259000D01*
X183451000Y-53741000D02*
X183451000Y-57084000D01*
X183491000Y-47936000D02*
X183491000Y-51259000D01*
X183491000Y-53741000D02*
X183491000Y-57064000D01*
X183531000Y-47955000D02*
X183531000Y-51259000D01*
X183531000Y-53741000D02*
X183531000Y-57045000D01*
X183571000Y-47975000D02*
X183571000Y-51259000D01*
X183571000Y-53741000D02*
X183571000Y-57025000D01*
X183611000Y-47996000D02*
X183611000Y-51259000D01*
X183611000Y-53741000D02*
X183611000Y-57004000D01*
X183651000Y-48017000D02*
X183651000Y-51259000D01*
X183651000Y-53741000D02*
X183651000Y-56983000D01*
X183691000Y-48038000D02*
X183691000Y-51259000D01*
X183691000Y-53741000D02*
X183691000Y-56962000D01*
X183731000Y-48060000D02*
X183731000Y-51259000D01*
X183731000Y-53741000D02*
X183731000Y-56940000D01*
X183771000Y-48083000D02*
X183771000Y-51259000D01*
X183771000Y-53741000D02*
X183771000Y-56917000D01*
X183811000Y-48105000D02*
X183811000Y-51259000D01*
X183811000Y-53741000D02*
X183811000Y-56895000D01*
X183851000Y-48129000D02*
X183851000Y-51259000D01*
X183851000Y-53741000D02*
X183851000Y-56871000D01*
X183891000Y-48153000D02*
X183891000Y-51259000D01*
X183891000Y-53741000D02*
X183891000Y-56847000D01*
X183931000Y-48177000D02*
X183931000Y-51259000D01*
X183931000Y-53741000D02*
X183931000Y-56823000D01*
X183971000Y-48202000D02*
X183971000Y-51259000D01*
X183971000Y-53741000D02*
X183971000Y-56798000D01*
X184011000Y-48227000D02*
X184011000Y-51259000D01*
X184011000Y-53741000D02*
X184011000Y-56773000D01*
X184051000Y-48253000D02*
X184051000Y-51259000D01*
X184051000Y-53741000D02*
X184051000Y-56747000D01*
X184091000Y-48279000D02*
X184091000Y-51259000D01*
X184091000Y-53741000D02*
X184091000Y-56721000D01*
X184131000Y-48306000D02*
X184131000Y-51259000D01*
X184131000Y-53741000D02*
X184131000Y-56694000D01*
X184171000Y-48334000D02*
X184171000Y-51259000D01*
X184171000Y-53741000D02*
X184171000Y-56666000D01*
X184211000Y-48362000D02*
X184211000Y-51259000D01*
X184211000Y-53741000D02*
X184211000Y-56638000D01*
X184251000Y-48390000D02*
X184251000Y-56610000D01*
X184291000Y-48420000D02*
X184291000Y-56580000D01*
X184331000Y-48450000D02*
X184331000Y-56550000D01*
X184371000Y-48480000D02*
X184371000Y-56520000D01*
X184411000Y-48511000D02*
X184411000Y-56489000D01*
X184451000Y-48543000D02*
X184451000Y-56457000D01*
X184491000Y-48575000D02*
X184491000Y-56425000D01*
X184531000Y-48608000D02*
X184531000Y-56392000D01*
X184571000Y-48642000D02*
X184571000Y-56358000D01*
X184611000Y-48676000D02*
X184611000Y-56324000D01*
X184651000Y-48711000D02*
X184651000Y-56289000D01*
X184691000Y-48747000D02*
X184691000Y-56253000D01*
X184731000Y-48784000D02*
X184731000Y-56216000D01*
X184771000Y-48821000D02*
X184771000Y-56179000D01*
X184811000Y-48860000D02*
X184811000Y-56140000D01*
X184851000Y-48899000D02*
X184851000Y-56101000D01*
X184891000Y-48939000D02*
X184891000Y-56061000D01*
X184931000Y-48980000D02*
X184931000Y-56020000D01*
X184971000Y-49022000D02*
X184971000Y-55978000D01*
X185011000Y-49064000D02*
X185011000Y-55936000D01*
X185051000Y-49108000D02*
X185051000Y-55892000D01*
X185091000Y-49153000D02*
X185091000Y-55847000D01*
X185131000Y-49199000D02*
X185131000Y-55801000D01*
X185171000Y-49246000D02*
X185171000Y-55754000D01*
X185211000Y-49294000D02*
X185211000Y-55706000D01*
X185251000Y-49344000D02*
X185251000Y-55656000D01*
X185291000Y-49394000D02*
X185291000Y-55606000D01*
X185331000Y-49446000D02*
X185331000Y-55554000D01*
X185371000Y-49500000D02*
X185371000Y-55500000D01*
X185411000Y-49555000D02*
X185411000Y-55445000D01*
X185451000Y-49611000D02*
X185451000Y-55389000D01*
X185491000Y-49670000D02*
X185491000Y-55330000D01*
X185531000Y-49730000D02*
X185531000Y-55270000D01*
X185571000Y-49791000D02*
X185571000Y-55209000D01*
X185611000Y-49855000D02*
X185611000Y-55145000D01*
X185651000Y-49921000D02*
X185651000Y-55079000D01*
X185691000Y-49990000D02*
X185691000Y-55010000D01*
X185731000Y-50061000D02*
X185731000Y-54939000D01*
X185771000Y-50135000D02*
X185771000Y-54865000D01*
X185811000Y-50211000D02*
X185811000Y-54789000D01*
X185851000Y-50291000D02*
X185851000Y-54709000D01*
X185891000Y-50375000D02*
X185891000Y-54625000D01*
X185931000Y-50463000D02*
X185931000Y-54537000D01*
X185971000Y-50556000D02*
X185971000Y-54444000D01*
X186011000Y-50654000D02*
X186011000Y-54346000D01*
X186051000Y-50758000D02*
X186051000Y-54242000D01*
X186091000Y-50870000D02*
X186091000Y-54130000D01*
X186131000Y-50990000D02*
X186131000Y-54010000D01*
X186171000Y-51122000D02*
X186171000Y-53878000D01*
X186211000Y-51270000D02*
X186211000Y-53730000D01*
X186251000Y-51438000D02*
X186251000Y-53562000D01*
X186291000Y-51638000D02*
X186291000Y-53362000D01*
X186331000Y-51901000D02*
X186331000Y-53099000D01*
X186370000Y-52500000D02*
G75*
G02*
X176130000Y-52500000I-5120000J0D01*
G01*
X176130000Y-52500000D02*
G75*
G02*
X186370000Y-52500000I5120000J0D01*
G01*
%TO.C,RV2*%
X133390000Y-64975000D02*
X133390000Y-74725000D01*
X133390000Y-74725000D02*
X138440000Y-74725000D01*
X138000000Y-66195000D02*
X138000000Y-73505000D01*
X138440000Y-64975000D02*
X133390000Y-64975000D01*
X138440000Y-66195000D02*
X138000000Y-66195000D01*
X138440000Y-66195000D02*
X138440000Y-64975000D01*
X138440000Y-73505000D02*
X138000000Y-73505000D01*
X138440000Y-73505000D02*
X138440000Y-74725000D01*
X138790000Y-67760000D02*
X138290000Y-67310000D01*
X138790000Y-66860000D01*
X138790000Y-67760000D01*
G36*
X138790000Y-67760000D02*
G01*
X138290000Y-67310000D01*
X138790000Y-66860000D01*
X138790000Y-67760000D01*
G37*
%TO.C,RV1*%
X191890000Y-90170000D02*
G75*
G02*
X184030000Y-90170000I-3930000J0D01*
G01*
X184030000Y-90170000D02*
G75*
G02*
X191890000Y-90170000I3930000J0D01*
G01*
%TO.C,R1*%
X141130000Y-51230000D02*
X141460000Y-51230000D01*
X141130000Y-57770000D02*
X141130000Y-51230000D01*
X141460000Y-57770000D02*
X141130000Y-57770000D01*
X143540000Y-57770000D02*
X143870000Y-57770000D01*
X143870000Y-51230000D02*
X143540000Y-51230000D01*
X143870000Y-57770000D02*
X143870000Y-51230000D01*
%TO.C,D2*%
X148440000Y-62264000D02*
X148440000Y-62420000D01*
X148440000Y-64580000D02*
X148440000Y-64736000D01*
X148440000Y-62264484D02*
G75*
G02*
X151671397Y-62419939I1560000J-1235516D01*
G01*
X148959039Y-62420000D02*
G75*
G02*
X151040910Y-62419951I1040961J-1080000D01*
G01*
X151040910Y-64580049D02*
G75*
G02*
X148959039Y-64580000I-1040910J1080049D01*
G01*
X151671397Y-64580061D02*
G75*
G02*
X148440000Y-64735516I-1671397J1080061D01*
G01*
%TO.C,R5*%
X145630000Y-51230000D02*
X145960000Y-51230000D01*
X145630000Y-57770000D02*
X145630000Y-51230000D01*
X145960000Y-57770000D02*
X145630000Y-57770000D01*
X148040000Y-57770000D02*
X148370000Y-57770000D01*
X148370000Y-51230000D02*
X148040000Y-51230000D01*
X148370000Y-57770000D02*
X148370000Y-51230000D01*
%TO.C,R2*%
X136630000Y-51230000D02*
X136960000Y-51230000D01*
X136630000Y-57770000D02*
X136630000Y-51230000D01*
X136960000Y-57770000D02*
X136630000Y-57770000D01*
X139040000Y-57770000D02*
X139370000Y-57770000D01*
X139370000Y-51230000D02*
X139040000Y-51230000D01*
X139370000Y-57770000D02*
X139370000Y-51230000D01*
%TO.C,R4*%
X176630000Y-89280000D02*
X176960000Y-89280000D01*
X176630000Y-95820000D02*
X176630000Y-89280000D01*
X176960000Y-95820000D02*
X176630000Y-95820000D01*
X179040000Y-95820000D02*
X179370000Y-95820000D01*
X179370000Y-89280000D02*
X179040000Y-89280000D01*
X179370000Y-95820000D02*
X179370000Y-89280000D01*
%TO.C,D1*%
X192030000Y-50280000D02*
X192030000Y-55720000D01*
X192030000Y-55720000D02*
X194970000Y-55720000D01*
X193500000Y-49260000D02*
X193500000Y-50280000D01*
X193500000Y-56740000D02*
X193500000Y-55720000D01*
X194970000Y-50280000D02*
X192030000Y-50280000D01*
X194970000Y-51060000D02*
X192030000Y-51060000D01*
X194970000Y-51180000D02*
X192030000Y-51180000D01*
X194970000Y-51300000D02*
X192030000Y-51300000D01*
X194970000Y-55720000D02*
X194970000Y-50280000D01*
%TO.C,J1*%
X198980000Y-58840000D02*
X210420000Y-58840000D01*
X198980000Y-74320000D02*
X198980000Y-58840000D01*
X198980000Y-74320000D02*
X210420000Y-74320000D01*
X201100000Y-74320000D02*
X201100000Y-58840000D01*
X203210000Y-59998000D02*
X203606000Y-60394000D01*
X203210000Y-65078000D02*
X203606000Y-65474000D01*
X203498000Y-59710000D02*
X203894000Y-60106000D01*
X203498000Y-64790000D02*
X203894000Y-65186000D01*
X206106000Y-62895000D02*
X206502000Y-63290000D01*
X206106000Y-67975000D02*
X206502000Y-68370000D01*
X206394000Y-62607000D02*
X206790000Y-63002000D01*
X206394000Y-67687000D02*
X206790000Y-68082000D01*
X206491000Y-73440000D02*
X206502000Y-73450000D01*
X206780000Y-73153000D02*
X206790000Y-73162000D01*
X207300000Y-74320000D02*
X207300000Y-58840000D01*
X209800000Y-74320000D02*
X209800000Y-58840000D01*
X210420000Y-71360000D02*
X210420000Y-58840000D01*
X210420000Y-74320000D02*
X210420000Y-71960000D01*
X203220000Y-73210000D02*
G75*
G02*
X203219585Y-70110477I1780001J1550000D01*
G01*
X203450000Y-69880000D02*
G75*
G02*
X206549523Y-69879585I1550000J-1780001D01*
G01*
X206550000Y-73440000D02*
G75*
G02*
X203450477Y-73440415I-1550000J1780000D01*
G01*
X206780000Y-70110000D02*
G75*
G02*
X206780415Y-73209523I-1780000J-1550000D01*
G01*
X207360000Y-61500000D02*
G75*
G02*
X202640000Y-61500000I-2360000J0D01*
G01*
X202640000Y-61500000D02*
G75*
G02*
X207360000Y-61500000I2360000J0D01*
G01*
X207360000Y-66580000D02*
G75*
G02*
X202640000Y-66580000I-2360000J0D01*
G01*
X202640000Y-66580000D02*
G75*
G02*
X207360000Y-66580000I2360000J0D01*
G01*
X211030000Y-72100000D02*
X210420000Y-71660000D01*
X211030000Y-71220000D01*
X211030000Y-72100000D01*
G36*
X211030000Y-72100000D02*
G01*
X210420000Y-71660000D01*
X211030000Y-71220000D01*
X211030000Y-72100000D01*
G37*
%TO.C,SW1*%
X158850000Y-81640000D02*
X169070000Y-81640000D01*
X169070000Y-84360000D01*
X158850000Y-84360000D01*
X158850000Y-81640000D01*
%TO.C,R8*%
X151630000Y-81230000D02*
X151960000Y-81230000D01*
X151630000Y-87770000D02*
X151630000Y-81230000D01*
X151960000Y-87770000D02*
X151630000Y-87770000D01*
X154040000Y-87770000D02*
X154370000Y-87770000D01*
X154370000Y-81230000D02*
X154040000Y-81230000D01*
X154370000Y-87770000D02*
X154370000Y-81230000D01*
%TO.C,RV4*%
X162930000Y-59540000D02*
G75*
G02*
X155070000Y-59540000I-3930000J0D01*
G01*
X155070000Y-59540000D02*
G75*
G02*
X162930000Y-59540000I3930000J0D01*
G01*
D12*
%TO.C,IC1*%
X166370000Y-75311000D02*
X166370000Y-69469000D01*
X166370000Y-75311000D02*
X184150000Y-75311000D01*
X184150000Y-69469000D02*
X166370000Y-69469000D01*
X184150000Y-69469000D02*
X184150000Y-71374000D01*
X184150000Y-75311000D02*
X184150000Y-73406000D01*
X184150000Y-73406000D02*
G75*
G02*
X184150000Y-71374000I0J1016000D01*
G01*
D11*
%TO.C,C3*%
X158130000Y-89880000D02*
X158575000Y-89880000D01*
X158130000Y-96120000D02*
X158130000Y-89880000D01*
X158130000Y-96120000D02*
X158575000Y-96120000D01*
X160425000Y-89880000D02*
X160870000Y-89880000D01*
X160425000Y-96120000D02*
X160870000Y-96120000D01*
X160870000Y-96120000D02*
X160870000Y-89880000D01*
%TO.C,C4*%
X162130000Y-89380000D02*
X164870000Y-89380000D01*
X162130000Y-96620000D02*
X162130000Y-89380000D01*
X162130000Y-96620000D02*
X164870000Y-96620000D01*
X164870000Y-96620000D02*
X164870000Y-89380000D01*
%TO.C,R7*%
X168130000Y-49540000D02*
X168460000Y-49540000D01*
X168130000Y-56080000D02*
X168130000Y-49540000D01*
X168460000Y-56080000D02*
X168130000Y-56080000D01*
X170540000Y-56080000D02*
X170870000Y-56080000D01*
X170870000Y-49540000D02*
X170540000Y-49540000D01*
X170870000Y-56080000D02*
X170870000Y-49540000D01*
%TO.C,J2*%
X198980000Y-76340000D02*
X210420000Y-76340000D01*
X198980000Y-91820000D02*
X198980000Y-76340000D01*
X198980000Y-91820000D02*
X210420000Y-91820000D01*
X201100000Y-91820000D02*
X201100000Y-76340000D01*
X203210000Y-77498000D02*
X203606000Y-77894000D01*
X203210000Y-82578000D02*
X203606000Y-82974000D01*
X203498000Y-77210000D02*
X203894000Y-77606000D01*
X203498000Y-82290000D02*
X203894000Y-82686000D01*
X206106000Y-80395000D02*
X206502000Y-80790000D01*
X206106000Y-85475000D02*
X206502000Y-85870000D01*
X206394000Y-80107000D02*
X206790000Y-80502000D01*
X206394000Y-85187000D02*
X206790000Y-85582000D01*
X206491000Y-90940000D02*
X206502000Y-90950000D01*
X206780000Y-90653000D02*
X206790000Y-90662000D01*
X207300000Y-91820000D02*
X207300000Y-76340000D01*
X209800000Y-91820000D02*
X209800000Y-76340000D01*
X210420000Y-88860000D02*
X210420000Y-76340000D01*
X210420000Y-91820000D02*
X210420000Y-89460000D01*
X203220000Y-90710000D02*
G75*
G02*
X203219585Y-87610477I1780001J1550000D01*
G01*
X203450000Y-87380000D02*
G75*
G02*
X206549523Y-87379585I1550000J-1780001D01*
G01*
X206550000Y-90940000D02*
G75*
G02*
X203450477Y-90940415I-1550000J1780000D01*
G01*
X206780000Y-87610000D02*
G75*
G02*
X206780415Y-90709523I-1780000J-1550000D01*
G01*
X207360000Y-79000000D02*
G75*
G02*
X202640000Y-79000000I-2360000J0D01*
G01*
X202640000Y-79000000D02*
G75*
G02*
X207360000Y-79000000I2360000J0D01*
G01*
X207360000Y-84080000D02*
G75*
G02*
X202640000Y-84080000I-2360000J0D01*
G01*
X202640000Y-84080000D02*
G75*
G02*
X207360000Y-84080000I2360000J0D01*
G01*
X211030000Y-89600000D02*
X210420000Y-89160000D01*
X211030000Y-88720000D01*
X211030000Y-89600000D01*
G36*
X211030000Y-89600000D02*
G01*
X210420000Y-89160000D01*
X211030000Y-88720000D01*
X211030000Y-89600000D01*
G37*
%TO.C,RV3*%
X151850000Y-69960000D02*
G75*
G02*
X143990000Y-69960000I-3930000J0D01*
G01*
X143990000Y-69960000D02*
G75*
G02*
X151850000Y-69960000I3930000J0D01*
G01*
%TO.C,C5*%
X166130000Y-89380000D02*
X168870000Y-89380000D01*
X166130000Y-96620000D02*
X166130000Y-89380000D01*
X166130000Y-96620000D02*
X168870000Y-96620000D01*
X168870000Y-96620000D02*
X168870000Y-89380000D01*
%TO.C,R3*%
X188630000Y-70390000D02*
X188960000Y-70390000D01*
X188630000Y-76930000D02*
X188630000Y-70390000D01*
X188960000Y-76930000D02*
X188630000Y-76930000D01*
X191040000Y-76930000D02*
X191370000Y-76930000D01*
X191370000Y-70390000D02*
X191040000Y-70390000D01*
X191370000Y-76930000D02*
X191370000Y-70390000D01*
%TO.C,R6*%
X158130000Y-68920000D02*
X158130000Y-75460000D01*
X158130000Y-75460000D02*
X158460000Y-75460000D01*
X158460000Y-68920000D02*
X158130000Y-68920000D01*
X160540000Y-68920000D02*
X160870000Y-68920000D01*
X160870000Y-68920000D02*
X160870000Y-75460000D01*
X160870000Y-75460000D02*
X160540000Y-75460000D01*
%TO.C,C2*%
X175755000Y-62130000D02*
X175755000Y-64870000D01*
X175755000Y-62130000D02*
X180995000Y-62130000D01*
X175755000Y-64870000D02*
X180995000Y-64870000D01*
X180995000Y-62130000D02*
X180995000Y-64870000D01*
%TD*%
M02*
